<svg width="110" height="101" viewBox="0 0 110 101" fill="none" xmlns="http://www.w3.org/2000/svg">
<g clip-path="url(#clip0_2077_69154)">
<path d="M1.8457 18.4609H101.407" stroke="#3C3C3C" stroke-width="2.5" stroke-linecap="round" stroke-linejoin="round"/>
<path d="M11.8262 10.5273H24.155" stroke="#3C3C3C" stroke-width="2.5" stroke-linecap="round" stroke-linejoin="round"/>
<path d="M32.291 10.5273H36.9716" stroke="#3C3C3C" stroke-width="2.5" stroke-linecap="round" stroke-linejoin="round"/>
<path d="M101.407 64.2371V11.9934C101.407 6.37751 96.8296 1.83203 91.1746 1.83203H12.0779C6.42288 1.83203 1.8457 6.37751 1.8457 11.9934V65.2048C1.8457 70.8207 6.42288 75.3662 12.0779 75.3662H66.9598" stroke="#3C3C3C" stroke-width="2.5" stroke-linecap="round" stroke-linejoin="round"/>
<path d="M29.2637 59.5317L38.6247 33.2559L47.9711 59.5317" stroke="#561AA4" stroke-width="2.5" stroke-linecap="round" stroke-linejoin="round"/>
<path d="M31.7598 52.4043H45.1665" stroke="#561AA4" stroke-width="2.5" stroke-linecap="round" stroke-linejoin="round"/>
<path d="M62.9295 59.5317C69.3967 59.5317 73.9738 53.6519 73.9738 46.3938C73.9738 39.1357 69.3819 33.2559 62.9295 33.2559H56.5215V59.5317H62.9295Z" stroke="#561AA4" stroke-width="2.5" stroke-linecap="round" stroke-linejoin="round"/>
<path d="M74.3711 10.5273H75.2275" stroke="#3C3C3C" stroke-width="2.5" stroke-linecap="round" stroke-linejoin="round"/>
<path d="M82.0938 10.5273H82.9354" stroke="#3C3C3C" stroke-width="2.5" stroke-linecap="round" stroke-linejoin="round"/>
<path d="M89.8008 10.5273H90.6572" stroke="#3C3C3C" stroke-width="2.5" stroke-linecap="round" stroke-linejoin="round"/>
<path d="M72.3927 65.4264L83.8799 97.2888C84.6182 99.3416 87.5269 99.3416 88.2799 97.3034L92.6947 85.3385C93.0195 84.4734 93.6987 83.7989 94.5699 83.4764L106.618 79.0922C108.671 78.3444 108.671 75.4558 106.603 74.7226L74.5189 63.315C73.2048 62.8458 71.935 64.1068 72.4075 65.4117L72.3927 65.4264Z" stroke="#3C3C3C" stroke-width="2.5" stroke-linecap="round" stroke-linejoin="round"/>
</g>
<defs>
<clipPath id="clip0_2077_69154">
<rect width="110" height="100.66" fill="white"/>
</clipPath>
</defs>
</svg>
