<svg width="110" height="101" viewBox="0 0 110 101" fill="none" xmlns="http://www.w3.org/2000/svg">
<g clip-path="url(#clip0_2077_69246)">
<path d="M108.199 97.8184H0.162109V100.519H108.199V97.8184Z" fill="#3C3C3C"/>
<path d="M2.18752 99.6015C0.557952 97.1526 -1.00859 93.1282 0.819042 87.8704L6.25692 67.7124C7.99452 60.735 12.9102 56.2245 22.6966 52.6682C27.0271 51.0927 29.8721 49.7782 29.8721 46.0239V45.5918H32.573V46.0239C32.573 51.948 27.6123 53.7576 23.6239 55.2071C14.6748 58.4662 10.3984 62.2836 8.87683 68.3967L3.42094 88.6267C3.42094 88.6267 3.40293 88.6897 3.39393 88.7257C1.90842 92.9572 3.14184 96.1623 4.43829 98.1069L2.18752 99.6015Z" fill="#3C3C3C"/>
<path d="M45.843 51.8496C44.1775 50.3281 43.3672 48.4285 43.3672 46.0336V44.7012H46.0681V46.0336C46.0681 47.6542 46.5723 48.8696 47.6617 49.86L45.834 51.8496H45.843Z" fill="#3C3C3C"/>
<path d="M14.2102 85.8099L14.0176 88.5039L26.6258 89.4055L26.8184 86.7114L14.2102 85.8099Z" fill="#3C3C3C"/>
<path d="M64.5416 79.677C61.9037 79.677 59.752 77.5342 59.752 74.8873C59.752 72.2404 61.8947 70.0977 64.5416 70.0977C67.1885 70.0977 69.3313 72.2404 69.3313 74.8873C69.3313 77.5342 67.1885 79.677 64.5416 79.677ZM64.5416 72.8076C63.3892 72.8076 62.4529 73.7439 62.4529 74.8963C62.4529 76.0487 63.3892 76.985 64.5416 76.985C65.694 76.985 66.6303 76.0487 66.6303 74.8963C66.6303 73.7439 65.694 72.8076 64.5416 72.8076Z" fill="#3C3C3C"/>
<path d="M89.2108 94.218H38.9465C35.4262 94.218 32.5723 91.3551 32.5723 87.8438V61.8879C32.5723 58.3677 35.4353 55.5137 38.9465 55.5137H89.2108C92.731 55.5137 95.585 58.3767 95.585 61.8879V87.8438C95.585 91.3641 92.722 94.218 89.2108 94.218ZM38.9465 58.2056C36.9208 58.2056 35.2732 59.8532 35.2732 61.8789V87.8348C35.2732 89.8605 36.9208 91.5081 38.9465 91.5081H89.2108C91.2365 91.5081 92.8841 89.8605 92.8841 87.8348V61.8789C92.8841 59.8532 91.2365 58.2056 89.2108 58.2056H38.9465Z" fill="#3C3C3C"/>
<path d="M93.3449 100.521H34.8247C31.6016 100.521 28.9727 97.9007 28.9727 94.6686V91.9677C28.9727 91.2204 29.5759 90.6172 30.3231 90.6172H36.0851V93.3181H31.6736V94.6686C31.6736 96.4062 33.0871 97.8197 34.8247 97.8197H93.3449C95.0825 97.8197 96.496 96.4062 96.496 94.6686V93.3181H92.0845V90.6172H97.8465C98.5937 90.6172 99.1969 91.2204 99.1969 91.9677V94.6686C99.1969 97.8917 96.577 100.521 93.3449 100.521Z" fill="#3C3C3C"/>
<path d="M72.7811 36.193C73.7755 36.193 74.5817 35.3869 74.5817 34.3924C74.5817 33.398 73.7755 32.5918 72.7811 32.5918C71.7866 32.5918 70.9805 33.398 70.9805 34.3924C70.9805 35.3869 71.7866 36.193 72.7811 36.193Z" fill="#2F48D1"/>
<path d="M79.6502 36.193C80.6447 36.193 81.4509 35.3869 81.4509 34.3924C81.4509 33.398 80.6447 32.5918 79.6502 32.5918C78.6558 32.5918 77.8496 33.398 77.8496 34.3924C77.8496 35.3869 78.6558 36.193 79.6502 36.193Z" fill="#2F48D1"/>
<path d="M86.5194 36.193C87.5138 36.193 88.32 35.3869 88.32 34.3924C88.32 33.398 87.5138 32.5918 86.5194 32.5918C85.5249 32.5918 84.7188 33.398 84.7188 34.3924C84.7188 35.3869 85.5249 36.193 86.5194 36.193Z" fill="#2F48D1"/>
<path d="M26.111 52.54L24.2734 54.5195L28.4964 58.4396L30.3339 56.4601L26.111 52.54Z" fill="#3C3C3C"/>
<path d="M65.8857 52.352C65.6786 52.352 65.4626 52.307 65.2645 52.1989C64.7783 51.9468 64.4902 51.4247 64.5353 50.8845L65.0934 44.3752C63.896 43.3849 63.1758 41.8994 63.1758 40.3328V29.268C63.1758 26.36 65.5436 23.9922 68.4516 23.9922H90.3202C93.2282 23.9922 95.596 26.36 95.596 29.268V40.3328C95.596 43.2408 93.2282 45.6087 90.3202 45.6087H74.2676L66.759 52.0369C66.5069 52.253 66.2008 52.361 65.8767 52.361L65.8857 52.352ZM68.4606 26.6931C67.0381 26.6931 65.8857 27.8455 65.8857 29.268V40.3328C65.8857 41.2512 66.3719 42.0794 67.1912 42.5476C67.6503 42.8087 67.9114 43.3129 67.8664 43.835L67.5243 47.8324L72.9081 43.2228C73.1512 43.0158 73.4663 42.8987 73.7904 42.8987H90.3382C91.7607 42.8987 92.9131 41.7463 92.9131 40.3238V29.259C92.9131 27.8365 91.7607 26.6841 90.3382 26.6841H68.4696L68.4606 26.6931Z" fill="#2F48D1"/>
<path d="M107.298 40.6496C106.983 40.6496 106.668 40.5416 106.416 40.3255L98.529 33.5732L100.285 31.5205L105.669 36.1301L105.326 32.1327C105.281 31.6105 105.542 31.1063 106.002 30.8452C106.821 30.3771 107.307 29.5488 107.307 28.6305V17.5747C107.307 16.1522 106.155 14.9998 104.732 14.9998H81.9633C80.5408 14.9998 79.3884 16.1522 79.3884 17.5747V20.8518H76.6875V17.5747C76.6875 14.6666 79.0553 12.2988 81.9633 12.2988H104.732C107.64 12.2988 110.008 14.6666 110.008 17.5747V28.6305C110.008 30.197 109.288 31.6825 108.09 32.6729L108.649 39.1821C108.694 39.7313 108.405 40.2445 107.919 40.4966C107.721 40.5956 107.514 40.6496 107.298 40.6496Z" fill="#2F48D1"/>
<path d="M24.5606 50.562C16.6109 50.562 13.1717 45.7813 13.0276 45.5743C12.6765 45.0791 12.7035 44.4129 13.0906 43.9447C17.8713 38.0927 17.4932 34.2664 16.8539 27.9192C16.6109 25.4883 16.3318 22.7334 16.3318 19.4653C16.3318 13.1181 20.068 6.07763 28.3869 4.45707C31.0608 1.97222 36.3187 -0.296568 40.9373 0.0365473C52.7313 0.900846 59.0965 10.2641 59.0965 18.637C59.0965 21.5 58.9255 24.0388 58.7724 26.2806C58.4573 30.8632 58.2142 34.4824 59.5647 38.1557L57.0348 39.092C55.4773 34.8696 55.7564 30.8092 56.0805 26.1006C56.2335 23.9038 56.4046 21.4009 56.4046 18.637C56.4046 11.4795 50.9217 3.47574 40.7482 2.72848C36.3637 2.40437 31.7451 4.88022 30.0075 6.65383C29.8094 6.8609 29.5483 6.99595 29.2692 7.04097C21.1934 8.41844 19.0417 15.4949 19.0417 19.4653C19.0417 22.5983 19.3118 25.2813 19.5459 27.6491C20.1491 33.6632 20.6262 38.4798 15.8996 44.746C17.052 45.8624 19.798 47.8611 24.5696 47.8611C24.6236 47.8611 24.6776 47.8611 24.7407 47.8611L24.7677 50.562C24.7046 50.562 24.6326 50.562 24.5696 50.562H24.5606Z" fill="#3C3C3C"/>
<path d="M37.624 48.6084C30.6376 48.6084 21.7695 39.9655 21.7695 30.2601V24.129C21.7695 23.6698 22.0036 23.2377 22.3907 22.9946C22.4358 22.9676 26.9103 20.0416 31.6009 13.3973C31.844 13.0462 32.2401 12.8391 32.6723 12.8301C33.1135 12.8301 33.5096 13.0101 33.7707 13.3433C38.3533 19.1863 52.128 22.7875 52.2631 22.8235C52.8573 22.9766 53.2804 23.5168 53.2804 24.129V30.2601C53.2804 39.1822 45.2316 48.6084 37.624 48.6084ZM24.4705 24.8312V30.2511C24.4705 38.1648 32.0061 45.8985 37.624 45.8985C43.2419 45.8985 50.5795 38.3089 50.5795 30.2511V25.1553C47.4194 24.246 37.7771 21.185 32.8163 16.3053C29.1701 21.149 25.8209 23.8409 24.4705 24.8312Z" fill="#3C3C3C"/>
<path d="M38.0734 37.4989H36.6239C35.8766 37.4989 35.2734 36.8957 35.2734 36.1484C35.2734 35.4012 35.8766 34.798 36.6239 34.798H38.0734C38.5146 34.798 38.8747 34.4378 38.8747 33.9967V30.2154C38.8747 26.9292 41.1795 24.8945 43.3222 24.8945H46.5273C47.2746 24.8945 47.8778 25.4977 47.8778 26.245C47.8778 26.9923 47.2746 27.5955 46.5273 27.5955H43.3222C42.728 27.5955 41.5756 28.3877 41.5756 30.2154V33.9967C41.5756 35.9233 40.0091 37.4989 38.0734 37.4989Z" fill="#3C3C3C"/>
<path d="M33.0241 27.5955H30.3231C29.5759 27.5955 28.9727 26.9923 28.9727 26.245C28.9727 25.4977 29.5759 24.8945 30.3231 24.8945H33.0241C33.7713 24.8945 34.3745 25.4977 34.3745 26.245C34.3745 26.9923 33.7713 27.5955 33.0241 27.5955Z" fill="#3C3C3C"/>
<path d="M31.2417 29.457C30.4314 29.457 29.7832 30.1143 29.7832 30.9155C29.7832 31.7168 30.4404 32.374 31.2417 32.374C32.043 32.374 32.7002 31.7168 32.7002 30.9155C32.7002 30.1143 32.043 29.457 31.2417 29.457Z" fill="#3C3C3C"/>
<path d="M44.771 29.459C43.9607 29.459 43.3125 30.1162 43.3125 30.9175C43.3125 31.7188 43.9697 32.376 44.771 32.376C45.5723 32.376 46.2295 31.7188 46.2295 30.9175C46.2295 30.1162 45.5723 29.459 44.771 29.459Z" fill="#3C3C3C"/>
<path d="M37.876 43.0346C36.5976 43.0346 35.2831 42.6565 34.2928 41.9002C33.6986 41.4501 33.5815 40.6038 34.0317 40.0096C34.4818 39.4154 35.3281 39.2983 35.9223 39.7485C36.9937 40.5587 38.8663 40.4687 39.5866 39.8205C40.1448 39.3253 40.9911 39.3703 41.4953 39.9285C41.9904 40.4867 41.9454 41.342 41.3872 41.8372C40.4959 42.6385 39.1995 43.0346 37.876 43.0346Z" fill="#3C3C3C"/>
<path d="M21.892 73.0754L15.5879 86.5762L18.0352 87.7189L24.3393 74.2181L21.892 73.0754Z" fill="#3C3C3C"/>
</g>
<defs>
<clipPath id="clip0_2077_69246">
<rect width="110" height="100.52" fill="white"/>
</clipPath>
</defs>
</svg>
