<svg width="110" height="92" viewBox="0 0 110 92" fill="none" xmlns="http://www.w3.org/2000/svg">
<g clip-path="url(#clip0_2077_69173)">
<path d="M81.834 55.0156C87.9673 55.0156 91.8173 55.0156 95.684 57.5823C102.534 62.149 105.934 68.9823 105.984 80.5656" stroke="#3C3C3C" stroke-width="2.5" stroke-linecap="round" stroke-linejoin="round"/>
<path d="M94.0658 90.2507C96.7351 90.2507 98.8991 88.0867 98.8991 85.4173C98.8991 82.7479 96.7351 80.584 94.0658 80.584C91.3964 80.584 89.2324 82.7479 89.2324 85.4173C89.2324 88.0867 91.3964 90.2507 94.0658 90.2507Z" stroke="#3C3C3C" stroke-width="2.5" stroke-linecap="round" stroke-linejoin="round"/>
<path d="M19.3997 90.2507C22.0691 90.2507 24.2331 88.0867 24.2331 85.4173C24.2331 82.7479 22.0691 80.584 19.3997 80.584C16.7304 80.584 14.5664 82.7479 14.5664 85.4173C14.5664 88.0867 16.7304 90.2507 19.3997 90.2507Z" stroke="#3C3C3C" stroke-width="2.5" stroke-linecap="round" stroke-linejoin="round"/>
<path d="M14.566 85.3174H7.58268C6.51602 85.3174 5.66602 84.4508 5.66602 83.4008V52.7174C5.66602 51.6508 6.53268 50.8008 7.58268 50.8008H79.916C80.9827 50.8008 81.8327 51.6674 81.8327 52.7174V80.5841" stroke="#3C3C3C" stroke-width="2.5" stroke-linecap="round" stroke-linejoin="round"/>
<path d="M28.3991 85.3164H24.2324" stroke="#3C3C3C" stroke-width="2.5" stroke-linecap="round" stroke-linejoin="round"/>
<path d="M42.2497 85.3164H38.0664" stroke="#3C3C3C" stroke-width="2.5" stroke-linecap="round" stroke-linejoin="round"/>
<path d="M66.0494 85.3164H51.916" stroke="#3C3C3C" stroke-width="2.5" stroke-linecap="round" stroke-linejoin="round"/>
<path d="M89.2335 85.3164H75.7168" stroke="#3C3C3C" stroke-width="2.5" stroke-linecap="round" stroke-linejoin="round"/>
<path d="M33.2337 90.2507C35.9031 90.2507 38.0671 88.0867 38.0671 85.4173C38.0671 82.7479 35.9031 80.584 33.2337 80.584C30.5643 80.584 28.4004 82.7479 28.4004 85.4173C28.4004 88.0867 30.5643 90.2507 33.2337 90.2507Z" stroke="#3C3C3C" stroke-width="2.5" stroke-linecap="round" stroke-linejoin="round"/>
<path d="M47.0833 90.2507C49.7527 90.2507 51.9167 88.0867 51.9167 85.4173C51.9167 82.7479 49.7527 80.584 47.0833 80.584C44.414 80.584 42.25 82.7479 42.25 85.4173C42.25 88.0867 44.414 90.2507 47.0833 90.2507Z" stroke="#3C3C3C" stroke-width="2.5" stroke-linecap="round" stroke-linejoin="round"/>
<path d="M70.8841 90.2507C73.5535 90.2507 75.7174 88.0867 75.7174 85.4173C75.7174 82.7479 73.5535 80.584 70.8841 80.584C68.2147 80.584 66.0508 82.7479 66.0508 85.4173C66.0508 88.0867 68.2147 90.2507 70.8841 90.2507Z" stroke="#3C3C3C" stroke-width="2.5" stroke-linecap="round" stroke-linejoin="round"/>
<path d="M5.65039 80.584H106.017C106.734 80.584 107.3 81.1673 107.3 81.8673V84.034C107.3 84.7507 106.717 85.3173 106.017 85.3173H98.9004" stroke="#3C3C3C" stroke-width="2.5" stroke-linecap="round" stroke-linejoin="round"/>
<path d="M104.567 70.4668H81.834" stroke="#3C3C3C" stroke-width="2.5" stroke-linecap="round" stroke-linejoin="round"/>
<path d="M89.5508 61.084C90.4841 61.334 91.3508 61.7007 92.2341 62.3007C92.7674 62.6673 93.2841 63.0507 93.7508 63.434" stroke="#3C3C3C" stroke-width="2.5" stroke-linecap="round" stroke-linejoin="round"/>
<path d="M49.9673 44.5331C52.1673 42.0331 54.034 39.0497 54.5673 35.7831C56.1173 26.4497 49.6007 21.1997 46.584 19.3164" stroke="#3C3C3C" stroke-width="2.5" stroke-linecap="round" stroke-linejoin="round"/>
<path d="M46.3999 16.7009C46.3999 14.9509 44.9832 13.5176 43.2165 13.5176C41.4499 13.5176 40.0332 14.9342 40.0332 16.7009C40.0332 18.4676 41.4499 19.8842 43.2165 19.8842C44.9832 19.8842 46.3999 18.4676 46.3999 16.7009Z" stroke="#561AA4" stroke-width="2.5" stroke-linecap="round" stroke-linejoin="round"/>
<path d="M59.8496 29.3328C59.8496 29.3328 62.3163 23.7661 67.8996 20.3828" stroke="#3C3C3C" stroke-width="2.5" stroke-linecap="round" stroke-linejoin="round"/>
<path d="M73.2165 19.9331C74.9746 19.9331 76.3999 18.5078 76.3999 16.7497C76.3999 14.9916 74.9746 13.5664 73.2165 13.5664C71.4584 13.5664 70.0332 14.9916 70.0332 16.7497C70.0332 18.5078 71.4584 19.9331 73.2165 19.9331Z" stroke="#561AA4" stroke-width="2.5" stroke-linecap="round" stroke-linejoin="round"/>
<path d="M35.1671 44.5336C33.7337 40.8003 32.7171 35.9669 33.8004 30.8169C36.9504 15.8836 22.4004 8.18359 22.4004 8.18359" stroke="#3C3C3C" stroke-width="2.5" stroke-linecap="round" stroke-linejoin="round"/>
<path d="M27.9508 36.0837C27.9508 36.0837 22.1341 28.3671 13.3008 26.6504" stroke="#3C3C3C" stroke-width="2.5" stroke-linecap="round" stroke-linejoin="round"/>
<path d="M8.01706 25.8005C8.01706 24.0505 6.60039 22.6172 4.83372 22.6172C3.06706 22.6172 1.65039 24.0339 1.65039 25.8005C1.65039 27.5672 3.06706 28.9839 4.83372 28.9839C6.60039 28.9839 8.01706 27.5672 8.01706 25.8005Z" stroke="#561AA4" stroke-width="2.5" stroke-linecap="round" stroke-linejoin="round"/>
<path d="M18.4331 4.84935C18.4331 3.09935 17.0164 1.66602 15.2497 1.66602C13.4831 1.66602 12.0664 3.08268 12.0664 4.84935C12.0664 6.61602 13.4831 8.03268 15.2497 8.03268C17.0164 8.03268 18.4331 6.61602 18.4331 4.84935Z" stroke="#561AA4" stroke-width="2.5" stroke-linecap="round" stroke-linejoin="round"/>
<path d="M82.9336 37.499C85.7169 35.1823 87.2003 35.549 92.0669 36.0656C96.0836 36.4823 98.6169 36.5823 101.084 33.5156" stroke="#3C3C3C" stroke-width="2.5" stroke-linecap="round" stroke-linejoin="round"/>
<path d="M76.1504 44.5339C77.1671 42.5505 77.8004 40.0339 77.7171 36.8339C77.4504 26.5839 84.1837 21.1172 84.1837 21.1172" stroke="#3C3C3C" stroke-width="2.5" stroke-linecap="round" stroke-linejoin="round"/>
<path d="M92.9833 18.9998C94.4333 18.0165 94.8166 16.0498 93.8499 14.5832C92.8833 13.1165 90.8999 12.7332 89.4333 13.7165C87.9666 14.6998 87.5999 16.6665 88.5666 18.1332C89.5499 19.5832 91.5166 19.9832 92.9833 18.9998Z" stroke="#561AA4" stroke-width="2.5" stroke-linecap="round" stroke-linejoin="round"/>
<path d="M106.932 31.0994C108.382 30.1161 108.766 28.1494 107.799 26.6828C106.832 25.2161 104.849 24.8328 103.382 25.8161C101.916 26.7994 101.549 28.7661 102.516 30.2328C103.499 31.6828 105.466 32.0661 106.932 31.0994Z" stroke="#561AA4" stroke-width="2.5" stroke-linecap="round" stroke-linejoin="round"/>
</g>
<defs>
<clipPath id="clip0_2077_69173">
<rect width="110" height="91.9167" fill="white"/>
</clipPath>
</defs>
</svg>
