<svg width="110" height="94" viewBox="0 0 110 94" fill="none" xmlns="http://www.w3.org/2000/svg">
<g clip-path="url(#clip0_2077_69207)">
<path d="M93.7132 65.7663C93.4741 65.3801 93.0505 65.1439 92.5952 65.1439H73.7591C78.1274 60.5683 81.6543 55.9611 84.2447 51.4172C87.812 45.1648 89.6216 39.0218 89.6216 33.1525C89.6216 14.8734 74.0905 0 55.0007 0C35.911 0 20.3799 14.8734 20.3799 33.1554C20.3799 39.0247 22.1895 45.1677 25.7567 51.4201C28.3414 55.9496 31.8568 60.551 36.2136 65.1122L16.0404 65.1468C15.5679 65.1468 15.1328 65.4003 14.8994 65.8123L0.172174 91.7183C-0.058343 92.1333 -0.058343 92.6404 0.177937 93.0553C0.411336 93.4644 0.843556 93.7237 1.31324 93.7324H108.685C109.429 93.7151 110.017 93.0985 109.999 92.3551C109.994 92.1189 109.927 91.8883 109.803 91.6866L93.7132 65.7663ZM23.0078 33.1554C23.0078 16.3227 37.3575 2.62777 55.0007 2.62777C72.644 2.62777 86.9937 16.3227 86.9937 33.1554C86.9937 45.4587 78.162 56.9724 70.7566 64.4639C65.9215 69.316 60.6484 73.7072 55.0007 77.5826C49.3531 73.7072 44.08 69.316 39.2449 64.4639C25.823 50.8928 23.0078 39.9467 23.0078 33.1554ZM16.8069 67.7745L32.92 67.7486L30.9376 75.338L12.5221 75.315L16.8069 67.7745ZM3.57519 91.1046L5.889 87.0074L53.7386 87.0304L53.7531 91.1046H3.57519ZM73.615 78.6141C73.2433 78.6112 72.8889 78.7668 72.6382 79.0405C72.3875 79.3258 72.2694 79.7032 72.3097 80.0807L73.4825 91.1046H56.3838L56.3665 85.6992C56.3665 84.9732 55.7787 84.3825 55.0526 84.3767L7.38737 84.3623L11.0324 77.9427L31.9548 77.96C32.5512 77.96 33.0756 77.5624 33.2284 76.9832L35.643 67.7428H38.8184C43.5844 72.3818 48.7652 76.577 54.2977 80.2708C54.7299 80.5474 55.2831 80.5474 55.7125 80.2708C61.2305 76.5856 66.3998 72.4048 71.1542 67.7745H91.8662L98.5973 78.6227L73.6179 78.617L73.615 78.6141ZM76.1248 91.1046L75.0788 81.2534L100.231 81.2793L106.323 91.1017H76.1248V91.1046Z" fill="#3C3C3C"/>
<path d="M38.5793 47.2795H42.1177C43.5441 47.2881 44.7082 46.1385 44.7197 44.7122C44.7197 44.7036 44.7197 44.6949 44.7197 44.6863L44.6995 42.0211H65.2934L65.3136 44.7382C65.3308 46.1587 66.4978 47.2968 67.9184 47.2795C67.9242 47.2795 67.927 47.2795 67.9328 47.2795H71.4885C72.9322 47.2737 74.0963 46.0981 74.0905 44.6546L74.0703 41.9087C74.8339 41.7445 75.3785 41.0702 75.3814 40.2923V37.1891C75.3555 36.5783 75.027 36.0193 74.5054 35.6966V29.4066C74.491 27.5222 73.1627 25.9058 71.3156 25.5255L68.8693 18.8667C68.2757 17.2446 66.7312 16.1669 65.0024 16.1641H45.0021C43.2732 16.1641 41.7316 17.2446 41.1352 18.8667L38.6888 25.5255C36.8447 25.9058 35.5134 27.5222 35.499 29.4066V35.6966C34.9775 36.0164 34.649 36.5754 34.623 37.1891V40.2894C34.623 41.0674 35.1648 41.7387 35.9226 41.9116L35.9428 44.7036C35.9572 46.1385 37.127 47.291 38.562 47.2795H38.5822H38.5793ZM67.9414 44.7439L67.9213 42.0211H71.4424L71.4684 44.7266L67.9414 44.7439ZM43.6075 19.7311C43.8265 19.1549 44.3855 18.7803 45.0021 18.7976H65.0024C65.619 18.7803 66.178 19.1549 66.397 19.7311L68.4601 25.3699H41.5443L43.6075 19.7311ZM38.1298 29.4095C38.15 28.646 38.7608 28.0294 39.5244 27.9977H70.4829C71.2465 28.0294 71.8545 28.646 71.8775 29.4095V35.4488H62.1353L60.6715 32.9824C60.4295 32.5905 59.9944 32.36 59.5333 32.3802H49.7911C49.3301 32.36 48.895 32.5905 48.6529 32.9824L47.1891 35.4488H38.1298V29.4095ZM59.0925 35.4488H50.232L50.5489 35.0108H58.7784L59.0953 35.4488H59.0925ZM37.2538 38.0794H72.7535V39.3933H37.2538V38.0794ZM42.0745 42.024L42.1005 44.7122L38.5735 44.7612L38.5534 42.0211H42.0745V42.024Z" fill="#561AA4"/>
<path d="M49.5776 31.7235H59.8299C60.556 31.7235 61.1438 31.1357 61.1438 30.4096C61.1438 29.6835 60.556 29.0957 59.8299 29.0957H49.5776C48.8515 29.0957 48.2637 29.6835 48.2637 30.4096C48.2637 31.1357 48.8515 31.7235 49.5776 31.7235Z" fill="#561AA4"/>
<path d="M63.655 35.0107H67.7726C69.5879 35.0107 71.0603 33.5384 71.0603 31.7231C71.0603 29.9079 69.5879 28.4355 67.7726 28.4355H64.3984C63.7616 28.4528 63.2256 28.911 63.1104 29.5391L62.364 33.4116C62.2891 33.8035 62.39 34.2068 62.6407 34.5151C62.8885 34.8234 63.2602 35.005 63.655 35.0107ZM65.4847 31.0662H67.7726C68.1356 31.0921 68.4094 31.4091 68.3806 31.7721C68.3575 32.0977 68.0982 32.357 67.7726 32.3801H65.2484L65.4847 31.0662Z" fill="#561AA4"/>
<path d="M46.3025 29.5391C46.1872 28.9138 45.6484 28.4528 45.0116 28.4355H41.6374C39.822 28.4355 38.3496 29.9079 38.3496 31.7231C38.3496 33.5384 39.822 35.0107 41.6374 35.0107H45.755C46.1497 35.0079 46.5214 34.8292 46.7693 34.5238C47.0199 34.2126 47.1208 33.8063 47.0459 33.4145L46.3025 29.5391ZM41.6374 32.3801C41.2743 32.3541 41.0006 32.0372 41.0294 31.6742C41.0524 31.3486 41.3118 31.0892 41.6374 31.0662H43.9252L44.1615 32.3801H41.6374Z" fill="#561AA4"/>
<path d="M55.0018 60.7638C69.7665 60.7638 81.7361 48.7948 81.7361 34.0308C81.7361 19.2669 69.7665 7.30078 55.0018 7.30078C40.2372 7.30078 28.2676 19.2698 28.2676 34.0337C28.2849 48.7919 40.243 60.7494 55.0018 60.7667V60.7638ZM55.0018 9.92855C68.3142 9.92855 79.1053 20.7191 79.1053 34.0308C79.1053 47.3426 68.3142 58.1331 55.0018 58.1331C41.6895 58.1331 30.8984 47.3426 30.8984 34.0308C30.9128 20.7249 41.6952 9.94296 55.0018 9.92855Z" fill="#3C3C3C"/>
<path d="M50.3499 72.249C50.9176 72.7014 51.7445 72.6063 52.1969 72.0358C52.6493 71.4682 52.5542 70.6413 51.9837 70.1889C51.9779 70.1831 51.9722 70.1802 51.9664 70.1745C48.6931 67.6187 43.8378 63.533 39.3139 58.5656C38.8298 58.0239 37.9999 57.975 37.4582 58.4561C36.9165 58.9373 36.8675 59.77 37.3487 60.3117C37.3545 60.3204 37.3631 60.3261 37.3689 60.3348C42.0167 65.4376 46.993 69.6299 50.347 72.2462L50.3499 72.249Z" fill="#3C3C3C"/>
<path d="M36.9928 55.8936C36.9928 55.8936 36.9813 55.8792 36.9726 55.8706C36.7162 55.5623 36.4597 55.2482 36.2061 54.9313C35.7653 54.355 34.9412 54.2426 34.3649 54.6835C33.7886 55.1243 33.6762 55.9484 34.1171 56.5246C34.1286 56.5419 34.143 56.5592 34.1574 56.5736C34.4196 56.9021 34.6847 57.2248 34.9527 57.5475C35.4109 58.1123 36.2378 58.1987 36.8026 57.7406C37.3674 57.2824 37.4538 56.4555 36.9957 55.8908L36.9928 55.8936Z" fill="#3C3C3C"/>
</g>
<defs>
<clipPath id="clip0_2077_69207">
<rect width="110" height="93.7324" fill="white"/>
</clipPath>
</defs>
</svg>
