<svg width="110" height="108" viewBox="0 0 110 108" fill="none" xmlns="http://www.w3.org/2000/svg">
<path d="M91.1442 34.8457V13.2001C91.1442 6.9249 86.065 1.8457 79.7898 1.8457H13.1992C19.4744 1.8457 24.5536 6.9249 24.5536 13.2001V94.1719C24.5536 100.447 29.6328 105.526 35.9079 105.526H102.499C96.2234 105.526 91.1442 100.447 91.1442 94.1719V82.8471" stroke="#3C3C3C" stroke-width="2.5" stroke-linecap="round" stroke-linejoin="round"/>
<path d="M13.2001 1.8457C6.9249 1.8457 1.8457 6.9249 1.8457 13.2001V20.0068H24.5544" stroke="#3C3C3C" stroke-width="2.5" stroke-linecap="round" stroke-linejoin="round"/>
<path d="M78.2701 17.4668H38.0352" stroke="#3C3C3C" stroke-width="2.5" stroke-linecap="round" stroke-linejoin="round"/>
<path d="M78.2701 25.543H38.0352" stroke="#3C3C3C" stroke-width="2.5" stroke-linecap="round" stroke-linejoin="round"/>
<path d="M78.2701 33.6055H38.0352" stroke="#3C3C3C" stroke-width="2.5" stroke-linecap="round" stroke-linejoin="round"/>
<path d="M69.2043 41.668H38.0352" stroke="#3C3C3C" stroke-width="2.5" stroke-linecap="round" stroke-linejoin="round"/>
<path d="M94.6742 75.6708C85.3279 77.8265 76.0111 71.9795 73.8554 62.6332C71.6997 53.2869 77.5467 43.9701 86.893 41.8144C96.2393 39.6587 105.556 45.5057 107.712 54.852C109.867 64.1983 104.021 73.5151 94.6742 75.6708Z" stroke="#561AA4" stroke-width="2.5" stroke-linecap="round" stroke-linejoin="round"/>
<path d="M51.058 49.7441H38.0352" stroke="#3C3C3C" stroke-width="2.5" stroke-linecap="round" stroke-linejoin="round"/>
<path d="M37.7246 69.5586V90.0378H68.2884" stroke="#3C3C3C" stroke-width="2.5" stroke-linecap="round" stroke-linejoin="round"/>
<path d="M50.7188 76.7188V84.7067" stroke="#3C3C3C" stroke-width="2.5" stroke-linecap="round" stroke-linejoin="round"/>
<path d="M56.9941 78.7578V84.7081" stroke="#3C3C3C" stroke-width="2.5" stroke-linecap="round" stroke-linejoin="round"/>
<path d="M63.2383 72.7773V84.7075" stroke="#3C3C3C" stroke-width="2.5" stroke-linecap="round" stroke-linejoin="round"/>
<path d="M44.4434 81.1797V84.7085" stroke="#3C3C3C" stroke-width="2.5" stroke-linecap="round" stroke-linejoin="round"/>
<path d="M90.791 41.3867V58.3371L102.839 46.274" stroke="#561AA4" stroke-width="2.5" stroke-linecap="round" stroke-linejoin="round"/>
<path d="M90.791 58.3359L102.987 71.1078" stroke="#561AA4" stroke-width="2.5" stroke-linecap="round" stroke-linejoin="round"/>
</svg>
