<svg width="38" height="29" viewBox="0 0 38 29" fill="none" xmlns="http://www.w3.org/2000/svg">
<g clip-path="url(#clip0_343_9511)">
<path opacity="0.5" d="M20.2029 5.23547L18.9431 7.77155L17.6833 10.3076L16.4268 12.8404L15.167 15.3765L12.6474 20.4453L11.3876 22.9814H17.6833L18.9431 20.4453L20.2029 17.9092L21.4627 15.3765L22.7226 12.8404L25.2389 7.77155L26.4987 5.23547H20.2029Z" fill="url(#paint0_linear_343_9511)"/>
<path d="M27.7584 0.166626H22.7225L21.7166 2.19483L20.2062 5.23547H27.7617C30.5419 5.23547 32.7977 7.50599 32.7977 10.3043C32.7977 13.1026 30.5419 15.3731 27.7617 15.3731H15.167L12.6473 20.442H27.7584C33.3221 20.442 37.8336 15.9009 37.8336 10.301C37.8336 4.70103 33.3221 0.166626 27.7584 0.166626Z" fill="url(#paint1_radial_343_9511)"/>
<path d="M18.9428 7.77148H10.1307C4.56711 7.77148 0.055542 12.3092 0.055542 17.9092C0.055542 23.0942 3.92071 27.3664 8.90718 27.9705C9.30623 28.0203 9.71518 28.0468 10.1274 28.0468H15.1634L16.1692 26.0186L17.6797 22.978H10.1307C7.35056 22.978 5.09478 20.7075 5.09478 17.9092C5.09478 15.1108 7.35056 12.8403 10.1307 12.8403H22.7222L25.2418 7.77148H18.9461H18.9428Z" fill="url(#paint2_radial_343_9511)"/>
</g>
<defs>
<linearGradient id="paint0_linear_343_9511" x1="11.3876" y1="14.1084" x2="26.4987" y2="14.1084" gradientUnits="userSpaceOnUse">
<stop stop-color="#9A9CFE"/>
<stop offset="1" stop-color="#0868FD"/>
</linearGradient>
<radialGradient id="paint1_radial_343_9511" cx="0" cy="0" r="1" gradientUnits="userSpaceOnUse" gradientTransform="translate(23.9922 10.9782) scale(12.0902 12.1692)">
<stop stop-color="#85ECC7"/>
<stop offset="0.04" stop-color="#7DECC8"/>
<stop offset="0.35" stop-color="#45ECD5"/>
<stop offset="0.5" stop-color="#30ECDB"/>
<stop offset="1" stop-color="#85ECC7"/>
</radialGradient>
<radialGradient id="paint2_radial_343_9511" cx="0" cy="0" r="1" gradientUnits="userSpaceOnUse" gradientTransform="translate(12.647 17.9092) scale(11.4042 11.4787)">
<stop stop-color="#9A9CFE"/>
<stop offset="0.5" stop-color="#0868FD"/>
<stop offset="1" stop-color="#9A9CFE"/>
</radialGradient>
<clipPath id="clip0_343_9511">
<rect width="37.7778" height="27.8836" fill="white" transform="translate(0.055542 0.166626)"/>
</clipPath>
</defs>
</svg>
