<svg width="34" height="39" viewBox="0 0 34 39" fill="none" xmlns="http://www.w3.org/2000/svg">
<path fill-rule="evenodd" clip-rule="evenodd" d="M29.1033 14.2023C27.4664 12.6559 26.0402 11.1609 23.0298 11.0052C20.6 10.9024 19.4912 12.346 17.2195 12.3974C15.1072 12.4488 15.2652 10.7996 10.8812 11.2637C7.0779 11.6749 3.75003 15.3874 4.01479 20.595C4.27956 26.2151 8.29349 34 12.0426 34C14.683 33.9486 15.3179 32.7106 17.4828 32.7106C20.1758 32.7106 20.8107 34.257 22.923 33.9472C26.5668 33.4317 30 27.8115 30 26.0081C27.993 24.9772 25.9861 23.2237 25.7213 20.2851C25.5107 17.3465 27.3582 15.4902 29.1018 14.2009L29.1033 14.2023Z" fill="white"/>
<path fill-rule="evenodd" clip-rule="evenodd" d="M16.0337 11.9926C15.7388 9.99509 17.3273 5.64877 22.9175 5C23.5643 8.3462 20.3285 12.1918 16.0337 11.9926Z" fill="white"/>
</svg>
