<svg width="20" height="20" viewBox="0 0 20 20" fill="none" xmlns="http://www.w3.org/2000/svg">
<path fill-rule="evenodd" clip-rule="evenodd" d="M18.2114 6.3464C17.0891 5.27992 16.1112 4.24888 14.0472 4.14154C12.3814 4.07064 11.6211 5.06623 10.0636 5.10168C8.61535 5.13713 8.72367 3.99974 5.71789 4.31978C3.11028 4.60339 0.828613 7.16375 1.01014 10.7551C1.19167 14.6311 3.94371 20 6.51422 20C8.3245 19.9645 8.75978 19.1108 10.2441 19.1108C12.0905 19.1108 12.5258 20.1773 13.974 19.9636C16.4723 19.6081 18.8262 15.7321 18.8262 14.4883C17.4502 13.7773 16.0741 12.5681 15.8926 10.5415C15.7482 8.51483 17.0149 7.23465 18.2104 6.34542L18.2114 6.3464Z" fill="black"/>
<path fill-rule="evenodd" clip-rule="evenodd" d="M9.25054 4.82246C9.04834 3.44489 10.1375 0.447425 13.9702 0C14.4137 2.30772 12.1952 4.95984 9.25054 4.82246Z" fill="black"/>
</svg>
