<svg width="140" height="40" viewBox="0 0 140 40" fill="none" xmlns="http://www.w3.org/2000/svg">
<g clip-path="url(#clip0_424_5047)">
<path opacity="0.5" d="M28.7947 7.19873L26.9938 10.7957L25.193 14.3974L23.3921 17.9943L21.596 21.5961L17.9943 28.7948L16.1982 32.3917H25.193L26.9938 28.7948L28.7947 25.193L30.5908 21.5961L32.3916 17.9943L35.9934 10.7957L37.7894 7.19873H28.7947Z" fill="url(#paint0_linear_424_5047)"/>
<path d="M39.5902 0H32.3915L30.9528 2.87754L28.7946 7.19868H39.5902C43.5637 7.19868 46.7889 10.4238 46.7889 14.3974C46.7889 18.3709 43.5637 21.596 39.5902 21.596H21.5959L17.999 28.7947H39.5951C47.5469 28.7947 53.9924 22.3492 53.9924 14.3974C53.9924 6.44549 47.5421 0 39.5902 0Z" fill="url(#paint1_radial_424_5047)"/>
<path d="M26.9938 10.7954H14.3974C6.44549 10.7954 0 17.2409 0 25.1928C0 32.5508 5.52333 38.6197 12.6496 39.4791C13.2241 39.5467 13.8035 39.5901 14.3925 39.5901H21.5912L23.03 36.7126L25.1881 32.3914H14.3974C10.4238 32.3914 7.19868 29.1663 7.19868 25.1928C7.19868 21.2192 10.4238 17.9941 14.3974 17.9941H32.3916L35.9886 10.7954H26.989H26.9938Z" fill="url(#paint2_radial_424_5047)"/>
<path d="M63.4551 21.0505H61.2197V8.18848H63.4551V21.0505Z" fill="white"/>
<path d="M71.6678 21.2241C68.0854 21.2241 65.7969 18.6555 65.7969 14.6193C65.7969 10.583 68.0854 7.99512 71.6678 7.99512C73.3625 7.99512 74.9702 8.58897 75.8248 9.51596L75.0909 11.283C74.1302 10.4092 72.87 9.92152 71.6678 9.92152C69.4469 9.92152 68.1723 11.6355 68.1723 14.6241C68.1723 17.6127 69.4469 19.3266 71.6678 19.3266C72.8749 19.3266 74.1302 18.839 75.0909 17.9651L75.8248 19.7129C74.9702 20.6592 73.3625 21.2337 71.6678 21.2337V21.2241Z" fill="white"/>
<path d="M81.5704 8.18848H83.5113L88.7884 21.0505H86.4806L85.2929 17.9943H79.8034L78.6157 21.0505H76.3271L81.5704 8.18848ZM84.6266 16.2948L82.5457 10.9646L80.4648 16.2948H84.6218H84.6266Z" fill="white"/>
<path d="M90.1836 8.18848H95.2676C98.0292 8.18848 99.7046 9.74312 99.7046 12.1572C99.7046 13.7987 98.8838 15.025 97.4692 15.6189L100.405 21.0553H98.0292L95.3207 16.0245H92.419V21.0553H90.1836V8.18848ZM95.2676 14.3201C96.7015 14.3201 97.5416 13.5525 97.5416 12.1523C97.5416 10.7522 96.687 10.0907 95.2676 10.0907H92.419V14.3201H95.2676Z" fill="white"/>
<path d="M107.361 19.3216C109.215 19.3216 110.297 18.0808 110.297 15.8985V8.19287H112.518V15.8985C112.518 19.1816 110.524 21.2287 107.361 21.2287C104.199 21.2287 102.19 19.1816 102.19 15.8985V8.19287H104.426V15.8985C104.426 18.0808 105.493 19.3216 107.361 19.3216Z" fill="white"/>
<path d="M119.451 19.3219C121.078 19.3219 122.039 18.6218 122.039 17.4534C122.039 16.7002 121.358 16.1257 120.151 15.8456C119.943 15.8118 119.398 15.6863 118.611 15.5125C116.25 14.9862 114.922 13.7116 114.922 11.9832C114.922 9.60775 116.878 8 119.726 8C121.421 8 123.029 8.56006 123.903 9.44843L123.236 11.1093C122.169 10.3416 120.895 9.90227 119.726 9.90227C118.138 9.90227 117.177 10.6699 117.177 11.9832C117.177 12.7846 117.858 13.3833 119.031 13.644L120.571 13.9917C122.947 14.5324 124.294 15.7732 124.294 17.4534C124.294 19.6888 122.338 21.229 119.451 21.229C117.544 21.229 115.709 20.6689 114.7 19.7805L115.381 17.999C116.622 18.8391 118.123 19.3267 119.451 19.3267V19.3219Z" fill="white"/>
<path d="M64.0587 26.1874C64.0587 26.7378 63.7449 27.2013 63.2524 27.4138C63.8318 27.602 64.1939 28.1042 64.1939 28.7173C64.1939 29.596 63.5324 30.1368 62.4751 30.1368H60.5342V24.8018H62.4171C63.4262 24.8018 64.0539 25.3232 64.0539 26.1874H64.0587ZM62.3688 27.2737C63.2041 27.2737 63.6676 26.8875 63.6676 26.2019C63.6676 25.5163 63.2041 25.1301 62.3688 25.1301H60.9204V27.2737H62.3688ZM62.4654 29.8085C63.3296 29.8085 63.8076 29.4078 63.8076 28.7077C63.8076 28.0076 63.3296 27.5972 62.4654 27.5972H60.9204V29.8085H62.4654Z" fill="white"/>
<path d="M65.1309 28.1377C65.1309 26.8486 65.8358 26.0713 66.9945 26.0713C68.047 26.0713 68.6312 26.7665 68.6312 28.0363V28.1763H65.5123C65.5219 29.2578 66.1013 29.871 67.0862 29.871C67.6077 29.871 68.0422 29.6972 68.4043 29.3399L68.5733 29.6103C68.2546 29.982 67.6946 30.1993 67.0669 30.1993C65.8502 30.1993 65.1309 29.4365 65.1309 28.1425V28.1377ZM68.2788 27.8818C68.2401 26.8728 67.8201 26.3899 66.9897 26.3899C66.1592 26.3899 65.6137 26.9355 65.5268 27.8818H68.2836H68.2788Z" fill="white"/>
<path d="M73.0054 26.1343L71.2431 30.2671C70.91 31.0638 70.6638 31.5224 69.8961 31.5707L69.5485 31.59L69.5195 31.2714L69.8623 31.2424C70.4223 31.2038 70.5962 30.8658 70.8424 30.2864L70.8907 30.1706L69.1719 26.1343H69.5726L71.0886 29.7071L72.6046 26.1343H73.0102H73.0054Z" fill="white"/>
<path d="M73.541 28.1281C73.541 26.839 74.2169 26.0713 75.3467 26.0713C76.4765 26.0713 77.1524 26.839 77.1524 28.1281C77.1524 29.4172 76.4861 30.1945 75.3467 30.1945C74.2073 30.1945 73.541 29.4268 73.541 28.1281ZM75.3467 29.8662C76.2303 29.8662 76.7613 29.2192 76.7613 28.1281C76.7613 27.0369 76.2303 26.4044 75.3467 26.4044C74.4632 26.4044 73.9417 27.0417 73.9417 28.1281C73.9417 29.2144 74.4632 29.8662 75.3467 29.8662Z" fill="white"/>
<path d="M78.2627 26.134H78.6489V26.8292C78.9193 26.3513 79.4118 26.0664 80.0346 26.0664C80.9906 26.0664 81.4541 26.5685 81.4541 27.5969V30.1317H81.0775V27.621C81.0775 26.7713 80.7492 26.3947 80.0201 26.3947C79.1945 26.3947 78.6489 26.9548 78.6489 27.7997V30.1268H78.2627V26.1243V26.134Z" fill="white"/>
<path d="M82.5742 28.138C82.5742 26.8489 83.2357 26.0716 84.3365 26.0716C84.9979 26.0716 85.5194 26.3854 85.7656 26.9069V24.8066H86.1422V30.1417H85.7656V29.3644C85.5097 29.8954 84.9979 30.1996 84.3365 30.1996C83.2357 30.1996 82.5742 29.4319 82.5742 28.1428V28.138ZM84.3654 29.8713C85.2442 29.8713 85.7656 29.234 85.7656 28.138C85.7656 27.042 85.2442 26.4047 84.3654 26.4047C83.4867 26.4047 82.9653 27.042 82.9653 28.138C82.9653 29.234 83.4819 29.8713 84.3654 29.8713Z" fill="white"/>
<path d="M89.0058 28.9827C89.0058 28.1716 89.5128 27.8819 91.3088 27.8819H91.6564V27.4473C91.6564 26.7135 91.3571 26.4045 90.6763 26.4045C90.1549 26.4045 89.7397 26.5348 89.3148 26.839L89.1555 26.5252C89.5466 26.2452 90.1211 26.0762 90.6618 26.0762C91.584 26.0762 92.033 26.5252 92.033 27.4473V30.1366H91.6564V29.4703C91.4247 29.9145 90.966 30.1945 90.3722 30.1945C89.5803 30.1945 89.001 29.6924 89.001 28.9827H89.0058ZM90.4204 29.8807C91.1446 29.8807 91.6613 29.3206 91.6613 28.5385V28.1667H91.3185C89.759 28.1667 89.3921 28.3695 89.3921 28.973C89.3921 29.5234 89.8073 29.8807 90.4204 29.8807Z" fill="white"/>
<path d="M93.1475 28.138C93.1475 26.8489 93.8089 26.0716 94.9097 26.0716C95.5712 26.0716 96.0926 26.3854 96.3388 26.9069V24.8066H96.7154V30.1417H96.3388V29.3644C96.0829 29.8954 95.5712 30.1996 94.9097 30.1996C93.8089 30.1996 93.1475 29.4319 93.1475 28.1428V28.138ZM94.9387 29.8713C95.8174 29.8713 96.3388 29.234 96.3388 28.138C96.3388 27.042 95.8174 26.4047 94.9387 26.4047C94.06 26.4047 93.5385 27.042 93.5385 28.138C93.5385 29.234 94.0551 29.8713 94.9387 29.8713Z" fill="white"/>
<path d="M97.5654 26.1343H98L99.487 29.7312L100.964 26.1343H101.394L99.6994 30.1368H99.2697L97.5654 26.1343Z" fill="white"/>
<path d="M101.935 28.1377C101.935 26.8486 102.639 26.0713 103.798 26.0713C104.851 26.0713 105.435 26.7665 105.435 28.0363V28.1763H102.316C102.326 29.2578 102.905 29.871 103.89 29.871C104.411 29.871 104.846 29.6972 105.208 29.3399L105.377 29.6103C105.058 29.982 104.498 30.1993 103.871 30.1993C102.654 30.1993 101.935 29.4365 101.935 28.1425V28.1377ZM105.082 27.8818C105.044 26.8728 104.624 26.3899 103.793 26.3899C102.963 26.3899 102.417 26.9355 102.33 27.8818H105.087H105.082Z" fill="white"/>
<path d="M106.546 26.1342H106.922V26.8246C107.169 26.3322 107.613 26.1149 108.279 26.057L108.477 26.0425V26.3853L108.26 26.4046C107.396 26.4915 106.932 26.9502 106.932 27.6792V30.1367H106.546V26.1342Z" fill="white"/>
<path d="M109.645 28.8911V26.4625H108.849V26.1342H109.645V25.0962H110.022V26.1342H111.325V26.4625H110.022V28.8186C110.022 29.5091 110.307 29.8615 110.93 29.8615C111.132 29.8615 111.316 29.8036 111.451 29.7505L111.538 30.0643C111.427 30.1319 111.137 30.1947 110.891 30.1947C110.085 30.1947 109.645 29.7312 109.645 28.8911Z" fill="white"/>
<path d="M112.137 24.5698H112.523V25.1782H112.137V24.5698ZM112.137 26.1341H112.523V30.1366H112.137V26.1341Z" fill="white"/>
<path d="M113.672 29.6778L113.846 29.4026C114.208 29.7212 114.666 29.8805 115.193 29.8805C115.873 29.8805 116.274 29.5909 116.274 29.0887C116.274 28.7315 116.018 28.4997 115.507 28.3983L114.811 28.2535C114.145 28.1135 113.797 27.7514 113.797 27.2154C113.797 26.5202 114.372 26.0615 115.231 26.0615C115.811 26.0615 116.313 26.2643 116.578 26.5974L116.405 26.8678C116.091 26.5395 115.7 26.3802 115.231 26.3802C114.584 26.3802 114.174 26.6988 114.174 27.201C114.174 27.5582 114.401 27.8093 114.884 27.9107L115.579 28.0507C116.298 28.2052 116.651 28.5432 116.651 29.0887C116.651 29.7647 116.071 30.1895 115.178 30.1895C114.541 30.1895 113.981 30.0012 113.672 29.6729V29.6778Z" fill="white"/>
<path d="M117.534 28.1377C117.534 26.8486 118.239 26.0713 119.398 26.0713C120.45 26.0713 121.035 26.7665 121.035 28.0363V28.1763H117.916C117.925 29.2578 118.505 29.871 119.49 29.871C120.011 29.871 120.446 29.6972 120.808 29.3399L120.977 29.6103C120.658 29.982 120.098 30.1993 119.47 30.1993C118.254 30.1993 117.534 29.4365 117.534 28.1425V28.1377ZM120.682 27.8818C120.643 26.8728 120.223 26.3899 119.393 26.3899C118.563 26.3899 118.017 26.9355 117.93 27.8818H120.687H120.682Z" fill="white"/>
<path d="M122.146 26.1341H122.532V26.839C122.778 26.3513 123.227 26.0713 123.777 26.0713C124.439 26.0713 124.844 26.3368 125.009 26.8969C125.235 26.3755 125.718 26.0713 126.351 26.0713C127.249 26.0713 127.678 26.5638 127.678 27.6018V30.1365H127.292V27.6259C127.292 26.7714 127.003 26.3996 126.336 26.3996C125.583 26.3996 125.105 26.95 125.105 27.8046V30.1317H124.719V27.6211C124.719 26.7665 124.429 26.3948 123.763 26.3948C123.01 26.3948 122.532 26.9452 122.532 27.7997V30.1269H122.146V26.1244V26.1341Z" fill="white"/>
<path d="M128.789 28.1377C128.789 26.8486 129.494 26.0713 130.653 26.0713C131.705 26.0713 132.289 26.7665 132.289 28.0363V28.1763H129.17C129.18 29.2578 129.76 29.871 130.744 29.871C131.266 29.871 131.7 29.6972 132.063 29.3399L132.231 29.6103C131.913 29.982 131.353 30.1993 130.725 30.1993C129.508 30.1993 128.789 29.4365 128.789 28.1425V28.1377ZM131.937 27.8818C131.898 26.8728 131.478 26.3899 130.648 26.3899C129.817 26.3899 129.272 26.9355 129.185 27.8818H131.942H131.937Z" fill="white"/>
<path d="M133.399 26.134H133.786V26.8292C134.056 26.3513 134.549 26.0664 135.171 26.0664C136.127 26.0664 136.591 26.5685 136.591 27.5969V30.1317H136.214V27.621C136.214 26.7713 135.886 26.3947 135.157 26.3947C134.331 26.3947 133.786 26.9548 133.786 27.7997V30.1268H133.399V26.1243V26.134Z" fill="white"/>
<path d="M138.107 28.8911V26.4625H137.311V26.1342H138.107V25.0962H138.484V26.1342H139.787V26.4625H138.484V28.8186C138.484 29.5091 138.769 29.8615 139.391 29.8615C139.594 29.8615 139.778 29.8036 139.913 29.7505L140 30.0643C139.889 30.1319 139.599 30.1947 139.353 30.1947C138.547 30.1947 138.107 29.7312 138.107 28.8911Z" fill="white"/>
</g>
<defs>
<linearGradient id="paint0_linear_424_5047" x1="16.1982" y1="19.7952" x2="37.7894" y2="19.7952" gradientUnits="userSpaceOnUse">
<stop stop-color="#9A9CFE"/>
<stop offset="1" stop-color="#0868FD"/>
</linearGradient>
<radialGradient id="paint1_radial_424_5047" cx="0" cy="0" r="1" gradientUnits="userSpaceOnUse" gradientTransform="translate(34.2069 15.3485) scale(17.2797 17.2797)">
<stop stop-color="#85ECC7"/>
<stop offset="0.04" stop-color="#7DECC8"/>
<stop offset="0.35" stop-color="#45ECD5"/>
<stop offset="0.5" stop-color="#30ECDB"/>
<stop offset="1" stop-color="#85ECC7"/>
</radialGradient>
<radialGradient id="paint2_radial_424_5047" cx="0" cy="0" r="1" gradientUnits="userSpaceOnUse" gradientTransform="translate(17.9943 25.1928) scale(16.2948)">
<stop stop-color="#9A9CFE"/>
<stop offset="0.5" stop-color="#0868FD"/>
<stop offset="1" stop-color="#9A9CFE"/>
</radialGradient>
<clipPath id="clip0_424_5047">
<rect width="140" height="39.5903" fill="white"/>
</clipPath>
</defs>
</svg>
