<svg width="84" height="28" viewBox="0 0 84 28" fill="none" xmlns="http://www.w3.org/2000/svg">
    <path d="M0 7.50195H4.62435L10.565 19.4067H10.7834L16.6804 7.50195H21.3058V27.207H16.3801V18.1207H16.1617L11.8096 27.207H8.90814L4.54257 18.1207H4.32412V27.207H0V7.50195Z" fill="#561AA4"/>
    <path d="M24.1836 17.012C24.1836 10.7319 28.0148 7.48438 33.9543 7.48438C39.8793 7.48438 43.6982 10.7319 43.6982 17.012C43.6982 23.2932 39.8793 27.2073 33.9543 27.2073C28.0148 27.2073 24.1836 23.2943 24.1836 17.012ZM38.5238 17.012C38.5238 13.3589 36.746 11.6449 33.9532 11.6449C31.1627 11.6449 29.3557 13.3589 29.3557 17.012C29.3557 20.6662 31.1627 23.0467 33.9532 23.0467C36.746 23.0467 38.5238 20.6662 38.5238 17.012Z" fill="#561AA4"/>
    <path d="M51.5997 7.48438H56.718L63.929 27.1894H58.5664L57.1706 23.1666H50.2061L48.7677 27.1894H44.3887L51.5997 7.48438ZM55.8835 19.4721L53.8323 13.6703H53.6116L51.5313 19.4721H55.8835Z" fill="#561AA4"/>
    <path d="M66.4297 7.48438H74.7766C80.6735 7.48438 83.9995 10.9605 83.9995 17.1453C83.9995 23.6181 80.715 27.1894 74.7766 27.1894H66.4297V7.48438ZM73.8726 23.1252C77.1302 23.1252 78.8274 21.0998 78.8274 17.2137C78.8274 13.5325 76.9947 11.5486 73.8726 11.5486H71.5469V23.1252H73.8726Z" fill="#561AA4"/>
    <path d="M48.169 2.4162C47.9595 1.9457 47.6145 1.53345 47.163 1.24219C46.7788 0.994613 46.3195 0.833297 45.7997 0.79969C45.728 0.795209 45.6552 0.792969 45.5813 0.792969C45.5084 0.792969 45.4356 0.795209 45.3628 0.79969C44.843 0.832177 44.3837 0.993493 43.9995 1.24219C43.548 1.53345 43.203 1.94682 42.9935 2.4162C42.6362 3.21717 42.6877 4.17945 43.0663 4.92329C43.4438 5.66489 43.6085 5.83181 44.0521 6.3516C44.4958 6.87139 45.0122 7.4808 45.0122 7.4808C45.169 7.70149 45.3751 7.81127 45.5813 7.81239C45.7874 7.81239 45.9935 7.70149 46.1503 7.4808C46.1503 7.4808 46.6668 6.87027 47.1104 6.3516C47.554 5.83181 47.7187 5.66489 48.0962 4.92329C48.4748 4.17945 48.5264 3.21717 48.169 2.4162Z" fill="#561AA4"/>
    <path d="M45.5818 4.94484C46.3335 4.94484 46.9429 4.33546 46.9429 3.58375C46.9429 2.83204 46.3335 2.22266 45.5818 2.22266C44.8301 2.22266 44.2207 2.83204 44.2207 3.58375C44.2207 4.33546 44.8301 4.94484 45.5818 4.94484Z" fill="white"/>
</svg>
