<svg width="265" height="254" viewBox="0 0 265 254" fill="none" xmlns="http://www.w3.org/2000/svg">
<g clip-path="url(#clip0_2066_68170)">
<path d="M35.9805 162.093L119.648 219.549L263.37 134.372L265 125.468L179.571 76.5039L35.9805 162.093Z" fill="#22272A"/>
<path d="M119.648 219.551L265.001 135.109V125.469L116.793 211.82C118.92 216.129 118.933 216.156 119.642 219.551H119.648Z" fill="#3A3A3A"/>
<path d="M3.82263 181.865C1.272 183.337 0 185.267 0 187.196V212.729C0 214.658 1.272 216.587 3.82263 218.059L55.5506 248.12C57.7501 249.393 60.5459 250.116 63.4211 250.288V229.052L3.82263 181.865Z" fill="#EF4300"/>
<path d="M91.3251 207.172C82.2091 212.436 74.8223 225.245 74.8223 235.774C74.8223 240.893 76.5646 244.526 79.4068 246.309C79.6254 246.449 90.8813 252.933 90.8813 252.933C90.8813 252.933 84.2231 246.223 88.5691 243.717C97.6851 238.453 105.072 225.643 105.072 215.108C105.072 209.996 113.85 212.277 113.85 212.277C113.85 212.277 102.899 205.945 102.714 205.846C99.7521 204.294 95.744 204.606 91.3318 207.158L91.3251 207.172Z" fill="#0C0C0C"/>
<path d="M102.17 213.451C93.0607 218.715 85.6738 231.518 85.6738 242.053C85.6738 252.589 93.0607 256.852 102.17 251.588C111.286 246.323 118.673 233.52 118.673 222.985C118.673 212.45 111.286 208.187 102.17 213.451Z" fill="#161B1E"/>
<path d="M102.17 221.088C96.7114 224.244 92.2793 231.922 92.2793 238.234C92.2793 244.545 96.7114 247.105 102.17 243.949C107.636 240.793 112.062 233.115 112.062 226.81C112.062 220.504 107.636 217.939 102.17 221.095V221.088Z" fill="#7D7D7E"/>
<path d="M108.669 220.152C109.894 221.346 110.63 223.275 110.63 225.828C110.63 232.14 106.197 239.817 100.738 242.973C98.2938 244.386 96.0612 244.644 94.332 243.941C96.134 245.698 99.0093 245.857 102.262 243.981C107.721 240.825 112.147 233.147 112.147 226.836C112.147 223.348 110.795 221.014 108.669 220.152Z" fill="#464646"/>
<path d="M55.2383 76.1672L129.73 119.21L261.561 43.043L187.069 0L55.2383 76.1672Z" fill="#BDD7E1"/>
<path d="M55.2383 159.264L129.73 202.3V119.211L55.2383 76.168V159.264Z" fill="#4890AC"/>
<path d="M129.73 202.299L261.561 126.132V43.043L129.73 119.21V202.299Z" fill="#76ACC1"/>
<path d="M139.264 190.034L252.028 124.873V56.377L139.264 121.538V190.034Z" fill="white"/>
<path d="M137.66 192.806L253.624 125.801V53.6055L137.66 120.61V192.806ZM140.86 122.46L250.424 59.1549V123.951L140.86 187.256V122.46Z" fill="#FF4400"/>
<path d="M0 173.459V192.375L63.5801 229.119L63.4079 209.938L0 173.459Z" fill="#FE6310"/>
<path d="M0 173.459L63.4079 209.938L81.2026 163.732L17.7881 126.166L0 173.459Z" fill="#FE772F"/>
<path d="M70.5624 190.034L63.4141 209.931V231.486C67.1903 231.711 71.1057 230.988 74.0008 229.318L84.6406 223.171C87.6616 217.47 92.0738 212.053 97.0028 209.208C105.569 204.156 110.531 206.046 111.147 206.397L118.667 203.115V144.498L80.2217 163.149L70.5624 190.034Z" fill="#FE8534"/>
<path d="M6.99023 172.617L60.0631 203.282L73.4588 165.51L20.492 133.957L6.99023 172.617Z" fill="#85CDF3"/>
<path d="M72.9277 205.967L110.498 185.678V154.895L88.0394 167.054L72.9277 205.967Z" fill="#85CDF3"/>
<path d="M17.7949 126.17L81.2028 163.73L118.667 144.496L52.3642 103.25L17.7949 126.17Z" fill="#FEA35A"/>
<path d="M63.4141 229.057V250.294C67.1903 250.519 71.1057 249.797 74.0008 248.126L81.4142 243.843C80.8312 242.225 80.4999 240.335 80.4999 238.161C80.4999 227.632 88.4433 214.504 97.5593 209.24C101.972 206.694 106.072 205.242 110.756 207.49C118.594 211.481 119.322 218.045 119.322 218.045L118.673 196.391L63.4207 229.057H63.4141Z" fill="#FE5901"/>
<path d="M234.804 130.634C226.913 135.195 220.514 146.287 220.514 155.404C220.514 159.833 222.024 162.982 224.482 164.534C224.674 164.653 234.426 170.269 234.426 170.269C234.426 170.269 228.662 164.461 232.419 162.286C240.309 157.724 246.709 146.639 246.709 137.522C246.709 133.093 254.308 135.069 254.308 135.069C254.308 135.069 244.827 129.579 244.668 129.5C242.105 128.154 238.633 128.426 234.81 130.634H234.804Z" fill="#0C0C0C"/>
<path d="M244.198 136.064C236.308 140.626 229.908 151.711 229.908 160.834C229.908 169.958 236.308 173.651 244.198 169.089C252.089 164.527 258.488 153.442 258.488 144.319C258.488 135.196 252.089 131.503 244.198 136.064Z" fill="#161B1E"/>
<path d="M244.199 142.679C239.469 145.411 235.633 152.061 235.633 157.524C235.633 162.987 239.469 165.208 244.199 162.47C248.929 159.739 252.765 153.089 252.765 147.625C252.765 142.162 248.929 139.941 244.199 142.673V142.679Z" fill="#7D7D7E"/>
<path d="M249.83 141.872C250.89 142.906 251.526 144.577 251.526 146.785C251.526 152.248 247.69 158.898 242.96 161.63C240.84 162.856 238.905 163.082 237.408 162.465C238.972 163.99 241.463 164.129 244.278 162.498C249.009 159.767 252.844 153.117 252.844 147.653C252.844 144.637 251.672 142.614 249.83 141.865V141.872Z" fill="#464646"/>
<path d="M14.8732 216.541L43.1752 232.891L44.2749 225.379L13.7734 207.756L14.8732 216.541Z" fill="#5A5A5A"/>
<path d="M13.5025 210.175L13.5952 210.898L14.3306 216.759L43.5733 233.653L44.3087 228.64L44.5008 227.321L44.8453 224.967L13.0586 206.602L13.5025 210.169V210.175ZM37.9156 222.242L42.2483 224.742V226.028L37.9156 223.522V222.242ZM37.9156 224.954L42.2483 227.46V228.852L37.9156 226.353V224.96V224.954ZM37.9156 227.772L42.2483 230.271V231.624L37.9156 229.124V227.772ZM32.3506 219.026L36.6833 221.526V222.806L32.3506 220.306V219.02V219.026ZM32.3506 221.738L36.6833 224.238V225.623L32.3506 223.124V221.732V221.738ZM32.3506 224.556L36.6833 227.056V228.408L32.3506 225.902V224.556ZM26.7856 215.811L31.1183 218.31V219.597L26.7856 217.09V215.804V215.811ZM26.7856 218.523L31.1183 221.022V222.414L26.7856 219.915V218.523ZM26.7856 221.34L31.1183 223.84V225.193L26.7856 222.693V221.34ZM21.2206 212.595L25.5533 215.095V216.381L21.2206 213.881V212.595ZM21.2206 215.307L25.5533 217.807V219.199L21.2206 216.699V215.314V215.307ZM21.2206 218.125L25.5533 220.624V221.977L21.2206 219.477V218.131V218.125ZM15.6556 209.38L19.9883 211.886V213.165L15.6556 210.666V209.38ZM15.6556 212.091L19.9883 214.598V215.983L15.6556 213.484V212.091ZM15.6556 214.909L19.9883 217.415V218.768L15.6556 216.268V214.916V214.909Z" fill="#7C7C7C"/>
<path d="M2.65039 200.596V210.017L14.3236 216.767L13.0516 206.609L2.65039 200.596Z" fill="#FFDD00"/>
<path d="M43.5664 233.66L55.2397 240.41V230.988L44.8384 224.975L43.5664 233.66Z" fill="#FFDD00"/>
<path d="M176.517 116.304L167.48 155.688L174.41 151.683L176.517 141.698L184.984 136.805L187.263 144.257L194.457 140.1L185.288 111.232L176.517 116.298V116.304ZM177.484 135.36C177.484 135.36 180.161 122.006 180.598 119.726L180.684 119.673C181.121 121.443 184.016 131.587 184.016 131.587L177.478 135.366L177.484 135.36Z" fill="#FF4400"/>
<path d="M219.539 94.8436C216.69 94.0082 213.046 94.943 207.435 98.1918C204.056 100.141 198.398 103.662 198.398 103.662V137.674C200.068 136.965 202.751 135.4 206.216 133.398C212.006 130.05 216.511 126.297 219.625 121.51C222.474 117.074 224.534 111.373 224.534 104.835C224.534 98.8018 222.606 95.7121 219.532 94.8502L219.539 94.8436ZM207.673 125.959C206.892 126.41 205.494 127.199 205.494 127.199V105.956C205.494 105.956 206.931 105.114 208.336 104.305C213.729 101.189 217.101 102.76 217.061 109.437C217.061 117.094 213.358 122.723 207.68 125.952L207.673 125.959Z" fill="#FF4400"/>
</g>
<defs>
<clipPath id="clip0_2066_68170">
<rect width="265" height="253.842" fill="white"/>
</clipPath>
</defs>
</svg>
