<svg width="120" height="35" viewBox="0 0 120 35" fill="none" xmlns="http://www.w3.org/2000/svg">
<g clip-path="url(#clip0_415_5448)">
<path opacity="0.5" d="M25.3063 6.32568L23.7239 9.49055L22.1414 12.6554L20.5631 15.8162L18.9807 18.981L15.8158 25.3066L14.2334 28.4715H22.1414L23.7239 25.3066L25.3063 22.1418L26.8887 18.981L28.4712 15.8162L31.6319 9.49055L33.2143 6.32568H25.3063Z" fill="url(#paint0_linear_415_5448)"/>
<path d="M34.7973 0H28.4718L27.2083 2.53107L25.311 6.3256H34.8015C38.2936 6.3256 41.1271 9.15907 41.1271 12.6512C41.1271 16.1433 38.2936 18.9768 34.8015 18.9768H18.9813L15.8164 25.3024H34.7973C41.7858 25.3024 47.4527 19.6355 47.4527 12.6471C47.4527 5.65866 41.7858 0 34.7973 0Z" fill="url(#paint1_radial_415_5448)"/>
<path d="M23.7241 9.49023H12.6553C5.66694 9.49023 0 15.153 0 22.1414C0 28.612 4.85501 33.9434 11.1185 34.6974C11.6197 34.7595 12.1334 34.7926 12.6512 34.7926H18.9768L20.2403 32.2616L22.1375 28.467H12.6553C9.16321 28.467 6.32974 25.6336 6.32974 22.1414C6.32974 18.6493 9.16321 15.8158 12.6553 15.8158H28.4714L31.6363 9.49023H23.7283H23.7241Z" fill="url(#paint2_radial_415_5448)"/>
<path d="M58.3717 10.1158C60.9277 10.1158 62.7835 12.4522 62.7835 16.1224C62.7835 19.7927 60.9318 22.1622 58.3717 22.1622C55.8117 22.1622 53.96 19.8258 53.96 16.1224C53.96 12.419 55.8324 10.1158 58.3717 10.1158ZM58.3717 20.2732C59.8009 20.2732 60.7619 18.7529 60.7619 16.1224C60.7619 13.4919 59.7968 12.0089 58.3717 12.0089C56.9467 12.0089 55.9815 13.5292 55.9815 16.1224C55.9815 18.7156 56.9633 20.2732 58.3717 20.2732ZM67.4521 25.9277H65.356V8.87305H67.4521V25.9236V25.9277Z" fill="black"/>
<path d="M71.6241 23.2558L70.4932 21.6444C73.4219 20.1821 75.1618 18.4754 76.1477 16.4538L70.9033 16.9716L70.6257 15.1572L76.7608 14.7678C76.9845 13.9725 77.1129 13.1357 77.1667 12.2492H71.5122V10.5632H79.2587C79.2587 15.6957 77.8502 20.1282 71.6241 23.26V23.2558ZM81.5951 8.87305H83.7077V15.5259H86.2098V17.2699H83.7077V25.8697H81.5951V8.87305Z" fill="black"/>
<path d="M87.5264 19.1215H102.928V20.8075H96.2381V25.9235H94.1627V20.8075H87.5264V19.1215ZM101.13 14.3038H91.4742V15.9898H101.52V17.6758H89.3615V12.7255H98.997V11.1514H89.3242V9.48193H101.13V14.2997V14.3038Z" fill="black"/>
<path d="M104.598 22.0129H119.999V23.7362H104.598V22.0129ZM119.37 17.0833L118.463 18.8439C115.625 18.2515 113.309 16.5282 112.216 14.2291C111.106 16.5075 108.806 18.2515 105.969 18.8439L105.062 17.0833C108.566 16.4702 111.101 13.8232 111.101 11.1886V9.9458H113.326V11.1886C113.326 13.8398 115.865 16.4702 119.366 17.0833H119.37Z" fill="black"/>
</g>
<defs>
<linearGradient id="paint0_linear_415_5448" x1="14.2334" y1="17.3986" x2="33.2143" y2="17.3986" gradientUnits="userSpaceOnUse">
<stop stop-color="#9A9CFE"/>
<stop offset="1" stop-color="#0868FD"/>
</linearGradient>
<radialGradient id="paint1_radial_415_5448" cx="0" cy="0" r="1" gradientUnits="userSpaceOnUse" gradientTransform="translate(30.0666 13.4921) scale(15.1864 15.1864)">
<stop stop-color="#85ECC7"/>
<stop offset="0.04" stop-color="#7DECC8"/>
<stop offset="0.35" stop-color="#45ECD5"/>
<stop offset="0.5" stop-color="#30ECDB"/>
<stop offset="1" stop-color="#85ECC7"/>
</radialGradient>
<radialGradient id="paint2_radial_415_5448" cx="0" cy="0" r="1" gradientUnits="userSpaceOnUse" gradientTransform="translate(15.8161 22.1414) scale(14.3248 14.3248)">
<stop stop-color="#9A9CFE"/>
<stop offset="0.5" stop-color="#0868FD"/>
<stop offset="1" stop-color="#9A9CFE"/>
</radialGradient>
<clipPath id="clip0_415_5448">
<rect width="120" height="34.797" fill="white"/>
</clipPath>
</defs>
</svg>
