<svg width="21" height="20" viewBox="0 0 21 20" fill="none" xmlns="http://www.w3.org/2000/svg">
<path d="M17.1667 4.16667H14.5251L13.0001 2.5H8.00008L6.47508 4.16667H3.83341C2.91675 4.16667 2.16675 4.91667 2.16675 5.83333V15.8333C2.16675 16.75 2.91675 17.5 3.83341 17.5H17.1667C18.0834 17.5 18.8334 16.75 18.8334 15.8333V5.83333C18.8334 4.91667 18.0834 4.16667 17.1667 4.16667ZM17.1667 15.8333H3.83341V5.83333H7.20841L8.73341 4.16667H12.2667L13.7917 5.83333H17.1667V15.8333ZM10.5001 6.66667C8.20008 6.66667 6.33341 8.53333 6.33341 10.8333C6.33341 13.1333 8.20008 15 10.5001 15C12.8001 15 14.6667 13.1333 14.6667 10.8333C14.6667 8.53333 12.8001 6.66667 10.5001 6.66667ZM10.5001 13.3333C9.12508 13.3333 8.00008 12.2083 8.00008 10.8333C8.00008 9.45833 9.12508 8.33333 10.5001 8.33333C11.8751 8.33333 13.0001 9.45833 13.0001 10.8333C13.0001 12.2083 11.8751 13.3333 10.5001 13.3333Z" fill="#0868FD" fill-opacity="0.25"/>
</svg>
