<svg width="270" height="216" viewBox="0 0 270 216" fill="none" xmlns="http://www.w3.org/2000/svg">
<path fill-rule="evenodd" clip-rule="evenodd" d="M122.259 171.805C110.467 178.303 96.9153 182 82.5 182C36.9365 182 0 145.063 0 99.5C0 53.9365 36.9365 17 82.5 17C109.619 17 133.681 30.0845 148.719 50.2847C150.098 51.881 155.003 54.7884 163.842 52.0493C174.396 45.6707 186.769 42 200 42C238.66 42 270 73.3401 270 112C270 150.66 238.66 182 200 182C188.307 182 177.284 179.133 167.596 174.064C149.407 165.486 132.237 168.067 122.259 171.805Z" fill="#F5F7FB"/>
<path d="M77.7215 83.8104L181.752 6.77539L121.14 24.5881L19.3438 105.752L77.7215 83.8104Z" fill="#6191F2"/>
<path d="M73.6805 77.3396L177.711 0.304688L119.333 22.249L15.3027 99.2839L73.6805 77.3396Z" fill="#6191F2"/>
<path d="M19.3408 105.749L181.747 6.77234L177.711 0.304688L15.3027 99.2839L19.3408 105.749Z" fill="#6191F2"/>
<path d="M73.8419 77.5972C73.8263 77.6076 73.8081 77.618 73.7873 77.6232L15.4095 99.5675C15.2536 99.6247 15.0795 99.5467 15.0198 99.3908C14.96 99.2349 15.0406 99.0608 15.1965 99.001L73.5327 77.0723L177.53 0.0633649C177.667 -0.0457719 177.854 -0.006797 177.953 0.125726C178.052 0.260848 178.023 0.450539 177.891 0.549282L73.8601 77.5842C73.8601 77.5842 73.8471 77.5946 73.8393 77.5972H73.8419Z" fill="white"/>
<path d="M77.6338 84.2231C77.6338 84.2231 77.626 84.2283 77.6234 84.2283C77.4779 84.3114 77.2934 84.2595 77.2102 84.1165L73.419 77.493C73.3359 77.3475 73.3956 77.1708 73.5307 77.0798C73.6763 76.9967 73.8608 77.0486 73.9439 77.1915L77.7351 83.8151C77.8157 83.958 77.7715 84.1347 77.6338 84.2205V84.2231Z" fill="white"/>
<path d="M118.245 44.7155C118.225 44.7285 118.204 44.7389 118.178 44.7466L66.4262 61.6031C66.2677 61.6551 66.0962 61.5667 66.0442 61.4108C65.9923 61.2523 66.0806 61.0834 66.2365 61.0288L117.988 44.1724C118.147 44.1204 118.318 44.2062 118.37 44.3673C118.414 44.5024 118.357 44.6453 118.243 44.7155H118.245Z" fill="#373737"/>
<path d="M45.8038 88.1372C45.6739 88.2178 45.4998 88.1892 45.4037 88.0645C45.3023 87.9319 45.3283 87.7423 45.4608 87.6409L143.169 12.981C143.297 12.877 143.492 12.9056 143.593 13.0381C143.694 13.1706 143.668 13.3603 143.536 13.4617L45.8272 88.1216C45.8272 88.1216 45.8116 88.132 45.8038 88.1372Z" fill="#373737"/>
<path d="M91.3115 53.4884C91.2907 53.4884 91.2699 53.4884 91.2492 53.4832C91.1452 53.4624 91.0621 53.3871 91.0257 53.2883C90.771 52.5685 84.8101 35.5874 87.1981 29.9928C88.3492 27.293 90.8646 24.6139 93.9256 22.8236C97.1036 20.9656 100.178 20.4355 102.36 21.3658C104.504 22.2805 105.686 24.5542 105.777 27.94C105.85 30.7126 105.138 34.14 103.87 37.1075C101.508 42.6423 91.9403 52.9557 91.5324 53.3923C91.4752 53.4546 91.3947 53.4884 91.3115 53.4884ZM100.011 21.5269C98.2989 21.5269 96.2694 22.1506 94.2296 23.3433C91.2777 25.0713 88.8559 27.6438 87.7516 30.2267C85.6702 35.1015 90.467 49.77 91.431 52.6075C93.1928 50.6794 101.238 41.7276 103.311 36.871C104.546 33.9789 105.242 30.645 105.169 27.9556C105.112 25.7703 104.535 22.9509 102.121 21.9219C101.503 21.6568 100.788 21.5295 100.009 21.5295L100.011 21.5269Z" fill="#373737"/>
<path d="M86.7555 53.7179C83.1254 53.7179 78.1311 53.2502 74.6699 51.0597C69.2183 47.6063 67.3942 43.2876 69.79 39.5068C72.1858 35.7234 76.8709 35.5285 82.3199 38.9793C88.2289 42.7211 91.503 52.65 91.6381 53.0709C91.6667 53.1567 91.6537 53.2502 91.6069 53.3256C91.5602 53.4009 91.4796 53.4529 91.3913 53.4633C91.2094 53.4867 89.3229 53.7205 86.7555 53.7205V53.7179ZM75.2598 37.1369C73.155 37.1369 71.4374 38.036 70.3019 39.8264C68.1087 43.2902 69.8627 47.2971 74.9948 50.5478C80.106 53.7855 89.024 53.0943 90.9443 52.902C90.2999 51.0831 87.1115 42.7263 81.9977 39.4886C79.5213 37.9191 77.2217 37.1369 75.2572 37.1369H75.2598Z" fill="#373737"/>
<path d="M91.4724 53.4451C91.4724 53.4451 91.4542 53.4555 91.4438 53.4606C91.2931 53.5334 91.1138 53.471 91.041 53.3203L71.729 13.2749C71.6563 13.1242 71.7108 12.9449 71.8693 12.8722C72.02 12.7994 72.1993 12.8618 72.2721 13.0125L91.5841 53.0579C91.6517 53.1982 91.6023 53.3645 91.4724 53.4451Z" fill="#373737"/>
<path d="M88.576 61.333C88.5007 61.3798 88.4045 61.3954 88.311 61.3616C88.1551 61.3044 88.0745 61.1303 88.1317 60.9744L91.0264 53.0854C91.0836 52.9295 91.2577 52.8489 91.4136 52.9061C91.5695 52.9633 91.65 53.1374 91.5929 53.2933L88.6981 61.1823C88.6748 61.2473 88.6306 61.2992 88.5734 61.3356L88.576 61.333Z" fill="#373737"/>
<path d="M264.57 35.3807L212.585 70.9145L196.759 65.679C194.894 65.0619 193.839 63.0957 194.354 61.2009L198.518 45.8669L264.177 34.4193C264.741 34.3198 265.041 35.0594 264.57 35.3807Z" fill="#C6CACF"/>
<path d="M212.646 71.1024C212.663 71.0973 212.679 71.0896 212.694 71.0794L264.679 35.5431C264.969 35.3442 265.077 34.9923 264.944 34.6658C264.811 34.3394 264.49 34.1635 264.143 34.2221L198.479 45.6748C198.405 45.6876 198.342 45.7437 198.324 45.8176L194.159 61.1517C193.619 63.1459 194.731 65.2192 196.694 65.8669L212.521 71.1024C212.561 71.1151 212.605 71.1151 212.646 71.1024Z" fill="#C6CACF"/>
<path d="M211.878 82.4404L211.907 82.5458C212.324 83.7946 213.918 84.2022 214.884 83.2701C214.884 83.2701 214.884 83.27 214.884 83.27L264.056 35.753L207.968 62.3313L207.967 62.3318C207.175 62.705 206.765 63.5935 206.995 64.4415C206.995 64.4415 206.995 64.4415 206.995 64.4415L211.878 82.4404Z" fill="white" stroke="#F5F7FB"/>
<path d="M200.039 53.7362L199.66 53.1444V54.0724L190.997 40.4913C190.051 39.0096 191.069 37.0613 192.826 36.9899L264.087 34.0981L264.107 34.5976M200.039 53.7362L191.419 40.2224L191.419 40.2222C190.68 39.0661 191.474 37.5453 192.846 37.4895L263.175 34.6355M200.039 53.7362L200.581 54.5843C201.023 55.2756 201.88 55.5759 202.656 55.3114L200.039 53.7362ZM263.175 34.6355L264.058 34.3338L264.058 34.3338L264.059 34.3336C264.059 34.3337 264.058 34.3338 264.058 34.3338C264.038 34.3409 264.005 34.3634 263.984 34.4036C263.966 34.4378 263.965 34.4675 263.969 34.4867C263.972 34.5059 263.984 34.5337 264.013 34.5594C264.047 34.5894 264.087 34.5982 264.107 34.5976M263.175 34.6355L264.107 34.5976M263.175 34.6355L202.656 55.3113L264.108 34.5976M264.107 34.5976L264.108 34.5976M264.108 34.5976L264.108 34.5976L264.108 34.5976Z" fill="white" stroke="#F5F7FB"/>
<path d="M15.5569 163.209H15.7941C16.0058 163.209 16.1766 163.036 16.1766 162.824C16.1766 162.613 16.0058 162.442 15.7941 162.442H15.5595C14.3074 162.442 13.0195 162.424 11.7343 162.391C11.7317 162.391 11.7266 162.391 11.7241 162.391C11.5175 162.391 11.3466 162.556 11.3415 162.763C11.3364 162.975 11.5022 163.151 11.7139 163.156C13.0042 163.189 14.2997 163.207 15.5595 163.207L15.5569 163.209ZM20.8919 163.107C20.8919 163.107 20.9021 163.107 20.9072 163.107C22.6234 163.041 24.3422 162.939 26.0151 162.804C26.2268 162.786 26.3823 162.602 26.367 162.393C26.3492 162.182 26.1707 162.026 25.9564 162.041C24.2938 162.174 22.5851 162.276 20.8791 162.342C20.6674 162.35 20.5042 162.528 20.5119 162.74C20.5195 162.947 20.6904 163.107 20.8944 163.107H20.8919ZM31.0593 162.291C31.0746 162.291 31.0899 162.291 31.1078 162.289C32.8113 162.077 34.5147 161.827 36.1723 161.544C36.3815 161.508 36.5217 161.309 36.486 161.103C36.4503 160.894 36.254 160.756 36.0448 160.789C34.4 161.07 32.7067 161.32 31.0159 161.529C30.8068 161.554 30.6564 161.745 30.6844 161.955C30.7074 162.148 30.8731 162.291 31.0644 162.291H31.0593ZM41.1094 160.567C41.1375 160.567 41.1655 160.565 41.1936 160.557C42.8665 160.185 44.5368 159.767 46.1613 159.315C46.3653 159.259 46.4826 159.047 46.4265 158.843C46.3704 158.639 46.1587 158.522 45.9547 158.578C44.343 159.027 42.6854 159.44 41.0253 159.81C40.8187 159.856 40.6887 160.06 40.7346 160.266C40.7754 160.445 40.9335 160.565 41.1069 160.565L41.1094 160.567ZM154.844 158.502C155.44 158.502 156.045 158.484 156.644 158.451C156.856 158.438 157.016 158.257 157.004 158.048C156.991 157.836 156.812 157.678 156.601 157.688C154.925 157.785 153.232 157.742 151.569 157.563C151.357 157.543 151.171 157.693 151.148 157.902C151.125 158.112 151.278 158.3 151.488 158.323C152.599 158.443 153.727 158.502 154.844 158.502ZM50.9301 157.828C50.9709 157.828 51.0117 157.821 51.0525 157.808C52.6744 157.257 54.2886 156.655 55.8518 156.02C56.0482 155.941 56.1426 155.717 56.0635 155.523C55.9844 155.327 55.76 155.232 55.5662 155.311C54.0157 155.941 52.4168 156.538 50.8077 157.084C50.6087 157.153 50.5016 157.369 50.5679 157.568C50.6215 157.726 50.772 157.828 50.9301 157.828ZM161.665 157.742C161.693 157.742 161.721 157.739 161.749 157.732C163.43 157.352 165.082 156.826 166.666 156.171C166.862 156.089 166.954 155.867 166.873 155.671C166.791 155.475 166.569 155.383 166.373 155.464C164.83 156.102 163.216 156.615 161.578 156.987C161.372 157.033 161.244 157.239 161.29 157.443C161.331 157.622 161.489 157.742 161.663 157.742H161.665ZM146.525 157.369C146.693 157.369 146.846 157.26 146.892 157.089C146.948 156.885 146.831 156.673 146.627 156.617C144.997 156.163 143.414 155.569 141.919 154.858C141.728 154.766 141.501 154.847 141.409 155.039C141.318 155.23 141.399 155.457 141.59 155.549C143.126 156.28 144.75 156.89 146.423 157.357C146.456 157.367 146.492 157.369 146.525 157.369ZM60.3733 153.988C60.4294 153.988 60.4855 153.975 60.539 153.95C62.0819 153.21 63.6119 152.414 65.0859 151.591C65.2695 151.489 65.3359 151.254 65.2338 151.071C65.1318 150.887 64.8972 150.821 64.7136 150.923C63.2549 151.741 61.7376 152.527 60.21 153.261C60.0188 153.353 59.9397 153.58 60.0315 153.771C60.0978 153.909 60.233 153.988 60.3758 153.988H60.3733ZM171.042 153.855C171.111 153.855 171.182 153.835 171.246 153.797C172.684 152.886 174.069 151.841 175.362 150.688C175.52 150.548 175.533 150.305 175.393 150.147C175.252 149.989 175.01 149.977 174.852 150.117C173.59 151.241 172.238 152.261 170.836 153.151C170.657 153.264 170.603 153.501 170.718 153.679C170.792 153.794 170.915 153.858 171.042 153.858V153.855ZM137.383 152.978C137.5 152.978 137.617 152.924 137.691 152.822C137.816 152.652 137.78 152.412 137.61 152.287C136.467 151.448 135.409 150.52 134.458 149.528C134.266 149.329 134.08 149.125 133.899 148.921C133.759 148.763 133.517 148.75 133.359 148.89C133.2 149.03 133.188 149.273 133.328 149.431C133.517 149.642 133.708 149.849 133.907 150.058C134.886 151.083 135.98 152.04 137.158 152.907C137.227 152.958 137.306 152.981 137.385 152.981L137.383 152.978ZM69.2656 149.007C69.337 149.007 69.4084 148.987 69.4747 148.946C70.7269 148.135 71.9739 147.273 73.1776 146.388C73.3459 146.266 73.5142 146.141 73.6799 146.016C73.8482 145.889 73.8839 145.649 73.7564 145.481C73.6289 145.31 73.3892 145.277 73.2209 145.404C73.0577 145.527 72.8919 145.649 72.7236 145.771C71.5302 146.646 70.2959 147.498 69.0565 148.304C68.8806 148.418 68.8296 148.656 68.9443 148.834C69.0183 148.946 69.1407 149.007 69.2656 149.007ZM178.634 147.103C178.746 147.103 178.856 147.054 178.93 146.962C180.024 145.623 181.011 144.198 181.865 142.721C181.972 142.538 181.908 142.306 181.725 142.199C181.541 142.091 181.309 142.155 181.202 142.339C180.368 143.777 179.404 145.169 178.338 146.478C178.205 146.641 178.228 146.883 178.392 147.016C178.463 147.074 178.547 147.103 178.634 147.103ZM130.673 145.404C130.737 145.404 130.798 145.389 130.857 145.356C131.043 145.254 131.109 145.022 131.007 144.835C130.217 143.405 129.566 141.849 129.069 140.215C129.008 140.013 128.796 139.898 128.592 139.96C128.391 140.021 128.276 140.235 128.337 140.436C128.847 142.122 129.521 143.726 130.337 145.205C130.405 145.333 130.538 145.404 130.671 145.404H130.673ZM77.4261 142.91C77.5154 142.91 77.6021 142.879 77.676 142.818C78.9689 141.709 80.2364 140.541 81.4426 139.35C81.5931 139.202 81.593 138.96 81.4451 138.809C81.2972 138.659 81.055 138.659 80.9045 138.807C79.711 139.985 78.4589 141.14 77.1787 142.239C77.0181 142.377 77.0002 142.619 77.1379 142.78C77.2144 142.869 77.3215 142.913 77.4286 142.913L77.4261 142.91ZM183.701 138.302C183.857 138.302 184.004 138.205 184.061 138.052C184.67 136.389 185.109 134.706 185.361 133.049C185.392 132.84 185.249 132.646 185.04 132.613C184.831 132.582 184.637 132.725 184.604 132.934C184.359 134.54 183.933 136.173 183.341 137.789C183.268 137.988 183.37 138.208 183.568 138.279C183.612 138.294 183.655 138.302 183.701 138.302ZM84.666 135.752C84.7731 135.752 84.8776 135.708 84.9541 135.622C86.0584 134.365 87.1524 133.033 88.2056 131.664C88.3331 131.496 88.3025 131.256 88.1342 131.128C87.9659 131.001 87.7261 131.031 87.5986 131.2C86.5556 132.556 85.4744 133.875 84.3804 135.117C84.2401 135.275 84.2554 135.517 84.4161 135.657C84.49 135.721 84.5793 135.752 84.6685 135.752H84.666ZM127.677 135.721C127.692 135.721 127.707 135.721 127.723 135.719C127.932 135.693 128.082 135.504 128.057 135.293C127.904 133.985 127.825 132.61 127.825 131.207C127.825 130.889 127.83 130.572 127.837 130.256C127.843 130.045 127.674 129.869 127.465 129.863H127.455C127.248 129.863 127.078 130.029 127.072 130.236C127.065 130.557 127.06 130.881 127.06 131.205C127.06 132.638 127.139 134.043 127.297 135.382C127.32 135.576 127.486 135.719 127.677 135.719V135.721ZM185.162 128.29C185.162 128.29 185.185 128.29 185.195 128.29C185.407 128.272 185.563 128.086 185.542 127.877C185.397 126.214 185.04 124.511 184.481 122.817C184.415 122.616 184.198 122.509 183.999 122.573C183.798 122.639 183.691 122.856 183.755 123.055C184.295 124.692 184.639 126.337 184.78 127.943C184.798 128.142 184.963 128.293 185.16 128.293L185.162 128.29ZM90.8832 127.683C91.0056 127.683 91.1255 127.624 91.1995 127.515C92.1124 126.173 93.0203 124.768 93.9766 123.218C94.0888 123.037 94.0327 122.802 93.8516 122.692C93.6731 122.583 93.4359 122.636 93.3263 122.817C92.3776 124.358 91.4749 125.753 90.567 127.084C90.4472 127.257 90.4931 127.497 90.669 127.614C90.7353 127.66 90.8093 127.681 90.8832 127.681V127.683ZM127.873 125.549C128.062 125.549 128.225 125.411 128.251 125.217C128.47 123.611 128.781 121.933 129.169 120.234C129.217 120.028 129.087 119.824 128.88 119.775C128.671 119.727 128.47 119.857 128.421 120.063C128.026 121.785 127.713 123.483 127.491 125.113C127.463 125.322 127.608 125.515 127.817 125.544C127.835 125.544 127.853 125.546 127.871 125.546L127.873 125.549ZM96.2615 119.023C96.3941 119.023 96.5216 118.954 96.593 118.832C97.1107 117.942 97.6182 117.059 98.118 116.187C98.4597 115.59 98.8015 114.999 99.1406 114.412C99.2452 114.229 99.184 113.996 99.0004 113.889C98.8168 113.782 98.5847 113.846 98.4776 114.03C98.1384 114.616 97.7992 115.208 97.455 115.807C96.9551 116.677 96.4502 117.559 95.9325 118.449C95.8254 118.633 95.8892 118.865 96.0702 118.972C96.1314 119.008 96.1978 119.023 96.2615 119.023ZM182.071 118.658C182.133 118.658 182.196 118.643 182.255 118.61C182.441 118.508 182.508 118.276 182.406 118.089C181.612 116.646 180.664 115.195 179.59 113.775C179.463 113.606 179.223 113.573 179.055 113.701C178.886 113.828 178.853 114.068 178.981 114.236C180.031 115.626 180.96 117.046 181.735 118.457C181.804 118.584 181.936 118.656 182.071 118.656V118.658ZM130.127 115.611C130.291 115.611 130.441 115.506 130.492 115.34C130.964 113.808 131.505 112.234 132.14 110.533C132.214 110.334 132.114 110.115 131.915 110.041C131.719 109.967 131.497 110.067 131.423 110.266C130.783 111.979 130.24 113.565 129.763 115.113C129.702 115.315 129.814 115.529 130.015 115.593C130.054 115.603 130.092 115.611 130.127 115.611ZM175.969 110.521C176.063 110.521 176.16 110.485 176.234 110.414C176.387 110.268 176.392 110.026 176.244 109.873C175.092 108.672 173.832 107.488 172.503 106.354C172.343 106.216 172.1 106.236 171.965 106.397C171.828 106.558 171.848 106.8 172.009 106.935C173.319 108.055 174.561 109.22 175.696 110.403C175.77 110.482 175.872 110.521 175.972 110.521H175.969ZM101.408 110.22C101.535 110.22 101.663 110.156 101.734 110.039C102.726 108.429 103.639 107.047 104.527 105.808C104.649 105.637 104.611 105.397 104.437 105.275C104.266 105.153 104.027 105.191 103.904 105.364C103.007 106.619 102.083 108.016 101.081 109.641C100.969 109.822 101.025 110.056 101.206 110.166C101.27 110.204 101.339 110.222 101.408 110.222V110.22ZM133.71 106.063C133.856 106.063 133.994 105.981 134.057 105.841C134.759 104.321 135.547 102.809 136.393 101.353C136.5 101.169 136.437 100.937 136.255 100.83C136.072 100.723 135.84 100.787 135.733 100.968C134.873 102.447 134.075 103.979 133.364 105.522C133.274 105.714 133.359 105.941 133.55 106.03C133.601 106.053 133.657 106.065 133.71 106.065V106.063ZM168.232 103.888C168.352 103.888 168.469 103.832 168.543 103.727C168.665 103.556 168.627 103.316 168.454 103.194C167.084 102.215 165.638 101.269 164.162 100.381C163.981 100.272 163.746 100.33 163.636 100.511C163.527 100.692 163.585 100.927 163.767 101.037C165.228 101.914 166.653 102.85 168.007 103.816C168.074 103.865 168.153 103.888 168.229 103.888H168.232ZM107.401 101.993C107.505 101.993 107.607 101.95 107.684 101.868C108.867 100.565 110.06 99.4351 111.335 98.4151C111.501 98.2824 111.527 98.0427 111.394 97.877C111.261 97.7112 111.022 97.6857 110.856 97.8183C109.55 98.8639 108.326 100.019 107.115 101.353C106.972 101.508 106.985 101.751 107.14 101.893C107.214 101.96 107.306 101.993 107.398 101.993H107.401ZM159.498 98.6318C159.638 98.6318 159.773 98.5553 159.839 98.4201C159.934 98.2314 159.857 98.0019 159.668 97.9076C158.146 97.1425 156.578 96.4234 155.004 95.7731C154.808 95.6915 154.586 95.7858 154.504 95.9797C154.423 96.176 154.517 96.3979 154.711 96.4795C156.267 97.1221 157.82 97.8336 159.324 98.591C159.38 98.6191 159.439 98.6318 159.495 98.6318H159.498ZM138.826 97.2598C138.946 97.2598 139.063 97.2037 139.137 97.0992C140.101 95.7425 141.149 94.3986 142.251 93.1031C142.389 92.9424 142.368 92.7002 142.208 92.565C142.047 92.4273 141.805 92.4477 141.669 92.6084C140.555 93.9191 139.494 95.2835 138.517 96.658C138.395 96.8314 138.436 97.0686 138.607 97.191C138.673 97.2394 138.752 97.2624 138.829 97.2624L138.826 97.2598ZM115.332 95.694C115.393 95.694 115.454 95.6787 115.513 95.6481C116.948 94.8729 118.496 94.2048 120.118 93.6565C120.317 93.5876 120.427 93.3709 120.358 93.1719C120.292 92.9705 120.072 92.8634 119.873 92.9322C118.213 93.4933 116.624 94.1818 115.15 94.9749C114.964 95.0744 114.895 95.3064 114.995 95.4926C115.064 95.6201 115.196 95.694 115.332 95.694ZM150.072 94.7377C150.233 94.7377 150.383 94.6357 150.434 94.4751C150.501 94.2736 150.391 94.0594 150.19 93.9931C148.552 93.4576 146.892 92.9832 145.255 92.588C145.048 92.537 144.842 92.6645 144.793 92.871C144.745 93.0776 144.87 93.2841 145.076 93.3326C146.693 93.7228 148.336 94.1895 149.952 94.7199C149.993 94.7326 150.031 94.7403 150.072 94.7403V94.7377ZM124.928 92.4069C124.951 92.4069 124.974 92.4069 124.997 92.4018C126.608 92.1085 128.294 91.9122 130.013 91.8178C130.224 91.8076 130.385 91.6266 130.375 91.4149C130.365 91.2032 130.189 91.0375 129.972 91.0528C128.223 91.1471 126.504 91.3486 124.861 91.647C124.655 91.6852 124.517 91.8841 124.553 92.0932C124.586 92.2768 124.747 92.4069 124.928 92.4069ZM140.162 92.3533C140.348 92.3533 140.512 92.2182 140.54 92.0295C140.57 91.8204 140.428 91.6266 140.218 91.5934C138.497 91.3307 136.778 91.1522 135.11 91.0604C134.901 91.0451 134.72 91.2109 134.708 91.4225C134.697 91.6342 134.858 91.8127 135.07 91.8255C136.715 91.9147 138.408 92.0932 140.106 92.3508C140.127 92.3533 140.144 92.3559 140.165 92.3559L140.162 92.3533ZM145.418 89.487C145.515 89.487 145.615 89.4487 145.689 89.3748C146.864 88.1991 148.114 87.0388 149.409 85.927C149.57 85.7893 149.588 85.547 149.45 85.3863C149.312 85.2257 149.07 85.2078 148.909 85.3455C147.601 86.4702 146.336 87.6432 145.148 88.8316C144.997 88.982 144.997 89.2243 145.148 89.3722C145.222 89.4462 145.321 89.4844 145.418 89.4844V89.487ZM153.14 82.8285C153.219 82.8285 153.301 82.803 153.37 82.752C154.701 81.7575 156.101 80.7808 157.534 79.8449C157.71 79.7301 157.761 79.4929 157.646 79.3144C157.531 79.1385 157.294 79.0875 157.116 79.2022C155.67 80.1458 154.254 81.1327 152.911 82.1374C152.742 82.265 152.707 82.5047 152.834 82.673C152.908 82.7724 153.025 82.826 153.14 82.826V82.8285ZM161.678 77.2463C161.742 77.2463 161.808 77.231 161.867 77.1953C163.705 76.142 165.302 75.3081 166.342 74.7752C166.531 74.6783 166.605 74.4487 166.508 74.26C166.411 74.0713 166.182 73.9974 165.993 74.0943C164.945 74.6324 163.341 75.4688 161.487 76.5322C161.303 76.6368 161.239 76.8714 161.344 77.055C161.415 77.1774 161.543 77.2463 161.675 77.2463H161.678ZM170.754 72.582C170.807 72.582 170.861 72.5718 170.912 72.5489C172.447 71.8552 174.023 71.1999 175.599 70.6031C175.796 70.5292 175.895 70.3073 175.821 70.1109C175.747 69.9146 175.525 69.8151 175.329 69.8891C173.738 70.4935 172.146 71.154 170.596 71.8527C170.405 71.9394 170.318 72.1664 170.405 72.3576C170.468 72.4979 170.609 72.582 170.754 72.582ZM180.286 68.9685C180.325 68.9685 180.363 68.9634 180.399 68.9506C182.003 68.4533 183.65 67.9994 185.292 67.599C185.499 67.548 185.624 67.3415 185.573 67.1375C185.522 66.9335 185.315 66.8059 185.111 66.8569C183.454 67.2599 181.791 67.7189 180.172 68.2213C179.97 68.2825 179.858 68.4967 179.919 68.7007C179.97 68.8639 180.121 68.971 180.284 68.971L180.286 68.9685Z" fill="#003D56"/>
<path d="M45.2015 214.91L226.285 214.91V137.4L45.2015 137.4V214.91Z" fill="#6191F2"/>
<path d="M171.868 215.211C171.702 215.211 171.567 215.076 171.567 214.91V137.399C171.567 137.233 171.702 137.098 171.868 137.098C172.034 137.098 172.17 137.233 172.17 137.399V214.91C172.17 215.076 172.034 215.211 171.868 215.211Z" fill="white"/>
</svg>
