<svg width="30" height="31" viewBox="0 0 30 31" fill="none" xmlns="http://www.w3.org/2000/svg">
<path fill-rule="evenodd" clip-rule="evenodd" d="M24.7555 14.7438C22.8626 15.1246 22.1675 16.2146 21.6692 15.9614C21.234 15.6068 21.7098 13.5889 21.8125 12.7772C21.9451 11.7133 20.5132 11.0637 20.0245 12.3692C19.6203 13.6726 19.8106 18.2847 19.9004 19.0996C19.9956 19.9741 21.527 19.9396 21.6885 19.1802C21.7366 18.9417 21.8606 18.4416 22.2167 17.7429C23.7449 14.862 27.0867 16.1298 26.7584 18.1519C26.1927 21.2482 20.448 21.1823 19.6908 20.5223C18.5573 19.7158 14.9673 17.3339 11.4983 15.0754C11.5025 14.9153 11.5089 14.7438 11.5164 14.5837C16.3426 11.7635 21.204 8.90883 21.8125 8.37429C22.7717 7.52175 21.7098 6.0039 20.479 6.97779C19.6577 7.63681 15.7598 10.1746 11.6437 12.7814C11.9239 9.63166 12.4222 7.82092 12.6414 6.9893C13.0489 5.44007 10.831 4.8595 10.4535 6.42233C9.82787 8.99879 9.48139 11.4372 9.31028 13.6632C6.96832 12.1621 4.96108 10.8943 4.20609 10.4936C2.02026 9.32412 1.79248 11.4706 2.66297 11.8755C3.08003 12.0753 5.28831 13.408 7.99708 15.0733C5.27227 16.7794 2.83835 18.2638 1.61176 18.9678C0.796883 19.6342 1.4984 20.5223 2.33787 20.0275C3.68637 19.1802 6.30103 17.6435 9.18837 15.9489C9.07716 20.4658 9.71024 23.7358 10.2064 24.7536C10.8545 26.0622 11.9217 25.4911 11.7506 24.2641C11.5196 21.5526 11.4352 19.2095 11.4448 17.2C15.6293 19.7858 19.7978 22.3905 20.1881 22.6332C21.158 23.2368 22.0542 22.5485 22.1376 22.0621C25.5126 21.7472 27.8567 21.1593 28.6106 18.4898C29.3859 15.7606 26.7648 14.3411 24.7555 14.7438" fill="#FCB813"/>
</svg>
