<svg width="320" height="399" viewBox="0 0 320 399" fill="none" xmlns="http://www.w3.org/2000/svg">
<path d="M244.148 36.6062L34.0938 233.699C34.7292 234.631 35.2879 235.584 35.9452 236.515L52.3678 259.664L65.668 247.186L76.065 256.936L60.6833 271.376L75.1338 291.743L82.0359 301.46L297.71 99.0976C286.557 74.0747 268.184 52.1195 244.148 36.6062Z" fill="#101440"/>
<path d="M171.61 13.0731C167.776 12.832 163.897 12.7006 159.986 12.7006C156.075 12.7006 152.207 12.8211 148.362 13.0731C34.0172 20.3367 -26.8964 143.49 34.083 233.699L244.137 36.6059C223.715 23.4043 199.24 14.826 171.61 13.0731Z" fill="#561AA4"/>
<path d="M82.0361 301.461L129.683 368.608C146.357 392.108 173.637 392.108 190.3 368.608L244.849 291.743L284.038 236.515C314.801 193.152 316.718 141.726 297.71 99.0977L82.0361 301.461Z" fill="#561AA4"/>
<path d="M225.961 116.286L215.564 106.536L246.909 77.1306L257.306 86.8812L225.961 116.286Z" fill="#561AA4"/>
<path d="M165.551 172.971L155.154 163.221L186.499 133.816L196.896 143.566L165.551 172.971Z" fill="#561AA4"/>
<path d="M105.142 229.657L94.7451 219.906L126.089 190.501L136.475 200.251L105.142 229.657Z" fill="#561AA4"/>
<path d="M65.6682 247.186L52.3789 259.664L60.6834 271.376L76.0651 256.936L65.6682 247.186Z" fill="#561AA4"/>
</svg>
