<svg width="40" height="40" viewBox="0 0 40 40" fill="none" xmlns="http://www.w3.org/2000/svg">
<path id="Vector" d="M36.6667 0H3.33333C2.44928 0 1.60143 0.351189 0.976311 0.976311C0.351189 1.60143 0 2.44928 0 3.33333V36.6667C0 37.5507 0.351189 38.3986 0.976311 39.0237C1.60143 39.6488 2.44928 40 3.33333 40H36.6667C37.5507 40 38.3986 39.6488 39.0237 39.0237C39.6488 38.3986 40 37.5507 40 36.6667V3.33333C40 2.44928 39.6488 1.60143 39.0237 0.976311C38.3986 0.351189 37.5507 0 36.6667 0ZM36.6667 36.6667H3.33333V3.33333H36.6667V36.6667ZM20 16.6667H19.6208L23.0979 10.8542C23.2101 10.6662 23.2841 10.458 23.3158 10.2414C23.3476 10.0249 23.3363 9.80416 23.2827 9.59194C23.2291 9.37972 23.1343 9.18013 23.0035 9.00457C22.8728 8.82901 22.7088 8.68092 22.5208 8.56875C22.3329 8.45658 22.1247 8.38253 21.9081 8.35082C21.6915 8.31912 21.4708 8.33038 21.2586 8.38397C21.0464 8.43755 20.8468 8.53242 20.6712 8.66314C20.4957 8.79386 20.3476 8.95788 20.2354 9.14583L13.5208 20.3958C12.6901 21.824 12.3543 23.4866 12.5655 25.1252C12.7766 26.7639 13.523 28.2869 14.6886 29.4579C15.8542 30.6288 17.3739 31.3821 19.0116 31.6007C20.6492 31.8193 22.3133 31.4911 23.7452 30.6669C25.1772 29.8427 26.2969 28.5687 26.9305 27.0428C27.5641 25.517 27.6762 23.8246 27.2492 22.2285C26.8222 20.6324 25.8802 19.222 24.5693 18.2162C23.2585 17.2105 21.6522 16.6658 20 16.6667ZM20 28.3333C19.1759 28.3333 18.3703 28.089 17.6851 27.6311C16.9999 27.1733 16.4659 26.5225 16.1505 25.7612C15.8351 24.9998 15.7526 24.162 15.9134 23.3538C16.0742 22.5455 16.471 21.8031 17.0537 21.2204C17.6364 20.6377 18.3789 20.2408 19.1871 20.0801C19.9954 19.9193 20.8332 20.0018 21.5945 20.3172C22.3559 20.6325 23.0066 21.1666 23.4645 21.8518C23.9223 22.537 24.1667 23.3426 24.1667 24.1667C24.1667 25.2717 23.7277 26.3315 22.9463 27.1129C22.1649 27.8943 21.1051 28.3333 20 28.3333Z" fill="url(#paint0_linear_5846_1187)"/>
<defs>
<linearGradient id="paint0_linear_5846_1187" x1="0" y1="20" x2="40" y2="20" gradientUnits="userSpaceOnUse">
<stop stop-color="#9A9CFE"/>
<stop offset="1" stop-color="#0868FD"/>
</linearGradient>
</defs>
</svg>
