<svg width="40" height="40" viewBox="0 0 40 40" fill="none" xmlns="http://www.w3.org/2000/svg">
<path id="Vector" d="M36.6667 0H3.33333C2.44928 0 1.60143 0.351189 0.976311 0.976311C0.351189 1.60143 0 2.44928 0 3.33333V36.6667C0 37.5507 0.351189 38.3986 0.976311 39.0237C1.60143 39.6488 2.44928 40 3.33333 40H36.6667C37.5507 40 38.3986 39.6488 39.0237 39.0237C39.6488 38.3986 40 37.5507 40 36.6667V3.33333C40 2.44928 39.6488 1.60143 39.0237 0.976311C38.3986 0.351189 37.5507 0 36.6667 0ZM36.6667 36.6667H3.33333V3.33333H36.6667V36.6667ZM18.0792 11.6667L17.2062 16.9042C17.8476 16.7452 18.5059 16.6654 19.1667 16.6667C21.1558 16.6667 23.0634 17.4568 24.47 18.8634C25.8765 20.2699 26.6667 22.1775 26.6667 24.1667C26.6667 26.1558 25.8765 28.0634 24.47 29.47C23.0634 30.8765 21.1558 31.6667 19.1667 31.6667C18.1742 31.683 17.1886 31.4996 16.2685 31.1274C15.3483 30.7552 14.5124 30.2017 13.8104 29.5C13.6511 29.3451 13.5244 29.1599 13.4377 28.9553C13.3511 28.7507 13.3062 28.5309 13.3057 28.3087C13.3052 28.0865 13.3492 27.8664 13.435 27.6615C13.5208 27.4565 13.6467 27.2708 13.8054 27.1152C13.964 26.9597 14.1521 26.8374 14.3587 26.7556C14.5653 26.6738 14.7862 26.6341 15.0083 26.6389C15.2304 26.6437 15.4494 26.6928 15.6522 26.7835C15.8551 26.8741 16.0378 27.0044 16.1896 27.1667C16.5827 27.5501 17.0487 27.851 17.56 28.0513C18.0714 28.2517 18.6177 28.3476 19.1667 28.3333C20.2717 28.3333 21.3315 27.8943 22.1129 27.1129C22.8943 26.3315 23.3333 25.2717 23.3333 24.1667C23.3333 23.0616 22.8943 22.0018 22.1129 21.2204C21.3315 20.439 20.2717 20 19.1667 20C18.6177 19.9857 18.0714 20.0816 17.56 20.282C17.0487 20.4824 16.5827 20.7832 16.1896 21.1667C15.9413 21.4196 15.6188 21.5868 15.269 21.644C14.9192 21.7011 14.5603 21.6453 14.2444 21.4845C13.9285 21.3238 13.6721 21.0665 13.5124 20.7501C13.3526 20.4337 13.298 20.0746 13.3562 19.725L15.0229 9.725C15.088 9.33607 15.2888 8.9828 15.5898 8.72799C15.8908 8.47319 16.2723 8.33335 16.6667 8.33333H25C25.442 8.33333 25.866 8.50893 26.1785 8.82149C26.4911 9.13405 26.6667 9.55797 26.6667 10C26.6667 10.442 26.4911 10.8659 26.1785 11.1785C25.866 11.4911 25.442 11.6667 25 11.6667H18.0792Z" fill="url(#paint0_linear_5846_1171)"/>
<defs>
<linearGradient id="paint0_linear_5846_1171" x1="0" y1="20" x2="40" y2="20" gradientUnits="userSpaceOnUse">
<stop stop-color="#9A9CFE"/>
<stop offset="1" stop-color="#0868FD"/>
</linearGradient>
</defs>
</svg>
