<svg width="40" height="40" viewBox="0 0 40 40" fill="none" xmlns="http://www.w3.org/2000/svg">
<path id="Vector" d="M36.6667 0H3.33333C2.44928 0 1.60143 0.351189 0.976311 0.976311C0.351189 1.60143 0 2.44928 0 3.33333V36.6667C0 37.5507 0.351189 38.3986 0.976311 39.0237C1.60143 39.6488 2.44928 40 3.33333 40H36.6667C37.5507 40 38.3986 39.6488 39.0237 39.0237C39.6488 38.3986 40 37.5507 40 36.6667V3.33333C40 2.44928 39.6488 1.60143 39.0237 0.976311C38.3986 0.351189 37.5507 0 36.6667 0ZM36.6667 36.6667H3.33333V3.33333H36.6667V36.6667ZM22.5 10V30C22.5 30.442 22.3244 30.866 22.0118 31.1785C21.6993 31.4911 21.2754 31.6667 20.8333 31.6667C20.3913 31.6667 19.9674 31.4911 19.6548 31.1785C19.3423 30.866 19.1667 30.442 19.1667 30V13.125L16.7583 14.7312C16.5761 14.8527 16.3718 14.9371 16.1569 14.9796C15.9421 15.0221 15.721 15.0219 15.5063 14.9789C15.2916 14.936 15.0874 14.8512 14.9054 14.7293C14.7235 14.6075 14.5673 14.451 14.4458 14.2687C14.3244 14.0865 14.24 13.8822 14.1975 13.6674C14.155 13.4525 14.1552 13.2314 14.1981 13.0167C14.2411 12.802 14.3259 12.5978 14.4478 12.4158C14.5696 12.2339 14.7261 12.0777 14.9083 11.9562L19.9083 8.62292C20.1587 8.4559 20.4495 8.35977 20.7501 8.34473C21.0506 8.3297 21.3497 8.39631 21.6154 8.53752C21.8811 8.67872 22.1037 8.88924 22.2594 9.14673C22.4152 9.40422 22.4983 9.69908 22.5 10Z" fill="url(#paint0_linear_5846_1161)"/>
<defs>
<linearGradient id="paint0_linear_5846_1161" x1="0" y1="20" x2="40" y2="20" gradientUnits="userSpaceOnUse">
<stop stop-color="#9A9CFE"/>
<stop offset="1" stop-color="#0868FD"/>
</linearGradient>
</defs>
</svg>
