<svg width="40" height="40" viewBox="0 0 40 40" fill="none" xmlns="http://www.w3.org/2000/svg">
<path id="Vector" d="M36.6667 0H3.33333C2.44928 0 1.60143 0.351189 0.976311 0.976311C0.351189 1.60143 0 2.44928 0 3.33333V36.6667C0 37.5507 0.351189 38.3986 0.976311 39.0237C1.60143 39.6488 2.44928 40 3.33333 40H36.6667C37.5507 40 38.3986 39.6488 39.0237 39.0237C39.6488 38.3986 40 37.5507 40 36.6667V3.33333C40 2.44928 39.6488 1.60143 39.0237 0.976311C38.3986 0.351189 37.5507 0 36.6667 0ZM36.6667 36.6667H3.33333V3.33333H36.6667V36.6667ZM26.6667 30C26.6667 30.442 26.4911 30.866 26.1785 31.1785C25.866 31.4911 25.442 31.6667 25 31.6667H15C14.6905 31.6667 14.3871 31.5805 14.1238 31.4178C13.8605 31.255 13.6477 31.0222 13.5093 30.7454C13.3709 30.4685 13.3123 30.1586 13.3401 29.8503C13.3679 29.5421 13.481 29.2476 13.6667 29L22.6604 17.0083C22.9484 16.6246 23.1501 16.1831 23.2518 15.7142C23.3535 15.2453 23.3528 14.76 23.2497 14.2914C23.1466 13.8228 22.9435 13.382 22.6544 12.9991C22.3653 12.6162 21.9969 12.3002 21.5744 12.0727C21.152 11.8453 20.6854 11.7117 20.2065 11.6811C19.7277 11.6506 19.2479 11.7237 18.8 11.8956C18.352 12.0675 17.9465 12.3341 17.611 12.6772C17.2755 13.0202 17.0181 13.4316 16.8563 13.8833C16.7087 14.3002 16.4016 14.6414 16.0025 14.8319C15.6034 15.0224 15.145 15.0465 14.7281 14.899C14.3112 14.7514 13.97 14.4443 13.7796 14.0452C13.5891 13.6461 13.565 13.1877 13.7125 12.7708C13.9413 12.1292 14.2658 11.5258 14.675 10.9812C15.2019 10.2821 15.8614 9.69358 16.6158 9.24929C17.3702 8.80501 18.2046 8.51366 19.0716 8.39188C19.9386 8.2701 20.8211 8.32027 21.6686 8.53954C22.5162 8.7588 23.3123 9.14286 24.0115 9.66979C24.7106 10.1967 25.2991 10.8562 25.7434 11.6106C26.1877 12.3649 26.479 13.1994 26.6008 14.0664C26.7226 14.9334 26.6724 15.8158 26.4532 16.6634C26.2339 17.511 25.8498 18.3071 25.3229 19.0063L18.3333 28.3333H25C25.442 28.3333 25.866 28.5089 26.1785 28.8215C26.4911 29.134 26.6667 29.558 26.6667 30Z" fill="url(#paint0_linear_5846_1177)"/>
<defs>
<linearGradient id="paint0_linear_5846_1177" x1="0" y1="20" x2="40" y2="20" gradientUnits="userSpaceOnUse">
<stop stop-color="#9A9CFE"/>
<stop offset="1" stop-color="#0868FD"/>
</linearGradient>
</defs>
</svg>
