<svg width="40" height="40" viewBox="0 0 40 40" fill="none" xmlns="http://www.w3.org/2000/svg">
<path id="Vector" d="M36.6667 0H3.33333C2.44928 0 1.60143 0.351189 0.976311 0.976311C0.351189 1.60143 0 2.44928 0 3.33333V36.6667C0 37.5507 0.351189 38.3986 0.976311 39.0237C1.60143 39.6488 2.44928 40 3.33333 40H36.6667C37.5507 40 38.3986 39.6488 39.0237 39.0237C39.6488 38.3986 40 37.5507 40 36.6667V3.33333C40 2.44928 39.6488 1.60143 39.0237 0.976311C38.3986 0.351189 37.5507 0 36.6667 0ZM36.6667 36.6667H3.33333V3.33333H36.6667V36.6667ZM28.3333 23.3333C28.3333 23.7754 28.1577 24.1993 27.8452 24.5118C27.5326 24.8244 27.1087 25 26.6667 25H25V30C25 30.442 24.8244 30.866 24.5118 31.1785C24.1993 31.4911 23.7754 31.6667 23.3333 31.6667C22.8913 31.6667 22.4674 31.4911 22.1548 31.1785C21.8423 30.866 21.6667 30.442 21.6667 30V25H13.3333C13.0692 25 12.8089 24.9373 12.5738 24.8169C12.3387 24.6966 12.1356 24.5221 11.9812 24.3079C11.8267 24.0936 11.7254 23.8458 11.6856 23.5847C11.6458 23.3236 11.6686 23.0568 11.7521 22.8062L16.7521 7.80625C16.8919 7.38688 17.1925 7.04021 17.5879 6.84252C17.9833 6.64482 18.441 6.61229 18.8604 6.75208C19.2798 6.89188 19.6265 7.19254 19.8242 7.58793C20.0218 7.98331 20.0544 8.44104 19.9146 8.86042L15.6458 21.6667H21.6667V16.6667C21.6667 16.2246 21.8423 15.8007 22.1548 15.4882C22.4674 15.1756 22.8913 15 23.3333 15C23.7754 15 24.1993 15.1756 24.5118 15.4882C24.8244 15.8007 25 16.2246 25 16.6667V21.6667H26.6667C27.1087 21.6667 27.5326 21.8423 27.8452 22.1548C28.1577 22.4674 28.3333 22.8913 28.3333 23.3333Z" fill="url(#paint0_linear_5846_1182)"/>
<defs>
<linearGradient id="paint0_linear_5846_1182" x1="0" y1="20" x2="40" y2="20" gradientUnits="userSpaceOnUse">
<stop stop-color="#9A9CFE"/>
<stop offset="1" stop-color="#0868FD"/>
</linearGradient>
</defs>
</svg>
