<svg width="40" height="40" viewBox="0 0 40 40" fill="none" xmlns="http://www.w3.org/2000/svg">
<path id="Vector" d="M36.6667 0H3.33333C2.44928 0 1.60143 0.351189 0.976311 0.976311C0.351189 1.60143 0 2.44928 0 3.33333V36.6667C0 37.5507 0.351189 38.3986 0.976311 39.0237C1.60143 39.6488 2.44928 40 3.33333 40H36.6667C37.5507 40 38.3986 39.6488 39.0237 39.0237C39.6488 38.3986 40 37.5507 40 36.6667V3.33333C40 2.44928 39.6488 1.60143 39.0237 0.976311C38.3986 0.351189 37.5507 0 36.6667 0ZM36.6667 36.6667H3.33333V3.33333H36.6667V36.6667ZM26.6667 24.1667C26.6663 25.6563 26.2223 27.112 25.3914 28.3484C24.5605 29.5847 23.3802 30.5456 22.0011 31.1085C20.622 31.6715 19.1064 31.811 17.6477 31.5093C16.189 31.2077 14.8531 30.4784 13.8104 29.4146C13.6476 29.2605 13.5175 29.0752 13.4279 28.8697C13.3383 28.6641 13.2912 28.4427 13.2892 28.2185C13.2872 27.9943 13.3305 27.772 13.4165 27.565C13.5024 27.3579 13.6292 27.1703 13.7893 27.0134C13.9495 26.8565 14.1396 26.7335 14.3484 26.6518C14.5571 26.5701 14.7802 26.5314 15.0043 26.5379C15.2284 26.5444 15.4489 26.5961 15.6525 26.6898C15.8562 26.7835 16.0389 26.9174 16.1896 27.0833C16.6704 27.5739 17.2651 27.938 17.9206 28.1431C18.5762 28.3483 19.2723 28.3882 19.947 28.2593C20.6217 28.1304 21.2541 27.8367 21.7879 27.4044C22.3216 26.972 22.7402 26.4143 23.0064 25.7811C23.2725 25.1478 23.378 24.4586 23.3134 23.7747C23.2488 23.0909 23.0161 22.4336 22.636 21.8614C22.256 21.2892 21.7404 20.8198 21.1351 20.4951C20.5298 20.1703 19.8536 20.0002 19.1667 20C18.8618 19.9999 18.5627 19.9162 18.3021 19.758C18.0415 19.5997 17.8293 19.373 17.6886 19.1026C17.5479 18.8321 17.4841 18.5282 17.5041 18.2239C17.5241 17.9197 17.6272 17.6268 17.8021 17.3771L21.7979 11.6667H15C14.558 11.6667 14.134 11.4911 13.8215 11.1785C13.5089 10.8659 13.3333 10.442 13.3333 10C13.3333 9.55797 13.5089 9.13405 13.8215 8.82149C14.134 8.50893 14.558 8.33333 15 8.33333H25C25.3049 8.33342 25.6039 8.41714 25.8645 8.57537C26.1251 8.73361 26.3374 8.96031 26.4781 9.23078C26.6188 9.50126 26.6826 9.80515 26.6626 10.1094C26.6426 10.4136 26.5395 10.7065 26.3646 10.9562L21.9896 17.2062C23.3727 17.7702 24.5563 18.7336 25.3893 19.9734C26.2224 21.2131 26.6671 22.673 26.6667 24.1667Z" fill="url(#paint0_linear_5846_1166)"/>
<defs>
<linearGradient id="paint0_linear_5846_1166" x1="0" y1="20" x2="40" y2="20" gradientUnits="userSpaceOnUse">
<stop stop-color="#9A9CFE"/>
<stop offset="1" stop-color="#0868FD"/>
</linearGradient>
</defs>
</svg>
