<svg width="70" height="70" viewBox="0 0 70 70" fill="none" xmlns="http://www.w3.org/2000/svg">
    <path d="M66.0635 66.0595H3.64844L15.3513 48.5088H54.3607L66.0635 66.0595Z" fill="#561AA4" fill-opacity="0.08"/>
    <path d="M53.8336 61.1843H6.89551L15.3508 48.5088H49.6986L54.7211 59.8095C55.0039 60.453 54.5358 61.1843 53.8336 61.1843Z" fill="white"/>
    <path d="M66.063 66.7906H3.64799C3.37493 66.7906 3.13111 66.6444 3.00433 66.4006C2.87755 66.1666 2.88731 65.8741 3.04334 65.6499L14.7462 48.0991C14.8827 47.8944 15.107 47.7773 15.3508 47.7773H54.3602C54.604 47.7773 54.8381 47.8944 54.9649 48.0991L66.6677 65.6499C66.814 65.8741 66.8335 66.1666 66.7067 66.4006C66.5799 66.6346 66.3361 66.7906 66.063 66.7906ZM5.01332 65.3281H64.6977L53.9701 49.2399H15.7409L5.01332 65.3281Z" fill="#561AA4"/>
    <path d="M51.4343 66.7901C51.132 66.7901 50.8492 66.6049 50.7419 66.3026L44.5199 48.7519C44.3834 48.3716 44.5882 47.9523 44.9685 47.8158C45.3489 47.6793 45.7682 47.8841 45.9048 48.2643L52.1268 65.8151C52.2633 66.1954 52.0585 66.6146 51.6782 66.7511C51.6001 66.7804 51.5124 66.7901 51.4343 66.7901Z" fill="#561AA4"/>
    <path d="M18.2769 66.7907C18.1989 66.7907 18.1111 66.7809 18.0331 66.7517C17.6527 66.6152 17.4577 66.1959 17.5845 65.8156L21.0368 56.0652C21.1733 55.6849 21.5927 55.4899 21.973 55.6167C22.3534 55.7532 22.5484 56.1725 22.4216 56.5527L18.9693 66.3032C18.862 66.6054 18.5792 66.7907 18.2769 66.7907Z" fill="#561AA4"/>
    <path d="M47.9827 57.0407H10.1533C9.75345 57.0407 9.42188 56.7092 9.42188 56.3094C9.42188 55.9096 9.75345 55.5781 10.1533 55.5781H47.9827C48.3825 55.5781 48.7141 55.9096 48.7141 56.3094C48.7141 56.7092 48.3825 57.0407 47.9827 57.0407Z" fill="#561AA4"/>
    <path d="M34.6992 66.7911C34.2994 66.7911 33.9678 66.4596 33.9678 66.0598V56.3094C33.9678 55.9096 34.2994 55.5781 34.6992 55.5781C35.099 55.5781 35.4306 55.9096 35.4306 56.3094V66.0598C35.4306 66.4596 35.099 66.7911 34.6992 66.7911Z" fill="#561AA4"/>
    <path d="M50.1183 10.0437C41.5947 1.52188 27.7854 1.52188 19.2716 10.0437C10.748 18.5656 10.748 32.3722 19.2716 40.8843L34.6998 56.3095L50.128 40.8843C58.6419 32.3722 58.6419 18.5559 50.128 10.0437H50.1183Z" fill="white"/>
    <path d="M50.1177 10.0438C45.7584 5.68532 40.0142 3.56948 34.2994 3.67673C35.5477 4.48602 36.7375 5.44156 37.8297 6.5336C46.3533 15.0555 46.3533 28.862 37.8297 37.3741L26.79 48.4116L34.6895 56.3094L50.1177 40.8843C58.6315 32.3722 58.6315 18.5559 50.1177 10.0438Z" fill="#561AA4" fill-opacity="0.08"/>
    <path d="M34.6998 57.0405C34.5145 57.0405 34.3292 56.9723 34.1829 56.826L18.7547 41.4009C14.4929 37.1399 12.1523 31.4847 12.1523 25.459C12.1523 19.4332 14.5027 13.778 18.7547 9.51704C23.0165 5.25611 28.6728 2.91602 34.6998 2.91602C40.7267 2.91602 46.3831 5.26586 50.6449 9.51704C54.9067 13.778 57.2472 19.4332 57.2472 25.459C57.2472 31.4847 54.9067 37.1399 50.6449 41.4009L35.2167 56.826C35.0704 56.9723 34.8851 57.0405 34.6998 57.0405ZM34.6998 4.39808C29.297 4.39808 23.9039 6.45541 19.7884 10.5603C15.6729 14.6653 13.6152 19.833 13.6152 25.4687C13.6152 31.1044 15.8095 36.3892 19.7884 40.3771L34.6998 55.2854L49.6111 40.3771C53.5901 36.3989 55.7844 31.1044 55.7844 25.4687C55.7844 19.833 53.5901 14.5482 49.6111 10.5603C45.5054 6.45541 40.1026 4.39808 34.6998 4.39808Z" fill="#561AA4"/>
    <path d="M45.2311 25.4699C45.2311 31.2812 40.511 36.0004 34.6986 36.0004C28.8862 36.0004 24.166 31.2812 24.166 25.4699C24.166 19.6587 28.8862 14.9395 34.6986 14.9395C40.511 14.9395 45.2311 19.6587 45.2311 25.4699Z" fill="white"/>
    <path d="M39.5747 18.8396C40.9401 18.8396 42.2371 19.1029 43.4269 19.5806C41.535 16.7823 38.3264 14.9395 34.6986 14.9395C28.8862 14.9395 24.166 19.6587 24.166 25.4699C24.166 29.9258 26.9357 33.7187 30.8464 35.2593C29.7054 33.5822 29.0422 31.5542 29.0422 29.3701C29.0422 23.5588 33.7623 18.8396 39.5747 18.8396Z" fill="#561AA4" fill-opacity="0.08"/>
    <path d="M34.6995 36.7305C28.4873 36.7305 23.4355 31.6798 23.4355 25.4688C23.4355 19.2577 28.4873 14.207 34.6995 14.207C40.9118 14.207 45.9635 19.2577 45.9635 25.4688C45.9635 31.6798 40.9118 36.7305 34.6995 36.7305ZM34.6995 15.6696C29.2967 15.6696 24.8984 20.067 24.8984 25.4688C24.8984 30.8705 29.2967 35.2679 34.6995 35.2679C40.1023 35.2679 44.5006 30.8705 44.5006 25.4688C44.5006 20.067 40.1023 15.6696 34.6995 15.6696Z" fill="#561AA4"/>
    <path d="M66.0629 27.7895C65.8776 27.7895 65.6923 27.7213 65.546 27.575L62.6203 24.6499C62.3375 24.3672 62.3375 23.8991 62.6203 23.6164C62.9031 23.3336 63.3712 23.3336 63.6541 23.6164L66.5798 26.5415C66.8626 26.8243 66.8626 27.2923 66.5798 27.575C66.4335 27.7213 66.2482 27.7895 66.0629 27.7895Z" fill="#561AA4"/>
    <path d="M63.1372 27.7895C62.9519 27.7895 62.7666 27.7213 62.6203 27.575C62.3375 27.2923 62.3375 26.8243 62.6203 26.5415L65.546 23.6164C65.8288 23.3336 66.297 23.3336 66.5798 23.6164C66.8626 23.8991 66.8626 24.3672 66.5798 24.6499L63.6541 27.575C63.5078 27.7213 63.3225 27.7895 63.1372 27.7895Z" fill="#561AA4"/>
    <path d="M6.57364 36.5649C6.38834 36.5649 6.20305 36.4967 6.05677 36.3504L3.13106 33.4253C2.84824 33.1425 2.84824 32.6745 3.13106 32.3918C3.41388 32.109 3.88199 32.109 4.16481 32.3918L7.09051 35.3169C7.37333 35.5996 7.37333 36.0677 7.09051 36.3504C6.94423 36.4967 6.75893 36.5649 6.57364 36.5649Z" fill="#561AA4"/>
    <path d="M3.64793 36.5649C3.46264 36.5649 3.27734 36.4967 3.13106 36.3504C2.84824 36.0677 2.84824 35.5996 3.13106 35.3169L6.05677 32.3918C6.33958 32.109 6.80769 32.109 7.09051 32.3918C7.37333 32.6745 7.37333 33.1425 7.09051 33.4253L4.16481 36.3504C4.01852 36.4967 3.83323 36.5649 3.64793 36.5649Z" fill="#561AA4"/>
    <path d="M9.49942 14.1392C9.31413 14.1392 9.12883 14.0709 8.98255 13.9246L6.05684 10.9995C5.77402 10.7168 5.77402 10.2487 6.05684 9.96598C6.33966 9.68322 6.80777 9.68322 7.09059 9.96598L10.0163 12.8911C10.2991 13.1739 10.2991 13.6419 10.0163 13.9246C9.87001 14.0709 9.68471 14.1392 9.49942 14.1392Z" fill="#561AA4"/>
    <path d="M6.57371 14.1392C6.38842 14.1392 6.20313 14.0709 6.05684 13.9246C5.77402 13.6419 5.77402 13.1739 6.05684 12.8911L8.98255 9.96598C9.26536 9.68322 9.73348 9.68322 10.0163 9.96598C10.2991 10.2487 10.2991 10.7168 10.0163 10.9995L7.09059 13.9246C6.9443 14.0709 6.75901 14.1392 6.57371 14.1392Z" fill="#561AA4"/>
    <path d="M61.1869 45.3403C61.0016 45.3403 60.8163 45.2721 60.67 45.1258L57.7443 42.2007C57.4615 41.9179 57.4615 41.4499 57.7443 41.1671C58.0272 40.8844 58.4953 40.8844 58.7781 41.1671L61.7038 44.0923C61.9866 44.375 61.9866 44.8431 61.7038 45.1258C61.5575 45.2721 61.3722 45.3403 61.1869 45.3403Z" fill="#561AA4"/>
    <path d="M58.2612 45.3403C58.0759 45.3403 57.8906 45.2721 57.7443 45.1258C57.4615 44.8431 57.4615 44.375 57.7443 44.0923L60.67 41.1671C60.9529 40.8844 61.421 40.8844 61.7038 41.1671C61.9866 41.4499 61.9866 41.9179 61.7038 42.2007L58.7781 45.1258C58.6318 45.2721 58.4465 45.3403 58.2612 45.3403Z" fill="#561AA4"/>
</svg>
