<svg width="70" height="70" viewBox="0 0 70 70" fill="none" xmlns="http://www.w3.org/2000/svg">
<path d="M51.0406 3.35938L35.4375 11.1609V65.7716L51.0406 57.9701V3.35938Z" fill="#E1ECFF"/>
<path d="M47.1398 5.31055L35.4375 11.1617V59.9212L46.0573 54.6064C46.7205 54.2749 47.1398 53.602 47.1398 52.8608V5.31055Z" fill="white"/>
<path d="M35.4374 66.5036C35.3009 66.5036 35.1741 66.4646 35.0571 66.3963C34.8426 66.2598 34.7061 66.0257 34.7061 65.7722V11.1615C34.7061 10.8885 34.8621 10.6349 35.1156 10.5081L50.7187 2.70661C50.943 2.58959 51.216 2.60909 51.4306 2.73587C51.6451 2.87239 51.7816 3.10644 51.7816 3.35999V57.9707C51.7816 58.2437 51.6256 58.4973 51.3818 58.6241L35.7788 66.4256C35.6715 66.4743 35.5642 66.5036 35.4472 66.5036H35.4374ZM36.1688 11.6101V64.5825L50.3091 57.5123V4.53997L36.1688 11.6101Z" fill="#561AA4"/>
<path d="M66.6441 11.1609L51.041 3.35938V57.9701L66.6441 65.7716V11.1609Z" fill="#E1ECFF"/>
<path d="M62.7433 9.21052L51.041 3.35938V51.1437L61.3293 56.2927C61.9729 56.6145 62.7433 56.1465 62.7433 55.4248V9.22027V9.21052Z" fill="white"/>
<path d="M66.643 66.503C66.5358 66.503 66.4187 66.4737 66.3212 66.425L50.7182 58.6234C50.4744 58.4967 50.3086 58.2431 50.3086 57.9701V3.35939C50.3086 3.10584 50.4354 2.8718 50.6597 2.73527C50.8742 2.59874 51.1473 2.58899 51.3716 2.70602L66.9746 10.5075C67.2184 10.6343 67.3744 10.8879 67.3744 11.1609V65.7716C67.3744 66.0251 67.2477 66.2592 67.0234 66.3957C66.9063 66.4737 66.7698 66.503 66.643 66.503ZM51.7714 57.5215L65.9116 64.5916V11.6193L51.7714 4.54913V57.5215Z" fill="#561AA4"/>
<path d="M35.438 11.1609L19.835 3.35938V57.9701L35.438 65.7716V11.1609Z" fill="#E1ECFF"/>
<path d="M31.5373 9.21052L19.835 3.35938V53.0941L30.1232 58.2431C30.7668 58.5649 31.5373 58.0968 31.5373 57.3752V9.22027V9.21052Z" fill="white"/>
<path d="M35.437 66.503C35.3297 66.503 35.2127 66.4737 35.1152 66.425L19.5121 58.6234C19.2683 58.4967 19.1025 58.2431 19.1025 57.9701V3.35939C19.1025 3.10584 19.2293 2.8718 19.4536 2.73527C19.6682 2.59874 19.9412 2.58899 20.1655 2.70602L35.7685 10.5075C36.0123 10.6343 36.1684 10.8879 36.1684 11.1609V65.7716C36.1684 66.0251 36.0416 66.2592 35.8173 66.3957C35.7003 66.4737 35.5638 66.503 35.437 66.503ZM20.5653 57.5215L34.7056 64.5916V11.6193L20.5653 4.54913V57.5215Z" fill="#561AA4"/>
<path d="M19.8345 3.35938L4.23145 11.1609V65.7716L19.8345 57.9701V3.35938Z" fill="#E1ECFF"/>
<path d="M13.9834 6.28516L4.23145 11.1611V56.9951L12.9009 52.6555C13.564 52.3239 13.9834 51.651 13.9834 50.9099V6.28516Z" fill="white"/>
<path d="M4.23139 66.5016C4.09487 66.5016 3.96809 66.4626 3.85107 66.3944C3.63653 66.2578 3.5 66.0238 3.5 65.7702V11.1596C3.5 10.8865 3.65603 10.633 3.90958 10.5062L19.5126 2.70466C19.7369 2.58764 20.01 2.60714 20.2245 2.73392C20.4391 2.87044 20.5756 3.10449 20.5756 3.35804V57.9687C20.5756 58.2418 20.4196 58.4953 20.1758 58.6221L4.57271 66.4236C4.46544 66.4724 4.35817 66.5016 4.24115 66.5016H4.23139ZM4.96279 11.6082V64.5805L19.1031 57.5104V4.53802L4.96279 11.6082Z" fill="#561AA4"/>
<path d="M26.1154 14.4182C22.6437 10.9465 17.0168 10.9465 13.5452 14.4182C10.0735 17.8899 10.0735 23.5167 13.5452 26.9884L19.8254 33.2687L26.1056 26.9884C29.5773 23.5167 29.5773 17.8899 26.1056 14.4182H26.1154Z" fill="white"/>
<path d="M26.1146 14.4175C24.3397 12.6427 21.9993 11.7845 19.6685 11.8235C20.1756 12.1551 20.6632 12.5452 21.1021 12.984C24.5738 16.4557 24.5738 22.0825 21.1021 25.5542L16.6064 30.0499L19.8246 33.268L26.1048 26.9878C29.5765 23.5161 29.5765 17.8892 26.1048 14.4175H26.1146Z" fill="#E1ECFF"/>
<path d="M19.8346 34.0007C19.6493 34.0007 19.464 33.9325 19.3178 33.7862L13.0375 27.506C9.28306 23.7515 9.28306 17.6565 13.0375 13.9021C16.792 10.1573 22.887 10.1476 26.6415 13.9021C30.3959 17.6565 30.3959 23.7515 26.6415 27.506L20.3612 33.7862C20.2149 33.9325 20.0297 34.0007 19.8444 34.0007H19.8346ZM19.8346 12.5465C17.7477 12.5465 15.6608 13.3462 14.0712 14.9358C10.8921 18.1149 10.8921 23.2931 14.0712 26.4723L19.8346 32.2356L25.598 26.4723C28.7771 23.2931 28.7771 18.1149 25.598 14.9358C24.0084 13.3462 21.9215 12.5465 19.8346 12.5465Z" fill="#561AA4"/>
<path d="M19.835 24.1115C21.7201 24.1115 23.2482 22.5834 23.2482 20.6983C23.2482 18.8133 21.7201 17.2852 19.835 17.2852C17.95 17.2852 16.4219 18.8133 16.4219 20.6983C16.4219 22.5834 17.95 24.1115 19.835 24.1115Z" fill="white"/>
<path d="M19.835 24.8419C17.553 24.8419 15.6904 22.9792 15.6904 20.6973C15.6904 18.4153 17.553 16.5527 19.835 16.5527C22.1169 16.5527 23.9796 18.4153 23.9796 20.6973C23.9796 22.9792 22.1169 24.8419 19.835 24.8419ZM19.835 18.0155C18.3527 18.0155 17.1532 19.215 17.1532 20.6973C17.1532 22.1796 18.3527 23.3791 19.835 23.3791C21.3173 23.3791 22.5168 22.1796 22.5168 20.6973C22.5168 19.215 21.3173 18.0155 19.835 18.0155Z" fill="#561AA4"/>
<path d="M57.3205 21.2444C53.8488 17.7727 48.2219 17.7727 44.7502 21.2444C41.2786 24.7161 41.2786 30.3429 44.7502 33.8146L51.0305 40.0948L57.3107 33.8146C60.7824 30.3429 60.7824 24.7161 57.3107 21.2444H57.3205Z" fill="white"/>
<path d="M57.3206 21.2437C55.5458 19.4689 53.2053 18.6107 50.8746 18.6497C51.3817 18.9813 51.8693 19.3714 52.3081 19.8102C55.7798 23.2819 55.7798 28.9087 52.3081 32.3804L47.8125 36.876L51.0306 40.0942L57.3109 33.8139C60.7825 30.3423 60.7825 24.7154 57.3109 21.2437H57.3206Z" fill="#E1ECFF"/>
<path d="M51.0407 40.8267C50.8554 40.8267 50.6701 40.7584 50.5238 40.6121L44.2436 34.3319C40.4891 30.5774 40.4891 24.4825 44.2436 20.728C47.9883 16.9735 54.093 16.9735 57.8475 20.728C61.602 24.4825 61.602 30.5774 57.8475 34.3319L51.5673 40.6121C51.421 40.7584 51.2357 40.8267 51.0504 40.8267H51.0407ZM51.0407 19.3725C48.9538 19.3725 46.8669 20.1721 45.2773 21.7617C42.0982 24.9408 42.0982 30.1191 45.2773 33.2982L51.0407 39.0616L56.8041 33.2982C59.9832 30.1191 59.9832 24.9408 56.8041 21.7617C55.2145 20.1721 53.1276 19.3725 51.0407 19.3725Z" fill="#561AA4"/>
<path d="M51.0411 30.9377C52.9261 30.9377 54.4543 29.4095 54.4543 27.5245C54.4543 25.6395 52.9261 24.1113 51.0411 24.1113C49.1561 24.1113 47.6279 25.6395 47.6279 27.5245C47.6279 29.4095 49.1561 30.9377 51.0411 30.9377Z" fill="white"/>
<path d="M51.0401 31.668C48.7581 31.668 46.8955 29.8054 46.8955 27.5235C46.8955 25.2415 48.7581 23.3789 51.0401 23.3789C53.322 23.3789 55.1846 25.2415 55.1846 27.5235C55.1846 29.8054 53.322 31.668 51.0401 31.668ZM51.0401 24.8417C49.5578 24.8417 48.3583 26.0412 48.3583 27.5235C48.3583 29.0058 49.5578 30.2052 51.0401 30.2052C52.5224 30.2052 53.7218 29.0058 53.7218 27.5235C53.7218 26.0412 52.5224 24.8417 51.0401 24.8417Z" fill="#561AA4"/>
<path d="M41.7179 38.7971C38.2462 35.3254 32.6194 35.3254 29.1477 38.7971C25.676 42.2688 25.676 47.8956 29.1477 51.3673L35.4279 57.6476L41.7082 51.3673C45.1798 47.8956 45.1798 42.2688 41.7082 38.7971H41.7179Z" fill="white"/>
<path d="M41.7171 38.7984C39.9422 37.0236 37.6018 36.1654 35.2711 36.2044C35.7782 36.536 36.2658 36.926 36.7046 37.3649C40.1763 40.8366 40.1763 46.4634 36.7046 49.9351L32.209 54.4307L35.4271 57.6488L41.7073 51.3686C45.179 47.8969 45.179 42.2701 41.7073 38.7984H41.7171Z" fill="#E1ECFF"/>
<path d="M35.4372 58.3794C35.2421 58.3794 35.0568 58.3014 34.9203 58.1648L28.6401 51.8846C24.8856 48.1301 24.8856 42.0352 28.6401 38.2807C32.3848 34.5262 38.4895 34.5262 42.244 38.2807C45.9985 42.0352 45.9985 48.1301 42.244 51.8846L35.9638 58.1648C35.8272 58.3014 35.6419 58.3794 35.4469 58.3794H35.4372ZM35.4372 36.9252C33.3503 36.9252 31.2633 37.7248 29.6738 39.3144C26.4947 42.4935 26.4947 47.6718 29.6738 50.8509L35.4372 56.6143L41.2005 50.8509C44.3797 47.6718 44.3797 42.4935 41.2005 39.3144C39.611 37.7248 37.5241 36.9252 35.4372 36.9252Z" fill="#561AA4"/>
<path d="M35.4376 48.4904C37.3226 48.4904 38.8507 46.9623 38.8507 45.0772C38.8507 43.1922 37.3226 41.6641 35.4376 41.6641C33.5525 41.6641 32.0244 43.1922 32.0244 45.0772C32.0244 46.9623 33.5525 48.4904 35.4376 48.4904Z" fill="white"/>
<path d="M35.4375 49.2227C33.1556 49.2227 31.293 47.3601 31.293 45.0782C31.293 42.7962 33.1556 40.9336 35.4375 40.9336C37.7195 40.9336 39.5821 42.7962 39.5821 45.0782C39.5821 47.3601 37.7195 49.2227 35.4375 49.2227ZM35.4375 42.3964C33.9552 42.3964 32.7558 43.5959 32.7558 45.0782C32.7558 46.5604 33.9552 47.7599 35.4375 47.7599C36.9198 47.7599 38.1193 46.5604 38.1193 45.0782C38.1193 43.5959 36.9198 42.3964 35.4375 42.3964Z" fill="#561AA4"/>
<path d="M61.1818 56.6742C62.259 56.6742 63.1322 55.801 63.1322 54.7238C63.1322 53.6467 62.259 52.7734 61.1818 52.7734C60.1047 52.7734 59.2314 53.6467 59.2314 54.7238C59.2314 55.801 60.1047 56.6742 61.1818 56.6742Z" fill="white"/>
<path d="M61.1818 57.4046C59.6995 57.4046 58.5 56.2051 58.5 54.7228C58.5 53.2405 59.6995 52.041 61.1818 52.041C62.6641 52.041 63.8635 53.2405 63.8635 54.7228C63.8635 56.2051 62.6641 57.4046 61.1818 57.4046ZM61.1818 53.5038C60.5089 53.5038 59.9628 54.0499 59.9628 54.7228C59.9628 55.3957 60.5089 55.9418 61.1818 55.9418C61.8547 55.9418 62.4008 55.3957 62.4008 54.7228C62.4008 54.0499 61.8547 53.5038 61.1818 53.5038Z" fill="#561AA4"/>
<path d="M57.2814 46.8148C58.3586 46.8148 59.2318 45.9416 59.2318 44.8644C59.2318 43.7873 58.3586 42.9141 57.2814 42.9141C56.2043 42.9141 55.3311 43.7873 55.3311 44.8644C55.3311 45.9416 56.2043 46.8148 57.2814 46.8148Z" fill="white"/>
<path d="M57.2814 47.5452C55.7991 47.5452 54.5996 46.3457 54.5996 44.8634C54.5996 43.3811 55.7991 42.1816 57.2814 42.1816C58.7637 42.1816 59.9632 43.3811 59.9632 44.8634C59.9632 46.3457 58.7637 47.5452 57.2814 47.5452ZM57.2814 43.6444C56.6085 43.6444 56.0624 44.1905 56.0624 44.8634C56.0624 45.5363 56.6085 46.0824 57.2814 46.0824C57.9543 46.0824 58.5004 45.5363 58.5004 44.8634C58.5004 44.1905 57.9543 43.6444 57.2814 43.6444Z" fill="#561AA4"/>
<path d="M42.0197 17.139C43.0969 17.139 43.9701 16.2658 43.9701 15.1887C43.9701 14.1115 43.0969 13.2383 42.0197 13.2383C40.9426 13.2383 40.0693 14.1115 40.0693 15.1887C40.0693 16.2658 40.9426 17.139 42.0197 17.139Z" fill="white"/>
<path d="M42.0197 17.8596C40.5374 17.8596 39.3379 16.6602 39.3379 15.1779C39.3379 13.6956 40.5374 12.4961 42.0197 12.4961C43.502 12.4961 44.7014 13.6956 44.7014 15.1779C44.7014 16.6602 43.502 17.8596 42.0197 17.8596ZM42.0197 13.9589C41.3468 13.9589 40.8007 14.505 40.8007 15.1779C40.8007 15.8507 41.3468 16.3969 42.0197 16.3969C42.6925 16.3969 43.2387 15.8507 43.2387 15.1779C43.2387 14.505 42.6925 13.9589 42.0197 13.9589Z" fill="#561AA4"/>
<path d="M10.4826 41.1879C11.5598 41.1879 12.433 40.3147 12.433 39.2375C12.433 38.1603 11.5598 37.2871 10.4826 37.2871C9.40544 37.2871 8.53223 38.1603 8.53223 39.2375C8.53223 40.3147 9.40544 41.1879 10.4826 41.1879Z" fill="white"/>
<path d="M10.4826 41.9182C9.00027 41.9182 7.80078 40.7188 7.80078 39.2365C7.80078 37.7542 9.00027 36.5547 10.4826 36.5547C11.9648 36.5547 13.1643 37.7542 13.1643 39.2365C13.1643 40.7188 11.9648 41.9182 10.4826 41.9182ZM10.4826 38.0175C9.80967 38.0175 9.26357 38.5636 9.26357 39.2365C9.26357 39.9093 9.80967 40.4555 10.4826 40.4555C11.1554 40.4555 11.7015 39.9093 11.7015 39.2365C11.7015 38.5636 11.1554 38.0175 10.4826 38.0175Z" fill="#561AA4"/>
<path d="M12.881 54.0687C13.9582 54.0687 14.8314 53.1955 14.8314 52.1184C14.8314 51.0412 13.9582 50.168 12.881 50.168C11.8039 50.168 10.9307 51.0412 10.9307 52.1184C10.9307 53.1955 11.8039 54.0687 12.881 54.0687Z" fill="white"/>
<path d="M12.881 54.801C11.3987 54.801 10.1992 53.6016 10.1992 52.1193C10.1992 50.637 11.3987 49.4375 12.881 49.4375C14.3633 49.4375 15.5628 50.637 15.5628 52.1193C15.5628 53.6016 14.3633 54.801 12.881 54.801ZM12.881 50.9003C12.2081 50.9003 11.662 51.4464 11.662 52.1193C11.662 52.7922 12.2081 53.3383 12.881 53.3383C13.5539 53.3383 14.1 52.7922 14.1 52.1193C14.1 51.4464 13.5539 50.9003 12.881 50.9003Z" fill="#561AA4"/>
</svg>
