<svg width="70" height="70" viewBox="0 0 70 70" fill="none" xmlns="http://www.w3.org/2000/svg">
    <path d="M51.0406 3.35938L35.4375 11.1609V65.7716L51.0406 57.9701V3.35938Z" fill="#561AA4" fill-opacity="0.08"/>
    <path d="M47.1398 5.30957L35.4375 11.1607V59.9202L46.0573 54.6055C46.7205 54.2739 47.1398 53.601 47.1398 52.8599V5.30957Z" fill="white"/>
    <path d="M35.4374 66.5026C35.3009 66.5026 35.1741 66.4636 35.0571 66.3953C34.8426 66.2588 34.7061 66.0248 34.7061 65.7712V11.1605C34.7061 10.8875 34.8621 10.6339 35.1156 10.5072L50.7187 2.70564C50.943 2.58861 51.216 2.60812 51.4306 2.73489C51.6451 2.87142 51.7816 3.10546 51.7816 3.35901V57.9697C51.7816 58.2428 51.6256 58.4963 51.3818 58.6231L35.7788 66.4246C35.6715 66.4734 35.5642 66.5026 35.4472 66.5026H35.4374ZM36.1688 11.6091V64.5815L50.3091 57.5114V4.53899L36.1688 11.6091Z" fill="#561AA4"/>
    <path d="M66.6436 11.1609L51.0405 3.35938V57.9701L66.6436 65.7716V11.1609Z" fill="#561AA4" fill-opacity="0.08"/>
    <path d="M62.7428 9.21052L51.0405 3.35938V51.1437L61.3288 56.2927C61.9724 56.6145 62.7428 56.1465 62.7428 55.4248V9.22027V9.21052Z" fill="white"/>
    <path d="M66.6435 66.503C66.5363 66.503 66.4192 66.4737 66.3217 66.425L50.7187 58.6234C50.4749 58.4967 50.3091 58.2431 50.3091 57.9701V3.35939C50.3091 3.10584 50.4359 2.8718 50.6602 2.73527C50.8747 2.59874 51.1477 2.58899 51.372 2.70602L66.9751 10.5075C67.2189 10.6343 67.3749 10.8879 67.3749 11.1609V65.7716C67.3749 66.0251 67.2481 66.2592 67.0239 66.3957C66.9068 66.4737 66.7703 66.503 66.6435 66.503ZM51.7719 57.5215L65.9121 64.5916V11.6193L51.7719 4.54913V57.5215Z" fill="#561AA4"/>
    <path d="M35.4375 11.1609L19.8345 3.35938V57.9701L35.4375 65.7716V11.1609Z" fill="#561AA4" fill-opacity="0.08"/>
    <path d="M31.5368 9.21052L19.8345 3.35938V53.0941L30.1227 58.2431C30.7664 58.5649 31.5368 58.0968 31.5368 57.3752V9.22027V9.21052Z" fill="white"/>
    <path d="M35.4375 66.503C35.3302 66.503 35.2132 66.4737 35.1157 66.425L19.5126 58.6234C19.2688 58.4967 19.103 58.2431 19.103 57.9701V3.35939C19.103 3.10584 19.2298 2.8718 19.4541 2.73527C19.6686 2.59874 19.9417 2.58899 20.166 2.70602L35.769 10.5075C36.0128 10.6343 36.1689 10.8879 36.1689 11.1609V65.7716C36.1689 66.0251 36.0421 66.2592 35.8178 66.3957C35.7008 66.4737 35.5642 66.503 35.4375 66.503ZM20.5658 57.5215L34.7061 64.5916V11.6193L20.5658 4.54913V57.5215Z" fill="#561AA4"/>
    <path d="M19.8345 3.35938L4.23145 11.1609V65.7716L19.8345 57.9701V3.35938Z" fill="#561AA4" fill-opacity="0.08"/>
    <path d="M13.9834 6.28516L4.23145 11.1611V56.9951L12.9009 52.6555C13.564 52.3239 13.9834 51.651 13.9834 50.9099V6.28516Z" fill="white"/>
    <path d="M4.23139 66.5016C4.09487 66.5016 3.96809 66.4626 3.85107 66.3944C3.63653 66.2578 3.5 66.0238 3.5 65.7702V11.1596C3.5 10.8865 3.65603 10.633 3.90958 10.5062L19.5126 2.70466C19.7369 2.58764 20.01 2.60714 20.2245 2.73392C20.4391 2.87044 20.5756 3.10449 20.5756 3.35804V57.9687C20.5756 58.2418 20.4196 58.4953 20.1758 58.6221L4.57271 66.4236C4.46544 66.4724 4.35817 66.5016 4.24115 66.5016H4.23139ZM4.96279 11.6082V64.5805L19.1031 57.5104V4.53802L4.96279 11.6082Z" fill="#561AA4"/>
    <path d="M26.1149 14.4182C22.6432 10.9465 17.0164 10.9465 13.5447 14.4182C10.073 17.8899 10.073 23.5167 13.5447 26.9884L19.8249 33.2687L26.1051 26.9884C29.5768 23.5167 29.5768 17.8899 26.1051 14.4182H26.1149Z" fill="white"/>
    <path d="M26.1146 14.4175C24.3397 12.6427 21.9993 11.7845 19.6685 11.8235C20.1756 12.1551 20.6632 12.5452 21.1021 12.984C24.5738 16.4557 24.5738 22.0825 21.1021 25.5542L16.6064 30.0499L19.8246 33.268L26.1048 26.9878C29.5765 23.5161 29.5765 17.8892 26.1048 14.4175H26.1146Z" fill="#561AA4" fill-opacity="0.08"/>
    <path d="M19.8341 33.9998C19.6488 33.9998 19.4636 33.9315 19.3173 33.7852L13.0371 27.505C9.28257 23.7505 9.28257 17.6556 13.0371 13.9011C16.7915 10.1563 22.8865 10.1466 26.641 13.9011C30.3955 17.6556 30.3955 23.7505 26.641 27.505L20.3607 33.7852C20.2145 33.9315 20.0292 33.9998 19.8439 33.9998H19.8341ZM19.8341 12.5456C17.7472 12.5456 15.6603 13.3452 14.0708 14.9348C10.8916 18.1139 10.8916 23.2922 14.0708 26.4713L19.8341 32.2347L25.5975 26.4713C28.7766 23.2922 28.7766 18.1139 25.5975 14.9348C24.008 13.3452 21.921 12.5456 19.8341 12.5456Z" fill="#561AA4"/>
    <path d="M19.835 24.1115C21.7201 24.1115 23.2482 22.5834 23.2482 20.6983C23.2482 18.8133 21.7201 17.2852 19.835 17.2852C17.95 17.2852 16.4219 18.8133 16.4219 20.6983C16.4219 22.5834 17.95 24.1115 19.835 24.1115Z" fill="white"/>
    <path d="M19.835 24.8419C17.553 24.8419 15.6904 22.9792 15.6904 20.6973C15.6904 18.4153 17.553 16.5527 19.835 16.5527C22.1169 16.5527 23.9796 18.4153 23.9796 20.6973C23.9796 22.9792 22.1169 24.8419 19.835 24.8419ZM19.835 18.0155C18.3527 18.0155 17.1532 19.215 17.1532 20.6973C17.1532 22.1796 18.3527 23.3791 19.835 23.3791C21.3173 23.3791 22.5168 22.1796 22.5168 20.6973C22.5168 19.215 21.3173 18.0155 19.835 18.0155Z" fill="#561AA4"/>
    <path d="M57.3209 21.2444C53.8493 17.7727 48.2224 17.7727 44.7507 21.2444C41.2791 24.7161 41.2791 30.3429 44.7507 33.8146L51.031 40.0948L57.3112 33.8146C60.7829 30.3429 60.7829 24.7161 57.3112 21.2444H57.3209Z" fill="white"/>
    <path d="M57.3206 21.2447C55.5458 19.4698 53.2053 18.6117 50.8746 18.6507C51.3817 18.9823 51.8693 19.3723 52.3081 19.8112C55.7798 23.2828 55.7798 28.9097 52.3081 32.3814L47.8125 36.877L51.0306 40.0951L57.3109 33.8149C60.7825 30.3432 60.7825 24.7164 57.3109 21.2447H57.3206Z" fill="#561AA4" fill-opacity="0.08"/>
    <path d="M51.0407 40.8267C50.8554 40.8267 50.6701 40.7584 50.5238 40.6121L44.2436 34.3319C40.4891 30.5774 40.4891 24.4825 44.2436 20.728C47.9883 16.9735 54.093 16.9735 57.8475 20.728C61.602 24.4825 61.602 30.5774 57.8475 34.3319L51.5673 40.6121C51.421 40.7584 51.2357 40.8267 51.0504 40.8267H51.0407ZM51.0407 19.3725C48.9538 19.3725 46.8669 20.1721 45.2773 21.7617C42.0982 24.9408 42.0982 30.1191 45.2773 33.2982L51.0407 39.0616L56.8041 33.2982C59.9832 30.1191 59.9832 24.9408 56.8041 21.7617C55.2145 20.1721 53.1276 19.3725 51.0407 19.3725Z" fill="#561AA4"/>
    <path d="M51.0411 30.9377C52.9261 30.9377 54.4543 29.4095 54.4543 27.5245C54.4543 25.6395 52.9261 24.1113 51.0411 24.1113C49.1561 24.1113 47.6279 25.6395 47.6279 27.5245C47.6279 29.4095 49.1561 30.9377 51.0411 30.9377Z" fill="white"/>
    <path d="M51.0401 31.669C48.7581 31.669 46.8955 29.8064 46.8955 27.5244C46.8955 25.2425 48.7581 23.3799 51.0401 23.3799C53.322 23.3799 55.1846 25.2425 55.1846 27.5244C55.1846 29.8064 53.322 31.669 51.0401 31.669ZM51.0401 24.8427C49.5578 24.8427 48.3583 26.0422 48.3583 27.5244C48.3583 29.0067 49.5578 30.2062 51.0401 30.2062C52.5224 30.2062 53.7218 29.0067 53.7218 27.5244C53.7218 26.0422 52.5224 24.8427 51.0401 24.8427Z" fill="#561AA4"/>
    <path d="M41.7179 38.7971C38.2462 35.3254 32.6194 35.3254 29.1477 38.7971C25.676 42.2688 25.676 47.8956 29.1477 51.3673L35.4279 57.6476L41.7082 51.3673C45.1798 47.8956 45.1798 42.2688 41.7082 38.7971H41.7179Z" fill="white"/>
    <path d="M41.7171 38.7974C39.9422 37.0226 37.6018 36.1644 35.2711 36.2034C35.7782 36.535 36.2658 36.9251 36.7046 37.3639C40.1763 40.8356 40.1763 46.4624 36.7046 49.9341L32.209 54.4297L35.4271 57.6479L41.7073 51.3676C45.179 47.896 45.179 42.2691 41.7073 38.7974H41.7171Z" fill="#561AA4" fill-opacity="0.08"/>
    <path d="M35.4372 58.3794C35.2421 58.3794 35.0568 58.3014 34.9203 58.1648L28.6401 51.8846C24.8856 48.1301 24.8856 42.0352 28.6401 38.2807C32.3848 34.5262 38.4895 34.5262 42.244 38.2807C45.9985 42.0352 45.9985 48.1301 42.244 51.8846L35.9638 58.1648C35.8272 58.3014 35.6419 58.3794 35.4469 58.3794H35.4372ZM35.4372 36.9252C33.3503 36.9252 31.2633 37.7248 29.6738 39.3144C26.4947 42.4935 26.4947 47.6718 29.6738 50.8509L35.4372 56.6143L41.2005 50.8509C44.3797 47.6718 44.3797 42.4935 41.2005 39.3144C39.611 37.7248 37.5241 36.9252 35.4372 36.9252Z" fill="#561AA4"/>
    <path d="M35.4376 48.4914C37.3226 48.4914 38.8507 46.9632 38.8507 45.0782C38.8507 43.1932 37.3226 41.665 35.4376 41.665C33.5525 41.665 32.0244 43.1932 32.0244 45.0782C32.0244 46.9632 33.5525 48.4914 35.4376 48.4914Z" fill="white"/>
    <path d="M35.4375 49.2217C33.1556 49.2217 31.293 47.3591 31.293 45.0772C31.293 42.7952 33.1556 40.9326 35.4375 40.9326C37.7195 40.9326 39.5821 42.7952 39.5821 45.0772C39.5821 47.3591 37.7195 49.2217 35.4375 49.2217ZM35.4375 42.3954C33.9552 42.3954 32.7558 43.5949 32.7558 45.0772C32.7558 46.5595 33.9552 47.759 35.4375 47.759C36.9198 47.759 38.1193 46.5595 38.1193 45.0772C38.1193 43.5949 36.9198 42.3954 35.4375 42.3954Z" fill="#561AA4"/>
    <path d="M61.1818 56.6732C62.259 56.6732 63.1322 55.8 63.1322 54.7228C63.1322 53.6457 62.259 52.7725 61.1818 52.7725C60.1047 52.7725 59.2314 53.6457 59.2314 54.7228C59.2314 55.8 60.1047 56.6732 61.1818 56.6732Z" fill="white"/>
    <path d="M61.1818 57.4046C59.6995 57.4046 58.5 56.2051 58.5 54.7228C58.5 53.2405 59.6995 52.041 61.1818 52.041C62.6641 52.041 63.8635 53.2405 63.8635 54.7228C63.8635 56.2051 62.6641 57.4046 61.1818 57.4046ZM61.1818 53.5038C60.5089 53.5038 59.9628 54.0499 59.9628 54.7228C59.9628 55.3957 60.5089 55.9418 61.1818 55.9418C61.8547 55.9418 62.4008 55.3957 62.4008 54.7228C62.4008 54.0499 61.8547 53.5038 61.1818 53.5038Z" fill="#561AA4"/>
    <path d="M57.2814 46.8138C58.3586 46.8138 59.2318 45.9406 59.2318 44.8635C59.2318 43.7863 58.3586 42.9131 57.2814 42.9131C56.2043 42.9131 55.3311 43.7863 55.3311 44.8635C55.3311 45.9406 56.2043 46.8138 57.2814 46.8138Z" fill="white"/>
    <path d="M57.2814 47.5452C55.7991 47.5452 54.5996 46.3457 54.5996 44.8634C54.5996 43.3811 55.7991 42.1816 57.2814 42.1816C58.7637 42.1816 59.9632 43.3811 59.9632 44.8634C59.9632 46.3457 58.7637 47.5452 57.2814 47.5452ZM57.2814 43.6444C56.6085 43.6444 56.0624 44.1905 56.0624 44.8634C56.0624 45.5363 56.6085 46.0824 57.2814 46.0824C57.9543 46.0824 58.5004 45.5363 58.5004 44.8634C58.5004 44.1905 57.9543 43.6444 57.2814 43.6444Z" fill="#561AA4"/>
    <path d="M42.0202 17.1381C43.0974 17.1381 43.9706 16.2649 43.9706 15.1877C43.9706 14.1105 43.0974 13.2373 42.0202 13.2373C40.943 13.2373 40.0698 14.1105 40.0698 15.1877C40.0698 16.2649 40.943 17.1381 42.0202 17.1381Z" fill="white"/>
    <path d="M42.0202 17.8606C40.5379 17.8606 39.3384 16.6611 39.3384 15.1788C39.3384 13.6966 40.5379 12.4971 42.0202 12.4971C43.5024 12.4971 44.7019 13.6966 44.7019 15.1788C44.7019 16.6611 43.5024 17.8606 42.0202 17.8606ZM42.0202 13.9599C41.3473 13.9599 40.8012 14.506 40.8012 15.1788C40.8012 15.8517 41.3473 16.3978 42.0202 16.3978C42.693 16.3978 43.2391 15.8517 43.2391 15.1788C43.2391 14.506 42.693 13.9599 42.0202 13.9599Z" fill="#561AA4"/>
    <path d="M10.4826 41.1879C11.5598 41.1879 12.433 40.3147 12.433 39.2375C12.433 38.1603 11.5598 37.2871 10.4826 37.2871C9.40544 37.2871 8.53223 38.1603 8.53223 39.2375C8.53223 40.3147 9.40544 41.1879 10.4826 41.1879Z" fill="white"/>
    <path d="M10.4826 41.9182C9.00027 41.9182 7.80078 40.7188 7.80078 39.2365C7.80078 37.7542 9.00027 36.5547 10.4826 36.5547C11.9648 36.5547 13.1643 37.7542 13.1643 39.2365C13.1643 40.7188 11.9648 41.9182 10.4826 41.9182ZM10.4826 38.0175C9.80967 38.0175 9.26357 38.5636 9.26357 39.2365C9.26357 39.9093 9.80967 40.4555 10.4826 40.4555C11.1554 40.4555 11.7015 39.9093 11.7015 39.2365C11.7015 38.5636 11.1554 38.0175 10.4826 38.0175Z" fill="#561AA4"/>
    <path d="M12.881 54.0697C13.9582 54.0697 14.8314 53.1965 14.8314 52.1193C14.8314 51.0422 13.9582 50.1689 12.881 50.1689C11.8039 50.1689 10.9307 51.0422 10.9307 52.1193C10.9307 53.1965 11.8039 54.0697 12.881 54.0697Z" fill="white"/>
    <path d="M12.881 54.8001C11.3987 54.8001 10.1992 53.6006 10.1992 52.1183C10.1992 50.636 11.3987 49.4365 12.881 49.4365C14.3633 49.4365 15.5628 50.636 15.5628 52.1183C15.5628 53.6006 14.3633 54.8001 12.881 54.8001ZM12.881 50.8993C12.2081 50.8993 11.662 51.4454 11.662 52.1183C11.662 52.7912 12.2081 53.3373 12.881 53.3373C13.5539 53.3373 14.1 52.7912 14.1 52.1183C14.1 51.4454 13.5539 50.8993 12.881 50.8993Z" fill="#561AA4"/>
</svg>
