<svg width="70" height="70" viewBox="0 0 70 70" fill="none" xmlns="http://www.w3.org/2000/svg">
    <g clip-path="url(#clip0_1288_1436)">
        <path d="M69.1987 69.1985H0.801758L27.5193 35H42.4811L69.1987 69.1985Z" fill="#561AA4" fill-opacity="0.08"/>
        <path d="M51.4685 63.855H4.97998L27.5189 35H39.2746L52.4304 62.3267C52.7723 63.0321 52.2594 63.855 51.4685 63.855Z" fill="white"/>
        <path d="M69.1986 69.9998H0.801697C0.491773 69.9998 0.21391 69.8288 0.0856661 69.5509C-0.0532652 69.2731 -0.0105171 68.9524 0.171162 68.7066L26.8887 34.5082C27.0383 34.3158 27.2735 34.1982 27.5193 34.1982H42.4811C42.7269 34.1982 42.962 34.3158 43.1116 34.5082L69.8292 68.7066C70.0215 68.9524 70.0536 69.2731 69.9147 69.5509C69.7864 69.8288 69.4979 69.9998 69.1986 69.9998ZM2.4475 68.3967H67.5528L42.0857 35.8013H27.904L2.4475 68.3967Z" fill="#561AA4"/>
        <path d="M34.9999 38.7407C41.4924 38.7407 46.7556 37.066 46.7556 35.0002C46.7556 32.9344 41.4924 31.2598 34.9999 31.2598C28.5074 31.2598 23.2441 32.9344 23.2441 35.0002C23.2441 37.066 28.5074 38.7407 34.9999 38.7407Z" fill="white"/>
        <path d="M35.0001 39.542C28.7589 39.542 22.4429 37.9817 22.4429 35C22.4429 32.0183 28.7589 30.458 35.0001 30.458C41.2413 30.458 47.5574 32.0183 47.5574 35C47.5574 37.9817 41.2413 39.542 35.0001 39.542ZM35.0001 32.0611C27.8078 32.0611 24.0459 33.974 24.0459 35C24.0459 36.1969 28.31 37.9389 35.0001 37.9389C41.6902 37.9389 45.9543 36.1969 45.9543 35C45.9543 33.974 42.1925 32.0611 35.0001 32.0611Z" fill="#561AA4"/>
        <path d="M45.0138 4.94781C39.4779 -0.588071 30.5115 -0.588071 24.9756 4.94781C19.4398 10.4837 19.4398 19.4501 24.9756 24.986L34.9894 34.9997L45.0031 24.986C50.539 19.4501 50.539 10.4837 45.0031 4.94781H45.0138Z" fill="white"/>
        <path d="M45.0136 4.94858C42.1816 2.11652 38.4518 0.748578 34.7434 0.8127C35.5556 1.34705 36.3251 1.95621 37.0411 2.67224C42.577 8.20812 42.577 17.1745 37.0411 22.7104L29.8701 29.8814L34.9999 35.0112L45.0136 24.9974C50.5495 19.4616 50.5495 10.4951 45.0136 4.95926V4.94858Z" fill="#561AA4" fill-opacity="0.08"/>
        <path d="M34.9999 35.8016C34.7969 35.8016 34.5938 35.7268 34.4335 35.5665L24.4198 25.5527C21.5877 22.7207 20.0381 18.9695 20.0381 14.9726C20.0381 10.9756 21.5984 7.2138 24.4198 4.39242C27.2411 1.56036 31.003 0.0107422 34.9999 0.0107422C38.9969 0.0107422 42.7587 1.57105 45.5801 4.39242C51.4152 10.2275 51.4152 19.7176 45.5801 25.5634L35.5663 35.5772C35.406 35.7375 35.203 35.8123 34.9999 35.8123V35.8016ZM34.9999 1.60311C31.4305 1.60311 28.0747 2.99242 25.5526 5.51456C23.0305 8.0367 21.6411 11.3924 21.6411 14.9619C21.6411 18.5314 23.0305 21.8871 25.5526 24.4092L34.9999 33.8565L44.4472 24.4092C49.6625 19.1939 49.6625 10.7191 44.4472 5.51456C41.9251 2.99242 38.5694 1.60311 34.9999 1.60311Z" fill="#561AA4"/>
        <path d="M41.8395 14.9618C41.8395 18.745 38.7724 21.8015 34.9999 21.8015C31.2273 21.8015 28.1602 18.7343 28.1602 14.9618C28.1602 11.1892 31.2273 8.12207 34.9999 8.12207C38.7724 8.12207 41.8395 11.1892 41.8395 14.9618Z" fill="white"/>
        <path d="M39.5632 11.5419C40.0655 11.5419 40.5464 11.5954 41.0166 11.7022C39.8624 9.57551 37.5968 8.12207 34.9999 8.12207C31.2273 8.12207 28.1602 11.1892 28.1602 14.9618C28.1602 18.2427 30.4686 20.9786 33.5464 21.6412C33.0228 20.6686 32.7235 19.5572 32.7235 18.3816C32.7235 14.6091 35.7907 11.5419 39.5632 11.5419Z" fill="#561AA4" fill-opacity="0.08"/>
        <path d="M35.0001 22.6028C30.7894 22.6028 27.3589 19.1722 27.3589 14.9615C27.3589 10.7508 30.7894 7.32031 35.0001 7.32031C39.2108 7.32031 42.6413 10.7508 42.6413 14.9615C42.6413 19.1722 39.2108 22.6028 35.0001 22.6028ZM35.0001 8.92337C31.6658 8.92337 28.9619 11.6272 28.9619 14.9615C28.9619 18.2959 31.6658 20.9997 35.0001 20.9997C38.3345 20.9997 41.0383 18.2852 41.0383 14.9615C41.0383 11.6379 38.3238 8.92337 35.0001 8.92337Z" fill="#561AA4"/>
        <path d="M28.5879 63.8548H41.4123L39.9054 53.7021H30.0948L28.5879 63.8548Z" fill="white"/>
        <path d="M41.4124 64.6561H28.5879C28.3528 64.6561 28.1284 64.5599 27.9788 64.3783C27.8291 64.1966 27.7543 63.9721 27.7971 63.737L29.304 53.5844C29.3574 53.1889 29.6994 52.9004 30.0948 52.9004H39.9162C40.3116 52.9004 40.6536 53.1889 40.707 53.5844L42.2139 63.737C42.2459 63.9721 42.1818 64.2073 42.0322 64.3783C41.8826 64.5492 41.6582 64.6561 41.423 64.6561H41.4124ZM29.5177 63.0531H40.4826L39.2108 54.5034H30.7788L29.507 63.0531H29.5177Z" fill="#561AA4"/>
        <path d="M31.6761 43.0156L30.8853 48.3591H39.1143L38.3234 43.0156H31.6761Z" fill="white"/>
        <path d="M39.1143 49.1604H30.8853C30.6502 49.1604 30.4257 49.0642 30.2761 48.8826C30.1265 48.7009 30.0517 48.4765 30.0944 48.2413L30.8853 42.8978C30.9387 42.5024 31.2807 42.2139 31.6761 42.2139H38.3235C38.7189 42.2139 39.0609 42.5024 39.1143 42.8978L39.9051 48.2413C39.9372 48.4765 39.8731 48.7116 39.7235 48.8826C39.5738 49.0536 39.3494 49.1604 39.1143 49.1604ZM31.8151 47.5574H38.1952L37.6395 43.8169H32.3708L31.8151 47.5574Z" fill="#561AA4"/>
        <path d="M16.8533 41.9676C16.6823 41.9676 16.5113 41.9142 16.3617 41.7966C16.009 41.5295 15.9556 41.0165 16.2228 40.6745L18.1251 38.2485C18.3922 37.8959 18.8945 37.8317 19.2472 38.1096C19.5999 38.3768 19.6533 38.8898 19.3861 39.2317L17.4838 41.6577C17.3235 41.8608 17.0884 41.9676 16.8533 41.9676Z" fill="#561AA4"/>
        <path d="M5.83523 56.075C5.66424 56.075 5.49325 56.0216 5.34363 55.9041C4.99096 55.6369 4.93752 55.1239 5.2047 54.7819L13.6047 44.0308C13.8719 43.6781 14.3742 43.614 14.7268 43.8918C15.0795 44.159 15.1329 44.672 14.8658 45.014L6.46577 55.7651C6.30546 55.9682 6.07035 56.075 5.83523 56.075Z" fill="#561AA4"/>
        <path d="M64.1651 56.0751C63.93 56.0751 63.6949 55.9682 63.5346 55.7652L54.6964 44.4583C54.4292 44.1056 54.4827 43.6033 54.8353 43.3362C55.188 43.0583 55.6903 43.1224 55.9575 43.4751L64.7956 54.782C65.0628 55.1346 65.0094 55.6369 64.6567 55.9041C64.5071 56.0217 64.3361 56.0751 64.1651 56.0751Z" fill="#561AA4"/>
        <path d="M69.1984 62.5187C68.9633 62.5187 68.7281 62.4118 68.5678 62.2088L66.2701 59.2698C66.003 58.9172 66.0564 58.4149 66.4091 58.1477C66.7617 57.8698 67.264 57.934 67.5312 58.2866L69.8289 61.2256C70.0961 61.5782 70.0426 62.0805 69.69 62.3477C69.5404 62.4653 69.3694 62.5187 69.1984 62.5187Z" fill="#561AA4"/>
        <path d="M64.2612 4.81985H62.7864C62.3482 4.81985 61.9849 4.45649 61.9849 4.01832C61.9849 3.58016 62.3482 3.2168 62.7864 3.2168H64.2612C64.6994 3.2168 65.0627 3.58016 65.0627 4.01832C65.0627 4.45649 64.6994 4.81985 64.2612 4.81985Z" fill="#561AA4"/>
        <path d="M69.1987 4.81985H67.7239C67.2857 4.81985 66.9224 4.45649 66.9224 4.01832C66.9224 3.58016 67.2857 3.2168 67.7239 3.2168H69.1987C69.6369 3.2168 70.0002 3.58016 70.0002 4.01832C70.0002 4.45649 69.6369 4.81985 69.1987 4.81985Z" fill="#561AA4"/>
        <path d="M65.9924 8.02611C65.5543 8.02611 65.1909 7.66275 65.1909 7.22458V5.74977C65.1909 5.3116 65.5543 4.94824 65.9924 4.94824C66.4306 4.94824 66.794 5.3116 66.794 5.74977V7.22458C66.794 7.66275 66.4306 8.02611 65.9924 8.02611Z" fill="#561AA4"/>
        <path d="M65.9924 3.08861C65.5543 3.08861 65.1909 2.72525 65.1909 2.28708V0.812269C65.1909 0.374101 65.5543 0.0107422 65.9924 0.0107422C66.4306 0.0107422 66.794 0.374101 66.794 0.812269V2.28708C66.794 2.72525 66.4306 3.08861 65.9924 3.08861Z" fill="#561AA4"/>
        <path d="M53.5742 26.1939H52.0994C51.6612 26.1939 51.2979 25.8305 51.2979 25.3923C51.2979 24.9542 51.6612 24.5908 52.0994 24.5908H53.5742C54.0124 24.5908 54.3757 24.9542 54.3757 25.3923C54.3757 25.8305 54.0124 26.1939 53.5742 26.1939Z" fill="#561AA4"/>
        <path d="M58.5117 26.1939H57.0369C56.5987 26.1939 56.2354 25.8305 56.2354 25.3923C56.2354 24.9542 56.5987 24.5908 57.0369 24.5908H58.5117C58.9499 24.5908 59.3132 24.9542 59.3132 25.3923C59.3132 25.8305 58.9499 26.1939 58.5117 26.1939Z" fill="#561AA4"/>
        <path d="M55.3054 29.4001C54.8673 29.4001 54.5039 29.0368 54.5039 28.5986V27.1238C54.5039 26.6856 54.8673 26.3223 55.3054 26.3223C55.7436 26.3223 56.107 26.6856 56.107 27.1238V28.5986C56.107 29.0368 55.7436 29.4001 55.3054 29.4001Z" fill="#561AA4"/>
        <path d="M55.3054 24.4626C54.8673 24.4626 54.5039 24.0993 54.5039 23.6611V22.1863C54.5039 21.7481 54.8673 21.3848 55.3054 21.3848C55.7436 21.3848 56.107 21.7481 56.107 22.1863V23.6611C56.107 24.0993 55.7436 24.4626 55.3054 24.4626Z" fill="#561AA4"/>
        <path d="M9.75729 11.232H8.28248C7.84432 11.232 7.48096 10.8686 7.48096 10.4304C7.48096 9.99227 7.84432 9.62891 8.28248 9.62891H9.75729C10.1955 9.62891 10.5588 9.99227 10.5588 10.4304C10.5588 10.8686 10.1955 11.232 9.75729 11.232Z" fill="#561AA4"/>
        <path d="M14.6948 11.232H13.22C12.7818 11.232 12.4185 10.8686 12.4185 10.4304C12.4185 9.99227 12.7818 9.62891 13.22 9.62891H14.6948C15.133 9.62891 15.4963 9.99227 15.4963 10.4304C15.4963 10.8686 15.133 11.232 14.6948 11.232Z" fill="#561AA4"/>
        <path d="M11.4885 14.4382C11.0504 14.4382 10.687 14.0749 10.687 13.6367V12.1619C10.687 11.7237 11.0504 11.3604 11.4885 11.3604C11.9267 11.3604 12.2901 11.7237 12.2901 12.1619V13.6367C12.2901 14.0749 11.9267 14.4382 11.4885 14.4382Z" fill="#561AA4"/>
        <path d="M11.4885 9.50071C11.0504 9.50071 10.687 9.13736 10.687 8.69919V7.22438C10.687 6.78621 11.0504 6.42285 11.4885 6.42285C11.9267 6.42285 12.2901 6.78621 12.2901 7.22438V8.69919C12.2901 9.13736 11.9267 9.50071 11.4885 9.50071Z" fill="#561AA4"/>
        <path d="M2.27634 34.7437H0.801527C0.363359 34.7437 0 34.3803 0 33.9422C0 33.504 0.363359 33.1406 0.801527 33.1406H2.27634C2.7145 33.1406 3.07786 33.504 3.07786 33.9422C3.07786 34.3803 2.7145 34.7437 2.27634 34.7437Z" fill="#561AA4"/>
        <path d="M7.21384 34.7437H5.73903C5.30086 34.7437 4.9375 34.3803 4.9375 33.9422C4.9375 33.504 5.30086 33.1406 5.73903 33.1406H7.21384C7.652 33.1406 8.01536 33.504 8.01536 33.9422C8.01536 34.3803 7.652 34.7437 7.21384 34.7437Z" fill="#561AA4"/>
        <path d="M4.00758 37.9499C3.56941 37.9499 3.20605 37.5866 3.20605 37.1484V35.6736C3.20605 35.2354 3.56941 34.8721 4.00758 34.8721C4.44575 34.8721 4.80911 35.2354 4.80911 35.6736V37.1484C4.80911 37.5866 4.44575 37.9499 4.00758 37.9499Z" fill="#561AA4"/>
        <path d="M4.00758 33.0124C3.56941 33.0124 3.20605 32.6491 3.20605 32.2109V30.7361C3.20605 30.2979 3.56941 29.9346 4.00758 29.9346C4.44575 29.9346 4.80911 30.2979 4.80911 30.7361V32.2109C4.80911 32.6491 4.44575 33.0124 4.00758 33.0124Z" fill="#561AA4"/>
        <path d="M64.2612 42.2241H62.7864C62.3482 42.2241 61.9849 41.8608 61.9849 41.4226C61.9849 40.9845 62.3482 40.6211 62.7864 40.6211H64.2612C64.6994 40.6211 65.0627 40.9845 65.0627 41.4226C65.0627 41.8608 64.6994 42.2241 64.2612 42.2241Z" fill="#561AA4"/>
        <path d="M69.1987 42.2241H67.7239C67.2857 42.2241 66.9224 41.8608 66.9224 41.4226C66.9224 40.9845 67.2857 40.6211 67.7239 40.6211H69.1987C69.6369 40.6211 70.0002 40.9845 70.0002 41.4226C70.0002 41.8608 69.6369 42.2241 69.1987 42.2241Z" fill="#561AA4"/>
        <path d="M65.9924 45.4304C65.5543 45.4304 65.1909 45.067 65.1909 44.6289V43.1541C65.1909 42.7159 65.5543 42.3525 65.9924 42.3525C66.4306 42.3525 66.794 42.7159 66.794 43.1541V44.6289C66.794 45.067 66.4306 45.4304 65.9924 45.4304Z" fill="#561AA4"/>
        <path d="M65.9924 40.4929C65.5543 40.4929 65.1909 40.1295 65.1909 39.6914V38.2166C65.1909 37.7784 65.5543 37.415 65.9924 37.415C66.4306 37.415 66.794 37.7784 66.794 38.2166V39.6914C66.794 40.1295 66.4306 40.4929 65.9924 40.4929Z" fill="#561AA4"/>
    </g>
    <defs>
        <clipPath id="clip0_1288_1436">
            <rect width="70" height="70" fill="white"/>
        </clipPath>
    </defs>
</svg>
