<svg width="70" height="70" viewBox="0 0 70 70" fill="none" xmlns="http://www.w3.org/2000/svg">
<g clip-path="url(#clip0_2065_68570)">
<path d="M69.1987 69.1985H0.801758L27.5193 35H42.4811L69.1987 69.1985Z" fill="#E1ECFF"/>
<path d="M51.469 63.855H4.98047L27.5194 35H39.2751L52.4308 62.3267C52.7728 63.0321 52.2599 63.855 51.469 63.855Z" fill="white"/>
<path d="M69.1982 70.0007H0.801208C0.491285 70.0007 0.213422 69.8298 0.0851779 69.5519C-0.0537534 69.274 -0.0110054 68.9534 0.170674 68.7076L26.8882 34.5091C27.0379 34.3168 27.273 34.1992 27.5188 34.1992H42.4806C42.7264 34.1992 42.9615 34.3168 43.1111 34.5091L69.8287 68.7076C70.0211 68.9534 70.0531 69.274 69.9142 69.5519C69.7859 69.8298 69.4974 70.0007 69.1982 70.0007ZM2.44701 68.3977H67.5524L42.0852 35.8023H27.9035L2.44701 68.3977Z" fill="#561AA4"/>
<path d="M34.9999 38.7407C41.4924 38.7407 46.7556 37.066 46.7556 35.0002C46.7556 32.9344 41.4924 31.2598 34.9999 31.2598C28.5074 31.2598 23.2441 32.9344 23.2441 35.0002C23.2441 37.066 28.5074 38.7407 34.9999 38.7407Z" fill="white"/>
<path d="M34.9996 39.543C28.7584 39.543 22.4424 37.9826 22.4424 35.001C22.4424 32.0193 28.7584 30.459 34.9996 30.459C41.2409 30.459 47.5569 32.0193 47.5569 35.001C47.5569 37.9826 41.2409 39.543 34.9996 39.543ZM34.9996 32.062C27.8073 32.062 24.0454 33.975 24.0454 35.001C24.0454 36.1979 28.3096 37.9399 34.9996 37.9399C41.6897 37.9399 45.9538 36.1979 45.9538 35.001C45.9538 33.975 42.192 32.062 34.9996 32.062Z" fill="#561AA4"/>
<path d="M45.0133 4.94878C39.4774 -0.587095 30.511 -0.587095 24.9752 4.94878C19.4393 10.4847 19.4393 19.4511 24.9752 24.9869L34.9889 35.0007L45.0026 24.9869C50.5385 19.4511 50.5385 10.4847 45.0026 4.94878H45.0133Z" fill="white"/>
<path d="M45.0136 4.94858C42.1816 2.11652 38.4518 0.748578 34.7434 0.8127C35.5556 1.34705 36.3251 1.95621 37.0411 2.67224C42.577 8.20812 42.577 17.1745 37.0411 22.7104L29.8701 29.8814L34.9999 35.0112L45.0136 24.9974C50.5495 19.4616 50.5495 10.4951 45.0136 4.95926V4.94858Z" fill="#E1ECFF"/>
<path d="M34.9999 35.8006C34.7969 35.8006 34.5938 35.7258 34.4335 35.5655L24.4198 25.5518C21.5877 22.7197 20.0381 18.9685 20.0381 14.9716C20.0381 10.9747 21.5984 7.21282 24.4198 4.39145C27.2411 1.55938 31.003 0.00976562 34.9999 0.00976562C38.9969 0.00976562 42.7587 1.57007 45.5801 4.39145C51.4152 10.2266 51.4152 19.7166 45.5801 25.5624L35.5663 35.5762C35.406 35.7365 35.203 35.8113 34.9999 35.8113V35.8006ZM34.9999 1.60213C31.4305 1.60213 28.0747 2.99145 25.5526 5.51358C23.0305 8.03572 21.6411 11.3914 21.6411 14.9609C21.6411 18.5304 23.0305 21.8861 25.5526 24.4082L34.9999 33.8556L44.4472 24.4082C49.6625 19.193 49.6625 10.7182 44.4472 5.51358C41.9251 2.99145 38.5694 1.60213 34.9999 1.60213Z" fill="#561AA4"/>
<path d="M41.8395 14.9627C41.8395 18.7459 38.7724 21.8024 34.9999 21.8024C31.2273 21.8024 28.1602 18.7353 28.1602 14.9627C28.1602 11.1902 31.2273 8.12305 34.9999 8.12305C38.7724 8.12305 41.8395 11.1902 41.8395 14.9627Z" fill="white"/>
<path d="M39.5632 11.5429C40.0655 11.5429 40.5464 11.5963 41.0166 11.7032C39.8624 9.57648 37.5968 8.12305 34.9999 8.12305C31.2273 8.12305 28.1602 11.1902 28.1602 14.9627C28.1602 18.2437 30.4686 20.9795 33.5464 21.6421C33.0228 20.6696 32.7235 19.5582 32.7235 18.3826C32.7235 14.6101 35.7907 11.5429 39.5632 11.5429Z" fill="#E1ECFF"/>
<path d="M34.9996 22.6028C30.7889 22.6028 27.3584 19.1722 27.3584 14.9615C27.3584 10.7508 30.7889 7.32031 34.9996 7.32031C39.2103 7.32031 42.6408 10.7508 42.6408 14.9615C42.6408 19.1722 39.2103 22.6028 34.9996 22.6028ZM34.9996 8.92337C31.6653 8.92337 28.9615 11.6272 28.9615 14.9615C28.9615 18.2959 31.6653 20.9997 34.9996 20.9997C38.334 20.9997 41.0378 18.2852 41.0378 14.9615C41.0378 11.6379 38.3233 8.92337 34.9996 8.92337Z" fill="#561AA4"/>
<path d="M28.5879 63.8558H41.4123L39.9054 53.7031H30.0948L28.5879 63.8558Z" fill="white"/>
<path d="M41.4124 64.6561H28.5879C28.3528 64.6561 28.1284 64.5599 27.9788 64.3783C27.8291 64.1966 27.7543 63.9721 27.7971 63.737L29.304 53.5844C29.3574 53.1889 29.6994 52.9004 30.0948 52.9004H39.9162C40.3116 52.9004 40.6536 53.1889 40.707 53.5844L42.2139 63.737C42.2459 63.9721 42.1818 64.2073 42.0322 64.3783C41.8826 64.5492 41.6582 64.6561 41.423 64.6561H41.4124ZM29.5177 63.0531H40.4826L39.2108 54.5034H30.7788L29.507 63.0531H29.5177Z" fill="#561AA4"/>
<path d="M31.6766 43.0156L30.8857 48.3591H39.1147L38.3239 43.0156H31.6766Z" fill="white"/>
<path d="M39.1148 49.1595H30.8858C30.6507 49.1595 30.4262 49.0633 30.2766 48.8816C30.127 48.6999 30.0522 48.4755 30.0949 48.2404L30.8858 42.8969C30.9392 42.5014 31.2812 42.2129 31.6766 42.2129H38.3239C38.7194 42.2129 39.0613 42.5014 39.1148 42.8969L39.9056 48.2404C39.9377 48.4755 39.8736 48.7106 39.7239 48.8816C39.5743 49.0526 39.3499 49.1595 39.1148 49.1595ZM31.8155 47.5564H38.1957L37.64 43.8159H32.3713L31.8155 47.5564Z" fill="#561AA4"/>
<path d="M16.8538 41.9686C16.6828 41.9686 16.5118 41.9152 16.3622 41.7976C16.0095 41.5304 15.9561 41.0175 16.2233 40.6755L18.1255 38.2495C18.3927 37.8968 18.895 37.8327 19.2477 38.1106C19.6004 38.3778 19.6538 38.8907 19.3866 39.2327L17.4843 41.6587C17.324 41.8617 17.0889 41.9686 16.8538 41.9686Z" fill="#561AA4"/>
<path d="M5.83523 56.075C5.66424 56.075 5.49325 56.0216 5.34363 55.9041C4.99096 55.6369 4.93752 55.1239 5.2047 54.7819L13.6047 44.0308C13.8719 43.6781 14.3742 43.614 14.7268 43.8918C15.0795 44.159 15.1329 44.672 14.8658 45.014L6.46577 55.7651C6.30546 55.9682 6.07035 56.075 5.83523 56.075Z" fill="#561AA4"/>
<path d="M64.1646 56.0741C63.9295 56.0741 63.6944 55.9673 63.5341 55.7642L54.6959 44.4573C54.4287 44.1047 54.4822 43.6024 54.8348 43.3352C55.1875 43.0573 55.6898 43.1215 55.957 43.4741L64.7951 54.781C65.0623 55.1337 65.0089 55.636 64.6562 55.9031C64.5066 56.0207 64.3356 56.0741 64.1646 56.0741Z" fill="#561AA4"/>
<path d="M69.1984 62.5187C68.9633 62.5187 68.7281 62.4118 68.5678 62.2088L66.2701 59.2698C66.003 58.9172 66.0564 58.4149 66.4091 58.1477C66.7617 57.8698 67.264 57.934 67.5312 58.2866L69.8289 61.2256C70.0961 61.5782 70.0426 62.0805 69.69 62.3477C69.5404 62.4653 69.3694 62.5187 69.1984 62.5187Z" fill="#561AA4"/>
<path d="M64.2607 4.81985H62.7859C62.3477 4.81985 61.9844 4.45649 61.9844 4.01832C61.9844 3.58016 62.3477 3.2168 62.7859 3.2168H64.2607C64.6989 3.2168 65.0622 3.58016 65.0622 4.01832C65.0622 4.45649 64.6989 4.81985 64.2607 4.81985Z" fill="#561AA4"/>
<path d="M69.1982 4.81985H67.7234C67.2852 4.81985 66.9219 4.45649 66.9219 4.01832C66.9219 3.58016 67.2852 3.2168 67.7234 3.2168H69.1982C69.6364 3.2168 69.9997 3.58016 69.9997 4.01832C69.9997 4.45649 69.6364 4.81985 69.1982 4.81985Z" fill="#561AA4"/>
<path d="M65.992 8.02513C65.5538 8.02513 65.1904 7.66177 65.1904 7.2236V5.74879C65.1904 5.31062 65.5538 4.94727 65.992 4.94727C66.4301 4.94727 66.7935 5.31062 66.7935 5.74879V7.2236C66.7935 7.66177 66.4301 8.02513 65.992 8.02513Z" fill="#561AA4"/>
<path d="M65.992 3.08763C65.5538 3.08763 65.1904 2.72427 65.1904 2.2861V0.811292C65.1904 0.373124 65.5538 0.00976562 65.992 0.00976562C66.4301 0.00976562 66.7935 0.373124 66.7935 0.811292V2.2861C66.7935 2.72427 66.4301 3.08763 65.992 3.08763Z" fill="#561AA4"/>
<path d="M53.5742 26.1949H52.0994C51.6612 26.1949 51.2979 25.8315 51.2979 25.3933C51.2979 24.9552 51.6612 24.5918 52.0994 24.5918H53.5742C54.0124 24.5918 54.3757 24.9552 54.3757 25.3933C54.3757 25.8315 54.0124 26.1949 53.5742 26.1949Z" fill="#561AA4"/>
<path d="M58.5117 26.1949H57.0369C56.5987 26.1949 56.2354 25.8315 56.2354 25.3933C56.2354 24.9552 56.5987 24.5918 57.0369 24.5918H58.5117C58.9499 24.5918 59.3132 24.9552 59.3132 25.3933C59.3132 25.8315 58.9499 26.1949 58.5117 26.1949Z" fill="#561AA4"/>
<path d="M55.3054 29.4001C54.8673 29.4001 54.5039 29.0368 54.5039 28.5986V27.1238C54.5039 26.6856 54.8673 26.3223 55.3054 26.3223C55.7436 26.3223 56.107 26.6856 56.107 27.1238V28.5986C56.107 29.0368 55.7436 29.4001 55.3054 29.4001Z" fill="#561AA4"/>
<path d="M55.3054 24.4626C54.8673 24.4626 54.5039 24.0993 54.5039 23.6611V22.1863C54.5039 21.7481 54.8673 21.3848 55.3054 21.3848C55.7436 21.3848 56.107 21.7481 56.107 22.1863V23.6611C56.107 24.0993 55.7436 24.4626 55.3054 24.4626Z" fill="#561AA4"/>
<path d="M9.7568 11.232H8.282C7.84383 11.232 7.48047 10.8686 7.48047 10.4304C7.48047 9.99227 7.84383 9.62891 8.282 9.62891H9.7568C10.195 9.62891 10.5583 9.99227 10.5583 10.4304C10.5583 10.8686 10.195 11.232 9.7568 11.232Z" fill="#561AA4"/>
<path d="M14.6943 11.232H13.2195C12.7813 11.232 12.418 10.8686 12.418 10.4304C12.418 9.99227 12.7813 9.62891 13.2195 9.62891H14.6943C15.1325 9.62891 15.4958 9.99227 15.4958 10.4304C15.4958 10.8686 15.1325 11.232 14.6943 11.232Z" fill="#561AA4"/>
<path d="M11.489 14.4372C11.0509 14.4372 10.6875 14.0739 10.6875 13.6357V12.1609C10.6875 11.7227 11.0509 11.3594 11.489 11.3594C11.9272 11.3594 12.2906 11.7227 12.2906 12.1609V13.6357C12.2906 14.0739 11.9272 14.4372 11.489 14.4372Z" fill="#561AA4"/>
<path d="M11.489 9.50169C11.0509 9.50169 10.6875 9.13833 10.6875 8.70016V7.22535C10.6875 6.78719 11.0509 6.42383 11.489 6.42383C11.9272 6.42383 12.2906 6.78719 12.2906 7.22535V8.70016C12.2906 9.13833 11.9272 9.50169 11.489 9.50169Z" fill="#561AA4"/>
<path d="M2.27634 34.7437H0.801527C0.363359 34.7437 0 34.3803 0 33.9422C0 33.504 0.363359 33.1406 0.801527 33.1406H2.27634C2.7145 33.1406 3.07786 33.504 3.07786 33.9422C3.07786 34.3803 2.7145 34.7437 2.27634 34.7437Z" fill="#561AA4"/>
<path d="M7.21384 34.7437H5.73903C5.30086 34.7437 4.9375 34.3803 4.9375 33.9422C4.9375 33.504 5.30086 33.1406 5.73903 33.1406H7.21384C7.652 33.1406 8.01536 33.504 8.01536 33.9422C8.01536 34.3803 7.652 34.7437 7.21384 34.7437Z" fill="#561AA4"/>
<path d="M4.00758 37.949C3.56941 37.949 3.20605 37.5856 3.20605 37.1474V35.6726C3.20605 35.2345 3.56941 34.8711 4.00758 34.8711C4.44575 34.8711 4.80911 35.2345 4.80911 35.6726V37.1474C4.80911 37.5856 4.44575 37.949 4.00758 37.949Z" fill="#561AA4"/>
<path d="M4.00758 33.0115C3.56941 33.0115 3.20605 32.6481 3.20605 32.2099V30.7351C3.20605 30.297 3.56941 29.9336 4.00758 29.9336C4.44575 29.9336 4.80911 30.297 4.80911 30.7351V32.2099C4.80911 32.6481 4.44575 33.0115 4.00758 33.0115Z" fill="#561AA4"/>
<path d="M64.2607 42.2241H62.7859C62.3477 42.2241 61.9844 41.8608 61.9844 41.4226C61.9844 40.9845 62.3477 40.6211 62.7859 40.6211H64.2607C64.6989 40.6211 65.0622 40.9845 65.0622 41.4226C65.0622 41.8608 64.6989 42.2241 64.2607 42.2241Z" fill="#561AA4"/>
<path d="M69.1982 42.2241H67.7234C67.2852 42.2241 66.9219 41.8608 66.9219 41.4226C66.9219 40.9845 67.2852 40.6211 67.7234 40.6211H69.1982C69.6364 40.6211 69.9997 40.9845 69.9997 41.4226C69.9997 41.8608 69.6364 42.2241 69.1982 42.2241Z" fill="#561AA4"/>
<path d="M65.992 45.4314C65.5538 45.4314 65.1904 45.068 65.1904 44.6298V43.155C65.1904 42.7169 65.5538 42.3535 65.992 42.3535C66.4301 42.3535 66.7935 42.7169 66.7935 43.155V44.6298C66.7935 45.068 66.4301 45.4314 65.992 45.4314Z" fill="#561AA4"/>
<path d="M65.992 40.4939C65.5538 40.4939 65.1904 40.1305 65.1904 39.6924V38.2175C65.1904 37.7794 65.5538 37.416 65.992 37.416C66.4301 37.416 66.7935 37.7794 66.7935 38.2175V39.6924C66.7935 40.1305 66.4301 40.4939 65.992 40.4939Z" fill="#561AA4"/>
</g>
<defs>
<clipPath id="clip0_2065_68570">
<rect width="70" height="70" fill="white"/>
</clipPath>
</defs>
</svg>
