<svg width="115" height="34" viewBox="0 0 115 34" fill="none" xmlns="http://www.w3.org/2000/svg">
<g clip-path="url(#clip0_5439_40)">
<path opacity="0.5" d="M24.2521 6.06201L22.7356 9.09501L21.2191 12.128L19.7066 15.157L18.1901 18.19L15.1571 24.2521L13.6406 27.2851H21.2191L22.7356 24.2521L24.2521 21.2191L25.7686 18.19L27.2851 15.157L30.3141 9.09501L31.8306 6.06201H24.2521Z" fill="url(#paint0_linear_5439_40)"/>
<path d="M33.3471 0H27.2851L26.0743 2.42561L24.256 6.06203H33.3511C36.6977 6.06203 39.4131 8.77744 39.4131 12.1241C39.4131 15.4707 36.6977 18.1861 33.3511 18.1861H18.19L15.157 24.2481H33.3471C40.0443 24.2481 45.4752 18.8173 45.4752 12.1201C45.4752 5.42288 40.0443 0 33.3471 0Z" fill="url(#paint1_radial_5439_40)"/>
<path d="M22.7356 9.09497H12.128C5.43082 9.09497 0 14.5218 0 21.219C0 27.42 4.65272 32.5293 10.6552 33.2518C11.1356 33.3113 11.6278 33.3431 12.1241 33.3431H18.1861L19.3969 30.9175L21.2151 27.2811H12.128C8.78141 27.2811 6.066 24.5657 6.066 21.219C6.066 17.8724 8.78141 15.157 12.128 15.157H27.2851L30.3181 9.09497H22.7396H22.7356Z" fill="url(#paint2_radial_5439_40)"/>
<path d="M55.9399 9.69439C58.3893 9.69439 60.1678 11.9334 60.1678 15.4507C60.1678 18.9681 58.3933 21.2389 55.9399 21.2389C53.4865 21.2389 51.7119 18.9998 51.7119 15.4507C51.7119 11.9016 53.5063 9.69439 55.9399 9.69439ZM55.9399 19.4286C57.3095 19.4286 58.2305 17.9716 58.2305 15.4507C58.2305 12.9299 57.3055 11.5086 55.9399 11.5086C54.5742 11.5086 53.6492 12.9656 53.6492 15.4507C53.6492 17.9359 54.5901 19.4286 55.9399 19.4286ZM64.6419 24.8475H62.6331V8.50342H64.6419V24.8435V24.8475Z" fill="black"/>
<path d="M68.6396 22.2869L67.5558 20.7426C70.3625 19.3412 72.0299 17.7056 72.9747 15.7683L67.9488 16.2646L67.6828 14.5258L73.5622 14.1526C73.7766 13.3904 73.8997 12.5884 73.9513 11.7389H68.5324V10.1231H75.9561C75.9561 15.0418 74.6063 19.2896 68.6396 22.2909V22.2869ZM78.1951 8.50342H80.2198V14.8791H82.6176V16.5504H80.2198V24.7919H78.1951V8.50342Z" fill="black"/>
<path d="M83.88 18.3249H98.6401V19.9406H92.2287V24.8434H90.2398V19.9406H83.88V18.3249ZM96.9172 13.7079H87.6633V15.3236H97.2903V16.9394H85.6387V12.1953H94.8727V10.6868H85.6029V9.08691H96.9172V13.7039V13.7079Z" fill="black"/>
<path d="M100.24 21.096H115V22.7475H100.24V21.096ZM114.397 16.3719L113.527 18.0591C110.808 17.4914 108.589 15.8399 107.541 13.6366C106.477 15.8201 104.273 17.4914 101.554 18.0591L100.685 16.3719C104.043 15.7843 106.473 13.2476 106.473 10.7227V9.53174H108.605V10.7227C108.605 13.2634 111.038 15.7843 114.393 16.3719H114.397Z" fill="black"/>
</g>
<defs>
<linearGradient id="paint0_linear_5439_40" x1="13.6406" y1="16.6735" x2="31.8306" y2="16.6735" gradientUnits="userSpaceOnUse">
<stop stop-color="#9A9CFE"/>
<stop offset="1" stop-color="#0868FD"/>
</linearGradient>
<radialGradient id="paint1_radial_5439_40" cx="0" cy="0" r="1" gradientUnits="userSpaceOnUse" gradientTransform="translate(28.8135 12.93) scale(14.5536)">
<stop stop-color="#85ECC7"/>
<stop offset="0.04" stop-color="#7DECC8"/>
<stop offset="0.35" stop-color="#45ECD5"/>
<stop offset="0.5" stop-color="#30ECDB"/>
<stop offset="1" stop-color="#85ECC7"/>
</radialGradient>
<radialGradient id="paint2_radial_5439_40" cx="0" cy="0" r="1" gradientUnits="userSpaceOnUse" gradientTransform="translate(15.1571 21.219) scale(13.7279)">
<stop stop-color="#9A9CFE"/>
<stop offset="0.5" stop-color="#0868FD"/>
<stop offset="1" stop-color="#9A9CFE"/>
</radialGradient>
<clipPath id="clip0_5439_40">
<rect width="115" height="33.3471" fill="white"/>
</clipPath>
</defs>
</svg>
