<svg width="14" height="14" viewBox="0 0 14 14" fill="none" xmlns="http://www.w3.org/2000/svg">
<g clip-path="url(#clip0_1882_54359)">
<path d="M4.90565 8.72953C4.79481 8.72953 4.68981 8.71203 4.60231 8.68287C4.50898 8.64787 4.43315 8.60703 4.36898 8.54287C4.30481 8.48453 4.25231 8.41453 4.21731 8.32703C4.18231 8.24537 4.16481 8.15203 4.16481 8.05287H3.40648C3.40648 8.26287 3.44731 8.44953 3.52898 8.60703C3.61065 8.76453 3.72148 8.8987 3.85565 9.00953C3.99565 9.11453 4.15315 9.1962 4.33398 9.2487C4.50898 9.30703 4.69565 9.3362 4.89398 9.3362C5.10982 9.3362 5.31398 9.30703 5.49481 9.2487C5.68148 9.19037 5.84481 9.10287 5.97898 8.99203C6.11315 8.8812 6.22398 8.7412 6.29982 8.57203C6.37565 8.40287 6.41648 8.2162 6.41648 8.0062C6.41648 7.89537 6.40482 7.78453 6.37565 7.67953C6.34648 7.57453 6.30565 7.47537 6.24148 7.38203C6.18315 7.2887 6.10148 7.20703 6.00815 7.1312C5.90898 7.05537 5.79231 6.99703 5.65231 6.95037C5.76898 6.89787 5.86815 6.8337 5.95565 6.75787C6.04315 6.68203 6.11315 6.60037 6.17148 6.51287C6.22982 6.42537 6.27065 6.33787 6.29982 6.24453C6.32898 6.1512 6.34065 6.05787 6.34065 5.96453C6.34065 5.75453 6.30565 5.56787 6.23565 5.40453C6.16565 5.2412 6.06648 5.10703 5.93815 5.00203C5.82148 4.8912 5.66398 4.80953 5.48898 4.7512C5.30815 4.6987 5.10982 4.66953 4.89398 4.66953C4.68398 4.66953 4.49148 4.6987 4.31065 4.76287C4.13565 4.82703 3.97815 4.91453 3.84981 5.02537C3.72731 5.1362 3.62815 5.26453 3.55231 5.4162C3.48231 5.56787 3.44731 5.7312 3.44731 5.91203H4.20565C4.20565 5.81287 4.22315 5.72537 4.25815 5.64953C4.29315 5.5737 4.33982 5.5037 4.40398 5.4512C4.46815 5.3987 4.53815 5.35203 4.62565 5.32287C4.71315 5.2937 4.80065 5.2762 4.90565 5.2762C5.13898 5.2762 5.31398 5.33453 5.42482 5.45703C5.53565 5.5737 5.59398 5.74287 5.59398 5.9587C5.59398 6.0637 5.57648 6.15703 5.54732 6.24453C5.51815 6.33203 5.46565 6.40203 5.40148 6.46037C5.33732 6.5187 5.25565 6.56537 5.16231 6.60037C5.06898 6.63537 4.95232 6.65287 4.82398 6.65287H4.37481V7.2537H4.82398C4.95232 7.2537 5.06898 7.26537 5.17398 7.29453C5.27898 7.3237 5.36648 7.37037 5.43648 7.4287C5.50648 7.49287 5.56481 7.5687 5.60565 7.66203C5.64648 7.75537 5.66398 7.8662 5.66398 7.99453C5.66398 8.2337 5.59398 8.41453 5.45981 8.53703C5.32565 8.6712 5.13898 8.72953 4.90565 8.72953ZM10.3306 5.9762C10.2256 5.70203 10.0798 5.4687 9.89315 5.2762C9.70648 5.0837 9.48481 4.93203 9.22815 4.82703C8.97731 4.72203 8.69148 4.66953 8.37648 4.66953H6.99981V9.3362H8.34148C8.66232 9.3362 8.95982 9.2837 9.22232 9.1787C9.48482 9.0737 9.71231 8.92787 9.89898 8.73537C10.0856 8.54287 10.2315 8.30953 10.3306 8.0412C10.4298 7.76703 10.4823 7.4637 10.4823 7.12537V6.89203C10.4823 6.5537 10.4298 6.25037 10.3306 5.9762ZM9.67148 7.11953C9.67148 7.36453 9.64232 7.58037 9.58982 7.7787C9.53148 7.9712 9.44982 8.14037 9.33898 8.27453C9.22815 8.4087 9.08815 8.5137 8.92482 8.5837C8.75565 8.6537 8.56315 8.6887 8.34732 8.6887H7.81648V5.31703H8.38231C8.80231 5.31703 9.12315 5.4512 9.33898 5.71953C9.56065 5.98787 9.67148 6.37287 9.67148 6.88037V7.11953ZM8.83731 2.24287L9.61315 1.46703C11.4156 2.3187 12.7281 4.0162 13.049 6.05203C13.084 6.2912 13.3056 6.45453 13.5506 6.4137C13.7898 6.3787 13.9531 6.1512 13.9123 5.91203C13.5623 3.68953 12.1856 1.82287 10.2723 0.807865C9.29815 0.288699 8.03815 -0.0729679 6.61482 0.0145321L8.83731 2.24287ZM5.16231 11.757L4.38648 12.5329C2.58398 11.6812 1.27148 9.9837 0.950648 7.94787C0.915648 7.7087 0.693981 7.54537 0.448981 7.5862C0.209814 7.6212 0.0464811 7.8487 0.0873145 8.08786C0.437315 10.3104 1.81398 12.177 3.72731 13.192C4.70148 13.7112 5.96148 14.0729 7.38481 13.9854L5.16231 11.757Z" fill="#2C324C"/>
</g>
<defs>
<clipPath id="clip0_1882_54359">
<rect width="14" height="14" fill="white"/>
</clipPath>
</defs>
</svg>
