<svg width="15" height="15" viewBox="0 0 15 15" fill="none" xmlns="http://www.w3.org/2000/svg">
<g clip-path="url(#clip0_1882_54357)">
<path d="M12.3171 1.81689H1.81706C1.23372 1.81689 0.650391 2.40023 0.650391 2.98356V11.1502C0.650391 11.7919 1.17539 12.3169 1.81706 12.3169H12.3171C12.9004 12.3169 13.4837 11.7336 13.4837 11.1502V2.98356C13.4837 2.40023 12.9004 1.81689 12.3171 1.81689ZM12.3171 11.1036C12.3054 11.1211 12.2821 11.1386 12.2704 11.1502H1.81706V3.03023L1.86372 2.98356H12.2646C12.2821 2.99523 12.2996 3.01856 12.3112 3.03023V11.1036H12.3171ZM6.48372 9.11439L5.02539 7.35856L2.98372 9.98356H11.1504L8.52539 6.48356L6.48372 9.11439Z" fill="#2C324C"/>
</g>
<defs>
<clipPath id="clip0_1882_54357">
<rect width="14" height="14" fill="white" transform="translate(0.0668945 0.0668945)"/>
</clipPath>
</defs>
</svg>
